<svg xmlns="http://www.w3.org/2000/svg" viewBox="0 0 599 595"><title>AlFarid</title><g id="Layer_1_copy" data-name="Layer 1 copy"><path d="M230.33,423.09c-5.65,10.31-12,20.34-13.9,32.28a45.11,45.11,0,0,0-.55,10c.45,7.17,4.15,10.92,11.19,11.94a25.33,25.33,0,0,0,11.83-1.49A39.92,39.92,0,0,0,252.05,468,82.33,82.33,0,0,0,266.27,452c3.42-4.95,6.82-9.93,10.32-14.83,2.2-3.09,4.53-6.08,6.87-9.07a101.7,101.7,0,0,1,41.43-31.86c14.43-6,29.09-11.3,44-16,2.76-.87,5.49-1.79,8.54-2.79.08-1.84.27-3.57.19-5.28-1.11-22.9,6-43.05,20.48-60.65a89.94,89.94,0,0,1,7.31-7.81,25.92,25.92,0,0,1,5.4-3.89c5.27-2.89,9.82-2,13.67,2.7a35.2,35.2,0,0,1,4.19,6.81,44.31,44.31,0,0,1,4.07,15.44,82.51,82.51,0,0,1-7.29,42.37c-1,2.19-2.51,4.21-2.68,6.94,4.9,2.56,10.21,3.41,15.41,4.34a93.17,93.17,0,0,0,22,1.63,73.63,73.63,0,0,0,8.6-1.14,6.1,6.1,0,0,0,5.35-6,143.51,143.51,0,0,0,.73-15.35,474.25,474.25,0,0,0-4.25-47.3c-4-29.62-8.16-59.21-12.07-88.83-1.37-10.39-2.17-20.85-3.31-31.27a39.46,39.46,0,0,0-1.21-5.85c-.62-2.36-1.49-4.67-2.08-7.05a13.87,13.87,0,0,1,.11-7.92,102.74,102.74,0,0,1,10.2-21.75,10,10,0,0,1,2.11-1.78,14.81,14.81,0,0,1,1.4,2.59,37.52,37.52,0,0,1,1,4.56,22.83,22.83,0,0,0,8.45,14.72,43.47,43.47,0,0,1,4.26,4.45c-2.21,5.65-4.31,11-6.41,16.42-4.22,10.84-4.05,10.82-2.33,22.63,4,27.58,8,55.17,11.64,82.8,1.93,14.59,3.26,29.26,4.62,43.91,1.66,17.81-2.09,34.6-10.13,50.49a41.49,41.49,0,0,1-7.66,10.91,20.81,20.81,0,0,1-15.56,6.52,108.29,108.29,0,0,1-29-4.74c-6.64-1.91-13.12-4.36-19.66-6.58-1.68-.57-3.34-1.2-5-1.82-15.51,7.82-32.17,12.06-48.62,16.95-10,3-20,6.22-29.89,9.68-10.68,3.73-19.92,9.91-28.19,17.6a202.68,202.68,0,0,0-23,26.06c-5.39,7.11-10.7,14.31-16.52,21a149.28,149.28,0,0,1-14.3,14,47.79,47.79,0,0,1-9,5.74,18.36,18.36,0,0,1-9.68,2.17c-8-.39-13.49-4.42-15.78-12.12a37.57,37.57,0,0,1-1.45-9.2c-.6-15.3,3.17-29.66,10.28-43.09,3-5.7,6.81-11,10.28-16.45.68-1.08,1.47-2.11,2.43-3.49-1.27-.78-2.14-1.39-3.07-1.87a38.72,38.72,0,0,1-14.12-13,116.15,116.15,0,0,1-11.06-21.35c-5-12.2-8.6-24.85-11.93-37.58a13.17,13.17,0,0,0-1-2.38c-.05-.11-.38-.08-.66-.12-1.32.46-1.09,1.74-1.21,2.73-.43,3.77-.81,7.55-1.09,11.33a33.76,33.76,0,0,1-7,17.81,60.3,60.3,0,0,1-14,13.28c-13.57,9.54-28.7,15.17-45,17.88A130.46,130.46,0,0,1,89,410a49.38,49.38,0,0,1-10.52-1.66c-5.92-1.57-9.54-5.64-10.78-11.6a44.63,44.63,0,0,1-1-8.62A215.29,215.29,0,0,1,69,353.4c.13-.86.21-1.73.34-2.87a27.37,27.37,0,0,0-3.26-.86c-4.81-.65-8.18-3.31-10.6-7.35a58.24,58.24,0,0,1-8.38-27.89c-.28-7,.65-13.82,1.71-20.65a333,333,0,0,1,19.13-70.2,111.74,111.74,0,0,1,4.82-10.28,13.29,13.29,0,0,1,2.45-2.66,2.16,2.16,0,0,1,1.73,2.77,47.79,47.79,0,0,1-1.61,7.82c-6.5,19.73-11.1,40-15.59,60.19-2.18,9.83-3,19.84-.78,29.87a29.18,29.18,0,0,0,4.4,10.41,12.65,12.65,0,0,0,6.19,4.91c4.78,1.72,9.5.65,12.63-3.39,2.59-3.33,4.61-7.09,7-10.57.56-.8,1.69-1.76,2.5-1.72,1.57.09,1.88,1.66,2,3a13.26,13.26,0,0,1-.19,3.33,75.63,75.63,0,0,1-6.1,19.05c-2.64,5.31-6.1,9.85-11.69,12.4a8,8,0,0,0-1.46,1.12,7.13,7.13,0,0,0-.13,1.43c1.08,9.65,7,14.38,16.1,16.07a76.93,76.93,0,0,0,22,.51A120.89,120.89,0,0,0,165.22,349a59.24,59.24,0,0,0,8.32-6.68c2.4-2.25,3.17-5.07,2.56-8.53-2.77-15.58-5.28-31.21-8-46.82-2.19-12.74-4.5-25.47-6.73-38.2a23.33,23.33,0,0,1-.38-4c-.05-12.27-.22-24.55,1.15-36.78.26-2.38.95-4.71,1.41-6.91,2.71-.34,3.12,1.49,3.5,2.85,2,7.08,4.12,14.14,5.6,21.33,3.74,18.12,6.89,36.37,10.77,54.46,5.3,24.71,13,48.67,24.22,71.4a113.9,113.9,0,0,0,8.79,15,54.43,54.43,0,0,0,9,9.79,25.57,25.57,0,0,0,22.45,6,53.76,53.76,0,0,0,17.93-7.08c3.95-2.41,5.21-5.9,4.28-10.32a27.3,27.3,0,0,0-5.46-11.35c-2.77-3.5-5.53-7-8.34-10.47a9,9,0,0,1-2.18-6.13,224.14,224.14,0,0,1,3.38-34.59c.1-.58.69-1.07,1-1.57,2.39,0,3.65,1.66,5.09,3,9.44,8.56,15,19.34,17.4,31.7a128.58,128.58,0,0,1-1.07,53.8,55.81,55.81,0,0,1-5.79,14.92c-6.83,12-17.29,18.32-31,19.3C239.08,423.34,234.85,423.09,230.33,423.09ZM422,348.91c-.83-7.54-4.23-14-9.2-19.5-3.66-4.11-6.8-4.24-11-.63a52,52,0,0,0-12.43,15.48,19.76,19.76,0,0,0-2,5.6,6.48,6.48,0,0,0,.65,4.42,111,111,0,0,0,8,9.71,4.58,4.58,0,0,0,5.52,1.06,87.18,87.18,0,0,0,17.83-10.29A6.38,6.38,0,0,0,422,348.91Z"/><path d="M528.74,160.67c.62,1.43,1.52,2.72,1.73,4.12.92,6.17,1.6,12.37,2.43,18.55,2.12,15.89,4.3,31.78,6.39,47.68,3,22.31,6,44.6,8.72,66.93a463.29,463.29,0,0,1,3.9,52c.16,15.16.3,30.32-1.42,45.42-.52,4.64-1.37,9.24-2.17,13.85-.27,1.55-.89,3.06-2.8,3.28-1.55.18-2.86-1.29-3-3.7-.5-8.68-.67-17.38-1.39-26-1.47-17.76-2.91-35.53-4.93-53.23C532,292.3,525.57,255.42,520,218.41a81.14,81.14,0,0,1-1.24-8.59c-.22-4.43-.69-9,.07-13.31,1.78-10.07,4.14-20,6.46-30C525.77,164.47,525.9,162,528.74,160.67Z"/><path d="M225.83,275.47c.37-2.61,2.22-3,3.82-3.77q15.79-7.21,31.58-14.47c3.44-1.58,6.86-3.22,10.25-4.89a32.54,32.54,0,0,0,3.06-2,10.7,10.7,0,0,0-5.13-2.42c-3.72-.73-7.45-1.45-11.2-1.82-12.18-1.22-24.36-2.74-36.65-1.39a5.71,5.71,0,0,1-1.68-.47,13.26,13.26,0,0,1,1.23-3.48c4.71-6.49,9.63-12.83,14.28-19.35,2.15-3,4.91-4.23,8.48-4.49a110.5,110.5,0,0,1,29.94,1.75c5.23,1.07,10.4,2.42,15.59,3.72a31,31,0,0,1,5.07,1.66c4.4,2,6.38,5.54,5.38,10.3a22.36,22.36,0,0,1-2.61,6.81A83.36,83.36,0,0,1,275,265.77a36.52,36.52,0,0,1-9.59,4.58c-8.66,3-17.72,4.32-26.8,5.38-3.09.37-6.2.72-9.32.81C228.12,276.57,226.94,275.84,225.83,275.47Z"/><path d="M132.38,176c-3.13-.63-4.32-2.87-5.24-5.11-1.78-4.32-3.46-8.69-4.88-13.13a77,77,0,0,0-6.83-15.92,49.37,49.37,0,0,0-11.06-13.46c-1.46.57-2.85,1.56-4.23,1.54a11.63,11.63,0,0,1-5-1.46c-3.92-2.09-7.8-4.3-11.52-6.72a9.6,9.6,0,0,1-4.75-9c.19-3.1-.07-6.27.44-9.32.88-5.32,4.21-7.56,9.59-6.8a19.85,19.85,0,0,1,10.78,5,85.77,85.77,0,0,1,10.16,10.55,102.91,102.91,0,0,1,15,25.94c1.12,2.9,2.5,5.71,3.83,8.53a16,16,0,0,0,1.72,2.33c1.29-2,1-3.79,1.28-5.42s.59-3.52.9-5.27c1.84-10.3,3.52-20.63,5.61-30.88A104.74,104.74,0,0,1,142.25,94a23.79,23.79,0,0,1,2.81-5.29c3.88-5.77,8.47-7.17,15.06-4.77,5,1.82,8.76,5.24,11.89,9.39A6.57,6.57,0,0,1,173.26,97a31.92,31.92,0,0,1-3,14.22c-.25.52-.95.81-1.71,1.42-1-1-1.94-1.81-2.84-2.71-1.89-1.9-3.59-4-5.64-5.68-5-4.08-8.77-3.39-12,2.25a30.39,30.39,0,0,0-3.28,8c-1.56,6.71-2.94,13.48-4,20.28-1.5,9.45-2.57,19-4,28.43a81,81,0,0,1-2.56,10.35A8.63,8.63,0,0,1,132.38,176Z"/><path d="M120.34,444.15l29.38,17c3.18-3.36,4.51-7.44,6.64-11s3.57-7.15,5.92-10.33c4.93,1.86,23.07,12.33,30.07,17.32-1.1,4.24-9.88,20.19-14.58,26.34-9.82-4.87-18.84-11.37-29-16.56-5.16,6.65-8.16,14.39-13,21.42-5.72-2.13-10.55-5.67-15.66-8.65s-10.16-5.49-14.67-9C107.35,465.69,115.83,450.52,120.34,444.15Z"/><path d="M333,192.89a75.08,75.08,0,0,1-8.13-1.76c-2.25-.7-2.52-3.33-.64-4.76a22.35,22.35,0,0,1,4.56-2.76c3.47-1.5,7.05-2.77,10.56-4.17,12.83-5.13,25.68-10.2,38.45-15.46a33.34,33.34,0,0,0,6.78-4.19c7.72-5.68,15.36-11.49,23.06-17.2a35.59,35.59,0,0,1,4.53-2.8c1.13-.59,3.06.39,3.09,1.66a18.32,18.32,0,0,1-.51,5.88,39.54,39.54,0,0,1-7.12,12.78,77.05,77.05,0,0,1-21.82,18.49c-12.33,7.2-25.8,10.9-39.83,12.82C342,192,338,192.33,333,192.89Z"/><path d="M402.67,266.05c-9.55-4.1-19.62-10.87-25-16.73,1.66-5.16,9.25-18.49,13.37-23.45,4.43,1.86,20.54,11.87,25.24,15.68C414.49,247.14,407,260.76,402.67,266.05Z"/><path d="M218.82,106.64c1.38,2.69,0,4.78-.68,6.74-4.48,12.15-7.72,24.67-11.11,37.14A51.73,51.73,0,0,0,205,168.38a43,43,0,0,0,1.6,7.81,10.77,10.77,0,0,0,1.92,3.49c3.35,4.32,8.42,4.56,12.06.57,1.2-1.32,2.15-2.85,3.21-4.28.78-1.05,1.54-2.11,2.7-3.71.65,1.15,1.37,1.83,1.33,2.45a33,33,0,0,1-7.5,18.92,11.45,11.45,0,0,1-3.07,2.55,10.38,10.38,0,0,1-14.93-3.92,36.44,36.44,0,0,1-4.62-21.9,150.82,150.82,0,0,1,6.53-30.7c2.68-8.49,6-16.8,9.13-25.13a41,41,0,0,1,3.43-6.48C217.13,107.43,218.05,107.14,218.82,106.64Z"/><path d="M389.32,411.59c1.39,2.57.45,4.67-.1,6.77-3.2,12.06-6.45,24.1-9.58,36.17a57.77,57.77,0,0,0-1.87,18.56,21.7,21.7,0,0,0,3.37,10.72,7.84,7.84,0,0,0,5.32,3.72c2.84.48,5.37-.06,7.19-2.43,1.36-1.77,2.52-3.68,3.81-5.5.58-.82,1.26-1.59,2.39-3,.56,1.5,1.12,2.25,1.07,3a34.57,34.57,0,0,1-6,17.49,11.3,11.3,0,0,1-8.82,5.37c-4.39.32-7.83-1.11-10.11-5.06a36.84,36.84,0,0,1-5.21-17.08A89.07,89.07,0,0,1,372.56,461a227.31,227.31,0,0,1,12.14-42.34,40.19,40.19,0,0,1,2.65-5.39C387.73,412.61,388.57,412.21,389.32,411.59Z"/></g></svg>