<svg xmlns="http://www.w3.org/2000/svg" viewBox="0 0 601 600"><title>Imen</title><g id="Layer_9" data-name="Layer 9"><path d="M358,175.55c.29-.57,3.75-5.85,3-7a121,121,0,0,1-20.1-53.9c0,.08-.09.16-.14.24-.79,1.11-4.89,6-4.92,6-3.57,5.22-6.89,10.53-10.12,15.88s-6.38,10.71-9.27,16.17c-.94,1.81-3.06,4.87-3,7q7,166,14.07,331.94,1.24,29,2.46,58.09c0-.36,5.05-6.26,5.05-6.26,3.58-5.22,6.9-10.53,10.14-15.87s6.38-10.72,9.25-16.19c1-1.8,3.08-4.86,3-7q-6.49-153-13-306c1.46-2.32,2.9-4.64,4.3-7C352,186.39,355.14,181,358,175.55ZM344.66,480.48a10.67,10.67,0,0,0-9.31,5c1.6,1.64,3.68,2.75,6,2.2,3.47-.82,5.87-3.83,9.31-4.72.3,0,1.27,7.09,1.32,7.48.22,1.77.42,3.56.55,5.34,0,.19.3,2,0,2.24a95.23,95.23,0,0,0-14.44,18.51s-.55-2.23-.55-2.18c-.31-1.76-.54-3.53-.77-5.31s-.42-3.55-.56-5.34c0-.39-.28-1.78,0-2.24s.48-.79.73-1.17a15,15,0,0,1-3.3-6.64,90.68,90.68,0,0,1-1.51-10,59.32,59.32,0,0,1-.51-6.79,12.2,12.2,0,0,1,1.33-5.71,10.9,10.9,0,0,1,9.82-5.77c.24,0,.54,2.17.54,2.18.3,1.76.55,3.54.77,5.31C344.14,473.29,344.92,480.49,344.66,480.48Z"/><path d="M457.23,323.89l-3.62-2.41c-.78-.52-11.39,21.4-11.95,22.6-.71,1.53-11.35,22.53-9.63,23.67l.16.11c-1.44,1.56-2.92,3.09-4.42,4.59-35.17,33.93-83.66,45.81-131.16,48.91-22.78,1.49-46.68,2.35-68.85-4-22-6.35-37.31-21.81-46-42.72-6.9-16.71-9.82-35-12.88-52.75-3.67-21.18-6.45-42.51-8.72-63.88-4.5-42.26-6.76-84.72-9-127.15a7.69,7.69,0,0,0-2.06,2.89,1.28,1.28,0,0,1-.11.2c.39-1.17.75-2.35,1.05-3.54a9.37,9.37,0,0,0-1.08-7,7.48,7.48,0,0,0-2,2.89,394,394,0,0,0-19.05,39.16c-3.4,8-6.7,16.08-8.78,24.57a82.72,82.72,0,0,0-.42,36.58,7.47,7.47,0,0,0,2.06-2.88c2.53-4.41,4.77-9,7-13.58q1.68-3.49,3.31-7c2.61,46.43,5.77,92.85,12.25,138.93,3.47,24.66,6.84,50.28,15.08,73.89,7.46,21.37,21.41,38.1,42.91,46.08,21.32,7.92,45.3,7.08,67.64,6,25.56-1.22,51.14-4.75,75.52-12.75A162.42,162.42,0,0,0,402.67,422a129.73,129.73,0,0,0,16.7-18.35,76.17,76.17,0,0,0-2.94,17.94c-.67,19.18,13.73,41.33,34.44,41.44,8.73,0,16.27-5,21.43-11.73,6.35-8.25,10.49-18.6,14.84-27.93,4.59-9.84,9.57-19.91,12.29-30.47,5.19-20.16-4.88-38.16-19.28-51.64-6.66-6.24-14.15-11.53-21.73-16.61m-2.91,86.5c-12.38-8.5-18.15-23.85-17.37-38.41l.34-.69c16.41,11.22,33.72,25,39,43.93C470.16,417.59,462.3,415.85,455.51,411.19Z"/><path d="M236.77,158.89v0Z"/><path d="M222.63,185.64v0Z"/><path d="M260.4,178.15c-.24-.36-3.07,6.74-2.86,6.19-2,5.15-3.91,10.41-5.74,15.69s-3.61,10.59-5.24,16c0,.09-2.18,6.2-1.69,6.93,10,14.77,13.76,34.57,12.76,54.18q-.27,3.71-.73,7.36c-1.8,2.94-3.72,5.74-5.71,8.43-23.33,30.51-57,45.05-88.71,49.54-33.4,4.72-67.68-2.86-98.29-21.38a171.91,171.91,0,0,1-20.43-14.65c-.65-.53-8.19,20.71-8.59,21.88-.5,1.43-8.12,21.94-6.94,22.92,28.71,23.76,61.94,36.33,95.59,37.31a140.1,140.1,0,0,0,94.89-32.88,116.16,116.16,0,0,0,24.66-29.38,144.44,144.44,0,0,0,10-21.34c5.95-15.27,11.68-31.14,15.85-47.47C276,231,275,199.73,260.4,178.15Z"/><path d="M95.92,222c-2.38,8-8,21.36-9.47,29.81-1,6.11-2.55,12.14-1.59,18.44.81,5.25,3.11,8.25,7.17,8.92a11.21,11.21,0,0,0,11.13-5.68,13.19,13.19,0,0,1,1.94-3.18c.86,9.65,1.17,19.33-5.31,27.4-6.15,7.66-16.58,5.95-20.42-3.14-3-7.19-3.33-14.73-1.86-22.37,2.92-15.27,8.52-29.63,14.88-43.73.21-.47,1.14-2.56,1.45-3.08Z"/><path d="M288.48,111.41c-5.07.07-9.73,1.41-14.57,1.38a25.82,25.82,0,0,1-7.15-.94c-6.2-1.82-6.76-2.89-4.11-8.59,2.1-4.53,3.41-9.86,6.68-13.31,3.55-3.76,8.75.44,13.34.36A52.89,52.89,0,0,0,308.28,83c-6.62,34.68-35.74,58.4-71,58.47C259.1,138.06,274.92,126.63,288.48,111.41Z"/><path d="M200.27,110.15a48.69,48.69,0,0,0,23.5,21.45c2.34,1,2.46,2.4,1.32,4.52a275.1,275.1,0,0,0-14.91,31.13c-.83,2.16-2.09,2.7-4,1.77-9.06-4.47-17.59-9.65-22.49-19-.94-1.79-2.17-3.71-1-6C188.45,133,194.16,122,200.27,110.15Z"/><path d="M399.54,316.44c9.62-19.16,10.87-38.6,4.37-58.64-1.12-3.44-1.91-10.49-7-2.13-1.15,1.9-2.17.91-3.28,0-8.05-6.84-8.06-24.46-.16-31.53,3.09-2.76,5.18-.6,7.18,1.13,10.17,8.81,13,20.89,14.32,33.49.46,4.44.07,9,.75,13.5C420.24,261.9,421.17,251,422,240c.68-8.74,1.31-17.49,3.2-26.07a35.15,35.15,0,0,1,5.2-12c2.49-3.73,6-4.81,10.19-4.47,4.39.35,6.41,3.34,7.67,7,2.71,7.81,1.54,15.82,1.53,24-1-.29-1.72-.3-1.79-.52-2-6.08-5.42-10.66-12.48-9.18-6.84,1.43-6.46,7.41-6.58,12.77-.6,27.77-7,53.85-22.56,77.25a41,41,0,0,1-3.39,4.38C402,314.31,400.71,315.34,399.54,316.44Z"/><path d="M272.25,375.42c3.12-2.87,6.33-5.65,9.32-8.65,3.68-3.7,7.29-7.87,5-13.45-2.14-5.26-7.48-3.69-12.78-3.62,3.65-6.59,7.77-11.38,14.06-13.93,6.7-2.72,12.7,1.13,13.15,8.33A18.21,18.21,0,0,1,297.43,356,56.51,56.51,0,0,1,272.25,375.42Z"/><path d="M210.65,299.08c2.57-2.52,7.48-7.12,10-9.73s5-5.25,3.53-9c-1.6-4.17-5.53-3.05-9.08-2.94a19.17,19.17,0,0,1,6.05-7.59c3.39-2.7,7.31-4.18,11-1.08s2.69,7.43.8,11.11c-2.92,5.68-7.82,9.67-12.85,13.44-2.07,1.54-4.23,3-6.35,4.46A10.24,10.24,0,0,1,210.65,299.08Z"/><path d="M540.07,256c-26.16,9.28-56.66,5.36-79,24.19-6.13,5.16-10.37,12.35-14.52,19.07-7.18,11.63-15.15,23.94-19.7,36.94-3.69,10.55-1.16,23.15,7.44,30.49.56.48,12.19-18.76,12.8-19.81.81-1.42,12.29-19.67,10.75-21a25,25,0,0,1-8-13.07c20.64-10.41,45.17-8.38,66.73-16,1.46-.52,3.58-4.65,4.17-5.56,3-4.66,5.85-9.44,8.63-14.25s5.49-9.65,8-14.59C537.13,262.76,540.16,255.91,540.07,256Z"/><path d="M574.76,312a30.15,30.15,0,0,0-23-22.6c-.85-.19-4.18,5.58-4.17,5.56-3,4.66-5.85,9.44-8.62,14.25-.11.18-.51.93-1.09,2a46.8,46.8,0,0,0-11.65-7.07c-1.67-.7-12,18.5-12.8,19.81-.61,1.06-11.63,20.62-10.75,21a46.15,46.15,0,0,1,20.85,17.4c.23.35,4.5-6.07,4.17-5.56,3-4.66,5.85-9.44,8.63-14.25,1.29-2.25,2.58-4.51,3.84-6.79a30.18,30.18,0,0,1,11,17c0,.15,4.46-6,4.17-5.55,3-4.67,5.85-9.45,8.63-14.26s5.49-9.65,8-14.59C572.47,317.53,575.1,313.41,574.76,312Z"/></g></svg>