<svg xmlns="http://www.w3.org/2000/svg" viewBox="0 0 600 600"><title>Imen2</title><g id="Layer_6" data-name="Layer 6"><path d="M521.4,211.81a188.3,188.3,0,0,0-19.95-54c-9.33-16.67-21.63-32.45-38.08-42.55-16.12-9.9-37.25-12.75-54.27-3.48-19.28,10.5-25.47,33.11-30.63,52.76-2.76,10.48-5.65,21.16-6.13,32a81.78,81.78,0,0,0,2.58,22.67c3.76,15.43,11.57,29.67,20.27,42.83.11.17,2.27-5.72,2.12-5.27,1.39-4.31,2.62-8.69,3.79-13.07s2.3-8.78,3.25-13.22c.13-.57,1.4-4.72.81-5.62C394,208,384.3,189.05,382.61,168.5c-.09-1.18-.15-2.35-.18-3.53A49.85,49.85,0,0,1,395.8,151c15.83-11.08,37.06-9.22,53.59-.84,17.23,8.73,29.95,24.59,39.77,40.8,20.23,33.38,27.84,73.15,26.91,111.81a268.51,268.51,0,0,1-2.41,29.3c-.65,4.89-1.51,9.74-2.43,14.58-.08.41-.13.71-.17.94s-.13.59-.24,1.15c-.26,1.26-.53,2.51-.81,3.77,0,.2-.08.36-.11.51s-.1.42-.16.7c-.12.51-.24,1-.37,1.53l-.06.25,0,.12v.05c-.08.26-.2.7-.33,1.13-.18.6-.35,1.19-.53,1.78-.14.43-.66,2.13-.75,2.4-.38,1.23-.78,2.45-1.18,3.68-1,3.17-1.25,3.76-2.35,6.91-3.49,10-7.31,19.79-11.36,29.53-5.29,12.73-11,25.3-16.81,37.78-3.28,7-4.89,15.23-6.78,22.7-.94,3.71-1.87,7.45-2.55,11.22.18-1-.88,4.43.22,2.07,9.22-19.72,17.95-39.66,25.64-60a644.86,644.86,0,0,0,23.88-79.46C526,294.76,529.9,253,521.4,211.81Z"/><path d="M540.79,408.47c-5.53-.77-11,1.37-16.44-.82a9.47,9.47,0,0,1-4.33-4c.88-1.75,1.75-3.51,2.61-5.26,2.29-4.65,7.65-14.75,14-8.77.25.23,2.27-5.74,2.12-5.27,1.39-4.32,2.62-8.69,3.79-13.07s2.3-8.79,3.25-13.22c0-.2,1.42-5.05.81-5.62-8.71-8.13-16,12.21-18.46,17.19-2.53,5.14-5.13,10.25-7.56,15.44-1.23,2.63-2.34,5.35-3.36,8.13a13.56,13.56,0,0,0-.53,1.49A227.45,227.45,0,0,0,509.35,423c-1.12,5.33-2.22,10.5-.34,15.76,1.56,4.36,5.33,6.62,9.75,7.07H519a58.09,58.09,0,0,0-5.92,12.49c-2.84,8.3-5.13,16.81-7.15,25.35a59.65,59.65,0,0,0-1.73,8.69c-.22,2.59,1.53-2.61,1.22-1.68a41.69,41.69,0,0,1,9.88-15.47c5-5.15,11.44-7.8,17.17-11.93a16.32,16.32,0,0,0,5.56-7.16c4.1-10.17,6.72-21.24,9-31.92C548.49,417.53,549.48,409.69,540.79,408.47Z"/><path d="M453.32,350a33.12,33.12,0,0,0-15.07-17.24c-14.64-8.38-33.08-5.75-46.22,4.09-6.5,4.87-11.69,11.06-16.43,17.67a66.5,66.5,0,0,1-3-16.29v-.13a64.53,64.53,0,0,1,52.5-28.43c.69,0,2.14-5.33,2.12-5.27,1.39-4.32,2.62-8.69,3.79-13.07.26-1,4.41-18.85,4.06-18.84-17.12.11-33.35,7.48-45.34,19.58a63.07,63.07,0,0,0-13.61,20.85,209,209,0,0,0-7.67,24.59c-2.27,8.63-4.51,17.31-5.6,26.18a59.07,59.07,0,0,0-.36,10.06c-.81,1.14-1.63,2.28-2.47,3.39-21.75,28.84-59,44.2-94.76,39.15s-66.5-30.24-79.7-63.55c-7.22-18.2-8.91-38-7.87-57.42a228.17,228.17,0,0,1,3.6-28.9c.19-1,.38-2,.58-3-.07.41.49-2.36.48-2.3.16-.77.33-1.53.5-2.28.12-.57.41-1.84.48-2.15s.27-1.12.41-1.72.33-1.31.5-2c.24-.93.73-2.72.85-3.15,6.56-23.67,13.68-47.16,19.15-71.12,5.17-22.72,9.29-45.86,8.05-69.25A139.17,139.17,0,0,0,208.05,82c0,.17-2.16,5.4-2.12,5.26-1.39,4.32-2.62,8.7-3.79,13.08s-2.3,8.78-3.25,13.22c-.29,1.34-1.2,4.1-.81,5.62,5.44,20.91,5.34,42.71,2.08,64-.8,5.22-1.61,9.43-2.55,13.82-.05.23-.41,1.84-.53,2.41l-.66,2.81,0,.23c0,.13-.07.28-.12.45l-.78,3c-.2.75-.4,1.51-.61,2.27-.06.25-.18.7-.31,1.16q-.93,3.34-1.88,6.69c-1.56,5.5-3.15,11-4.73,16.48-7,24.35-13.62,49-17.59,74-3.09,19.52-4.24,39.34-1.24,59a107.48,107.48,0,0,0,21.86,51,103.76,103.76,0,0,0,42,30.9c33.73,13.66,72.77,6.49,100.83-16.2,13.54-10.95,22-25.7,32-39.6,7.64,23.17,27.5,42.47,53.58,39.27a30,30,0,0,0,19.8-11.11,38.56,38.56,0,0,0,5.41-10.2c4.26-11,7-22.84,9.47-34.33C455.94,366.66,456.33,358.31,453.32,350ZM429.4,393.69c-14.26,2.14-29.23-4.63-39.16-14.58a56.15,56.15,0,0,1-5.66-6.65,43,43,0,0,1,23.15-7.56c15.64-.4,30.56,8.34,35.92,23.14A32.58,32.58,0,0,1,429.4,393.69Z"/><path d="M245.32,250.66C235,219,210.26,190.22,176.85,182.75c-35.73-8-71.8,13-89.78,43.33a111.7,111.7,0,0,0-9.22,20.47A340.63,340.63,0,0,0,66,290.05a139.42,139.42,0,0,0-1.75,48c4.45,31.17,20.24,59.83,40.1,83.81.18.21,2.27-5.75,2.12-5.27,1.39-4.32,2.62-8.69,3.8-13.07s2.29-8.79,3.25-13.22c.08-.39,1.41-4.89.8-5.62C89.38,354.58,71.44,317.26,73,277.47c.09-2.3.26-4.6.49-6.9a94.2,94.2,0,0,1,12.95-20.63,90,90,0,0,1,44.09-28.68c22.55-6.49,46.07-1.71,65.2,11.51,18.91,13.08,32.54,33.37,39.6,55.07,0-.08,2.19-5.5,2.12-5.27,1.39-4.32,2.62-8.69,3.79-13.07s2.3-8.79,3.25-13.22C244.77,255.1,245.77,252.06,245.32,250.66Z"/><path d="M148.07,267.44a35.36,35.36,0,0,1-16.15-20.54c0,.12-2.18,5.47-2.11,5.27-1.39,4.32-2.62,8.69-3.8,13.08s-2.29,8.78-3.25,13.21c-.27,1.25-1.23,4.18-.8,5.63a35.3,35.3,0,0,0,16.15,20.53c.31.18,5.65-17.37,5.91-18.34,1.18-4.38,2.3-8.78,3.25-13.22C147.26,273.13,148.67,267.79,148.07,267.44Z"/><path d="M353.83,474.33,326,454.49c-.32-.23-2.26,5.72-2.11,5.27-1.39,4.32-2.62,8.69-3.8,13.08-.39,1.48-.78,3-1.16,4.46a71,71,0,0,0-12.62-11.47c-.33-.23-2.26,5.72-2.12,5.27-1.39,4.32-2.62,8.69-3.79,13.08s-2.3,8.78-3.25,13.21c0,0-1.41,5.2-.81,5.63a70.62,70.62,0,0,1,19.6,21c.09.15,2.26-5.7,2.12-5.27,1.39-4.32,2.62-8.69,3.79-13.07.74-2.77,1.46-5.55,2.13-8.33l19.88,14.17c.33.24,2.26-5.71,2.12-5.26,1.39-4.32,2.62-8.7,3.79-13.08s2.3-8.78,3.25-13.22C353,479.92,354.43,474.76,353.83,474.33Z"/></g></svg>