<svg xmlns="http://www.w3.org/2000/svg" viewBox="0 0 601 600"><title>Montara</title><g id="Layer_4" data-name="Layer 4"><path d="M171.56,365.87a3.35,3.35,0,0,1,0-2.66c.51-1.3,1-2.62,1.62-3.87a79,79,0,0,1,7-11.43c.42-.56.89-1.08,1.31-1.65a5.62,5.62,0,0,1,4-2.24q6.63-1,13.21-2.24c23.21-4.31,46-10.12,68-18.9a10.62,10.62,0,0,1,1.21-.5,2.58,2.58,0,0,0,1.78-1.76c5.85-14.74,12.54-29.11,19-43.57,4.13-9.18,8.32-18.34,12.48-27.51a75.23,75.23,0,0,1,4.4-8.38c.87.31.82,1,.89,1.53.36,3,.75,6.08,1.05,9.13.5,5.15,1,10.29,1.4,15.45a135.29,135.29,0,0,1-.14,22.05,94.88,94.88,0,0,1-3.17,17.55,59.12,59.12,0,0,1-7.21,16.56,4.44,4.44,0,0,0-.3.85,4.26,4.26,0,0,0,1,.06c17.67-3.78,35.08-8.42,51.74-15.54a136.09,136.09,0,0,0,20.9-11,48.65,48.65,0,0,1,8.46-4.2c1.16-.47,1.91-.08,2.08,1.17a16.1,16.1,0,0,1,.08,3.4,53.16,53.16,0,0,0-.17,9.44,31.09,31.09,0,0,0,.74,4.4,16,16,0,0,0,5.2,8.34,22.91,22.91,0,0,0,11.32,5.16,34.28,34.28,0,0,0,12.53-.57,39.5,39.5,0,0,0,18.18-8.37,16.2,16.2,0,0,0,3.29-3.71q5.54-8.62,11.24-17.14a36.48,36.48,0,0,1,3.46-4.29,6,6,0,0,1,2.2-1.35,1.27,1.27,0,0,1,1.74,1.52,17.32,17.32,0,0,1-.75,2.24,14.83,14.83,0,0,0,.92,12.7c4.6,8.55,12.44,12.74,22.45,11.92A31.92,31.92,0,0,0,496,308.22a89.6,89.6,0,0,0,6.64-8.14,167.68,167.68,0,0,0,9.55-15.1c1.51-2.56,3.22-5,4.86-7.49a14.24,14.24,0,0,1,1.09-1.24l2.57,1.1c.32-.45.68-.9,1-1.4a58.78,58.78,0,0,1,6.22-8.78A32.13,32.13,0,0,1,535,261a21.36,21.36,0,0,1,9.09-3.19,15.86,15.86,0,0,1,10.08,2.27,22.91,22.91,0,0,1,6.27,5.54,55.81,55.81,0,0,1,10.59,21.24,58.19,58.19,0,0,1,1.79,13.78,11.79,11.79,0,0,1-1,5.11,76.46,76.46,0,0,1-8.5,14.47,25.37,25.37,0,0,1-2.49,2.7,5.66,5.66,0,0,1-5,1.69,44.29,44.29,0,0,1-5.39-1.07,138.93,138.93,0,0,1-24.3-9.88,102.84,102.84,0,0,1-12.83-7.71c-.56-.39-1.17-.7-1.9-1.14-.49,1-.92,1.85-1.33,2.7a100,100,0,0,1-9.74,16.2,57.88,57.88,0,0,1-11.18,11.42,37.82,37.82,0,0,1-17.71,7.52,26.06,26.06,0,0,1-13.95-1.44,21.1,21.1,0,0,1-12.14-12.07,58.53,58.53,0,0,1-2.55-8.82c-.1-.42-.19-.84-.27-1.2-.67-.32-.84.18-1.06.51-1.95,2.91-3.79,5.9-5.84,8.74A63.93,63.93,0,0,1,424,340.81a41.37,41.37,0,0,1-17,8.57,32.86,32.86,0,0,1-13.82.41,19.74,19.74,0,0,1-12.61-8.34,32.87,32.87,0,0,1-5.09-11.74c-.73-3.15-1.14-6.37-1.68-9.56-.09-.49-.16-1-.28-1.71-2.57,1.28-4.57,3-6.79,4.28s-4.65,2.82-7,4.15-4.62,2.5-7,3.68-4.73,2.29-7.12,3.38-4.81,2.13-7.23,3.14-5,2.05-7.56,3-4.9,1.82-7.61,2.83c.75.59,1.26,1,1.8,1.42a43.73,43.73,0,0,1,6.57,5.65,34.67,34.67,0,0,1,9.45,20.66,51.53,51.53,0,0,1-2.5,22.8,28.36,28.36,0,0,1-6.66,10.89,17.57,17.57,0,0,1-10.11,5.19,27.37,27.37,0,0,1-8.13-.17,40.14,40.14,0,0,1-13.32-4.66c-16.5-9.19-26.86-22.94-30.69-41.49-.49-2.39-.77-4.84-1.14-7.26-.14-.95-.26-1.9-.38-2.82-1.08-.68-2.15-.35-3.15-.17-2.9.51-3.56-.18-3.6-3.16v-1.39a1,1,0,0,0-1.34-.22c-8.54,3.43-17.28,6.28-26.11,8.84a5,5,0,0,0-.86.47,7,7,0,0,0,1,.54c3.92,1.24,7.86,2.41,11.76,3.72a39.29,39.29,0,0,1,9,4.29A40.28,40.28,0,0,1,260,370a14.46,14.46,0,0,1,4.69,14c-.36,2-.8,3.95-1.34,5.89a93.13,93.13,0,0,1-6.65,17.11,37.3,37.3,0,0,1-10.42,12.67,247.77,247.77,0,0,1-40.53,25.76,272.61,272.61,0,0,1-53,20.69A165,165,0,0,1,127,471a107.82,107.82,0,0,1-23.62.05,69.16,69.16,0,0,1-23.42-6.52c-17.76-9-28.83-23.23-33.32-42.58a72.25,72.25,0,0,1-1.69-15.38,125.36,125.36,0,0,1,8.75-47.25c1.54-4,3.27-7.93,5.1-11.81a48.87,48.87,0,0,1,3.53-5.83,5.29,5.29,0,0,1,2.57-2.18c1.13-.41,2,.11,1.92,1.31a14.12,14.12,0,0,1-.5,3.1c-.85,2.76-1.69,5.53-2.72,8.22A102.58,102.58,0,0,0,57.33,377c-1,8.92-1.1,17.83.82,26.68a47.88,47.88,0,0,0,20.78,30.76,66.25,66.25,0,0,0,23.9,9.81c9.27,1.91,18.63,2,28,1.32,23.73-1.69,46-8.62,67.58-18.35a369.85,369.85,0,0,0,38.73-20.6c3.07-1.85,6-3.9,8.94-6a26.41,26.41,0,0,0,4-3.74,2.49,2.49,0,0,0,.09-3.78A20.78,20.78,0,0,0,247,390a43.73,43.73,0,0,0-10-5.75,82.5,82.5,0,0,0-18.15-5.17c-11-2-22-4.1-32.78-7.41-3.42-1.06-6.77-2.38-10.11-3.68C174.45,367.43,173,366.59,171.56,365.87Zm113.38-11.48c0,.35-.06.55,0,.68.37.79.73,1.59,1.17,2.35,6.38,11.11,15.76,18.79,27.44,23.81a35.12,35.12,0,0,0,8.56,2.42c1.55.24,3.14.27,4.71.36a8.54,8.54,0,0,0,1.28-.15,5.09,5.09,0,0,0-.42-2.9,14.12,14.12,0,0,0-3-4.88,45.64,45.64,0,0,0-5-4.68c-2.41-1.87-5-3.56-7.55-5.21a102.4,102.4,0,0,0-25.49-11.53A11.93,11.93,0,0,0,284.94,354.39ZM278.27,318a2.4,2.4,0,0,0,.72-.05,56.24,56.24,0,0,0,12.1-6.21,38,38,0,0,0,4.82-4,13.82,13.82,0,0,0,4.35-10.58c-.14-5.78-.73-11.51-1.4-17.24-.07-.61-.14-1.22-.25-1.82s.11-1.23-.48-1.66c-1.57,1.55-5.8,9.27-11.27,20.56C281.69,307.62,278.57,315.23,278.27,318Zm250.82-31.54a7.36,7.36,0,0,0,3,2.43,74.05,74.05,0,0,0,12.41,5.61,44.13,44.13,0,0,0,4.79,1.33,9.36,9.36,0,0,0,4.48.18,8.28,8.28,0,0,0-.18-1.58,12.76,12.76,0,0,0-3.26-5.32,23.08,23.08,0,0,0-10.61-6,13.41,13.41,0,0,0-7.75.48A3.74,3.74,0,0,0,529.09,286.43Z"/><path d="M346.76,216.05l10.85,6c3.52,1.95,7,4,10.7,5.9,4.14-6.77,7.92-13.56,12-20.3a80.11,80.11,0,0,1,7.48,4c2.39,1.28,4.75,2.63,7.12,3.95s4.89,2.66,7.25,4.07c-1,2.26-13.27,23.31-14.88,25.45-2.41-1.09-4.69-2.52-7.05-3.8s-4.74-2.64-7.11-3.95l-7.25-4c-.46.65-.89,1.17-1.23,1.74q-4.8,8.15-9.57,16.31c-.44.74-.91,1.46-1.46,2.33L331.82,241.6a61.55,61.55,0,0,1,3.61-6.47c1.21-2.14,2.47-4.24,3.71-6.35s2.45-4.25,3.72-6.35S345.22,218.16,346.76,216.05Z"/><path d="M418.22,240.87c4-7.28,8-14.45,12-21.6,2.06.78,22.82,12.8,25.28,14.6a1.22,1.22,0,0,1,.1.24.58.58,0,0,1-.06.26q-5.7,10.33-11.42,20.66a3.35,3.35,0,0,1-.49.57C441.71,254.9,421,242.9,418.22,240.87Z"/><path d="M539.86,216.73a5,5,0,0,1-.63,2.54,12.07,12.07,0,0,1-2.47,4.07c-1.52-.46-3-1.12-4.61-1.62-.14.2-.25.34-.34.49a33.28,33.28,0,0,1-4,5.39,81.79,81.79,0,0,1-8.56,8.19,138.21,138.21,0,0,1-16.72,11.92c-8,5-16.28,9.41-24.7,13.62-2.91,1.45-5.85,2.87-8.77,4.3l-.7.32c-.36.16-.63,0-.87-.34a2.37,2.37,0,0,1,.36-.49c.64-.53,1.28-1.09,2-1.56,10.11-6.82,20.19-13.69,30.58-20.07A207.81,207.81,0,0,0,518,231.59a80.11,80.11,0,0,0,8.73-7.52c.79-.81,1.54-1.67,2.29-2.52a3.67,3.67,0,0,0,.42-.61c-.18-.33-.5-.36-.75-.48-1.35-.65-2.73-1.25-4-2a21.78,21.78,0,0,1-2.76-1.8,11.87,11.87,0,0,1-1.72-1.68,4.59,4.59,0,0,1-1.06-3.8,13.89,13.89,0,0,1,.74-3,18.83,18.83,0,0,1,1.54-3.16,33.18,33.18,0,0,1,5.13-6.55,14,14,0,0,1,3.14-2.39,6.21,6.21,0,0,1,3.16-.79,4,4,0,0,1,3.32,1.84,6.53,6.53,0,0,1,.93,2.09,17.3,17.3,0,0,1,.33,7,41.45,41.45,0,0,1-1.9,7.09c-.12.34-.24.69-.37,1.08.2.12.37.25.56.34l3.29,1.51C539.25,216.42,539.54,216.57,539.86,216.73Zm-6.7-3.13a14.4,14.4,0,0,0,.26-5.53,9.56,9.56,0,0,0-1-3.13A6.78,6.78,0,0,0,531,203a1.69,1.69,0,0,0-1.42-.43,3.73,3.73,0,0,0-1.53.57A14.32,14.32,0,0,0,524,207c-.73,1-.63,1.53.34,2.33a7.3,7.3,0,0,0,.72.52c.46.29.93.58,1.41.83a63.56,63.56,0,0,0,6.32,2.8A4,4,0,0,0,533.16,213.6Z"/><path d="M263.23,213.61l-1.12-.69a10.32,10.32,0,0,1-2.52-2,6.7,6.7,0,0,1-1.76-5.33,54.37,54.37,0,0,1,1.35-6.93c.26-1.17.49-2.34.69-3.52a4.1,4.1,0,0,0,0-1.26,15.18,15.18,0,0,1-.28-3.92,14.11,14.11,0,0,1,.46-2.5,3.67,3.67,0,0,1,4.3-2.84,9.94,9.94,0,0,1,3.13.79c1.16.53,2.29,1.12,3.43,1.69.21.1.4.23.6.35a73.85,73.85,0,0,1,11.29,9,23.16,23.16,0,0,1,4,5.12,12.85,12.85,0,0,1,1.69,4.78,23.18,23.18,0,0,1,.1,3,18.14,18.14,0,0,1-.66,4.45,8.5,8.5,0,0,1-1.16,2.52,4.66,4.66,0,0,1-3.43,2.12,14.46,14.46,0,0,1-2.08.06,40,40,0,0,1-10.85-2.31l-1.12-.37c-.3.18-.6.36-.88.55L240.3,236a4.91,4.91,0,0,0-1.37,1.24.71.71,0,0,0,.22,1.09,3.83,3.83,0,0,0,1.17.47,17.8,17.8,0,0,0,2.18.28A37.46,37.46,0,0,0,255,237.74a75.3,75.3,0,0,0,13.86-5.18,43,43,0,0,0,4.11-2.38,15.79,15.79,0,0,0,2.09-1.65,7.67,7.67,0,0,0,2.13-3,2.16,2.16,0,0,1,.9-1.18.63.63,0,0,1,1,.37,3.75,3.75,0,0,1,.06,1.25,8.66,8.66,0,0,1-.94,3,20.56,20.56,0,0,1-2.18,3.41A36.82,36.82,0,0,1,255,246a52.55,52.55,0,0,1-14,1.4,11.81,11.81,0,0,1-3-.48,5.4,5.4,0,0,1-1.87-.9,3.27,3.27,0,0,1-1.42-2.55,19.71,19.71,0,0,1,2.6-11.23,14.3,14.3,0,0,1,2.65-3.21,68.77,68.77,0,0,1,7.21-5.63c4.71-3.26,9.63-6.17,14.62-9Zm1.42-15.87c-.34,0-.69,0-1,0a2.59,2.59,0,0,0-2.46,1.93,6.22,6.22,0,0,0-.23,2.06,4.62,4.62,0,0,0,3,4.49,11.77,11.77,0,0,0,5.22.78,2.23,2.23,0,0,0,2.21-1.86,7,7,0,0,0,.21-1.83,5,5,0,0,0-3.76-5.09A9.84,9.84,0,0,0,264.65,197.74Zm18.76,12.68c.5,0,.85-.06,1.18-.13a.54.54,0,0,0,.41-.8,6.43,6.43,0,0,0-.76-1.29,50.56,50.56,0,0,0-6.87-7.16,7,7,0,0,0-1.05-.72,1,1,0,0,0-1.51.33,4.39,4.39,0,0,0-.63,1.35,17.67,17.67,0,0,0-.48,4.81.93.93,0,0,0,.48.86,8.61,8.61,0,0,0,1.55.77c1.54.5,3.09,1,4.65,1.38C281.42,210.09,282.49,210.24,283.41,210.42Z"/><path d="M335.46,190.62a4.75,4.75,0,0,0,2.1,1.58,18.82,18.82,0,0,0,3.95,1.22c.52.12,1.05.17,1.56.3a6.06,6.06,0,0,1,1.27.4,2.06,2.06,0,0,1,1.19,2.32,9.72,9.72,0,0,1-1.33,3.39,1.31,1.31,0,0,1-1.44.68,19.23,19.23,0,0,1-2.5-.56,26.11,26.11,0,0,1-5.51-2.58,11.91,11.91,0,0,1-1.84-1.4,2.9,2.9,0,0,1-.9-3.31c.38-1.12.73-2.25,1.17-3.34.56-1.44,1.19-2.85,1.81-4.26a3.89,3.89,0,0,1,1.79-1.94c1.47-.78,2.91-1.62,4.41-2.36,5.36-2.65,10.86-5,16.37-7.31,14.29-6,28.72-11.64,43.17-17.23,16.81-6.49,33.64-12.91,50.57-19.06,7.8-2.83,15.61-5.63,23.54-8.07,2.06-.64,4.15-1.16,6.24-1.7a13.5,13.5,0,0,1,1.8-.29c.4,0,.64.19.57.58a6.14,6.14,0,0,1-.35,1.29c-.43,1.06-.92,2.09-1.36,3.14a2.18,2.18,0,0,1-1.4,1.23q-5.35,1.89-10.68,3.83-30.6,11-61,22.44c-15,5.58-29.93,11.22-44.75,17.21-6.52,2.64-13,5.3-19.4,8.31-2,.94-3.93,2-5.87,3a23.37,23.37,0,0,0-2.25,1.46,3.15,3.15,0,0,0-.63.58A2.68,2.68,0,0,0,335.46,190.62Z"/><path d="M509.74,355.18c-.13.37-.21.57-.26.78a19.42,19.42,0,0,1-3.83,7.51,11.5,11.5,0,0,1-1.58,1.54,35.61,35.61,0,0,1-4.89,3.27c-3.54,2.05-7.21,3.87-10.92,5.61-7.54,3.51-15.2,6.75-22.9,9.91a49.93,49.93,0,0,1-9.64,2.8c-4.49.85-9,1.72-13.48,2.54-1.8.33-3.61.59-5.43.83a16.26,16.26,0,0,1-2.21,0c-.08,0-.22-.16-.24-.26a.41.41,0,0,1,.13-.34,1.37,1.37,0,0,1,.45-.23c2.49-.94,5-1.84,7.45-2.81q16.91-6.64,33.79-13.32a199.33,199.33,0,0,0,19.9-9.23,65.75,65.75,0,0,0,6.83-4.11,18.41,18.41,0,0,0,4.56-4.46,11.18,11.18,0,0,0,1.34-2.38,27.62,27.62,0,0,1,3.48-6.41c.81-1.13,1.67-2.24,2.58-3.29a12.82,12.82,0,0,1,1.92-1.76,3.65,3.65,0,0,1,3.94-.42,6.67,6.67,0,0,1,2.24,1.57,15.18,15.18,0,0,1,4.16,8.27c0,.22.06.43.07.65a24.42,24.42,0,0,1-.46,5.85,9.47,9.47,0,0,1-.57,1.73,2.42,2.42,0,0,1-2.59,1.58,22.85,22.85,0,0,1-7-1.38,22.5,22.5,0,0,1-5.67-3.2C510.55,355.78,510.2,355.53,509.74,355.18Zm12.59-1.64a6.39,6.39,0,0,0-1.15-4.67,3.38,3.38,0,0,0-1.85-1.16,6.81,6.81,0,0,0-3.11.06,2.25,2.25,0,0,0-1.31.8c-.71,1-.7,1.73.31,2.29.08,0,.15.1.22.14a22.63,22.63,0,0,0,5.5,2.35A2.3,2.3,0,0,0,522.33,353.54Z"/><path d="M62.19,328a51.42,51.42,0,0,1,.78-7.83c.77-4.59,1.68-9.15,2.9-13.64a163,163,0,0,1,5.25-15.83,20.37,20.37,0,0,1,1.73-3.58,6.73,6.73,0,0,1,.94-1.12.43.43,0,0,1,.75.19,2.11,2.11,0,0,1,.13.82,18.73,18.73,0,0,1-.3,2,11.79,11.79,0,0,1-.47,1.61c-1.44,4.2-2.58,8.49-3.63,12.81-1,4-1.94,8-2.83,12.05a33.83,33.83,0,0,0-.72,10.23,13.75,13.75,0,0,0,1.65,5.7,9.76,9.76,0,0,0,1.22,1.7,4.94,4.94,0,0,0,4.69,1.49,3.75,3.75,0,0,0,2.38-1.44,25.64,25.64,0,0,0,2.73-4.1,9,9,0,0,1,.62-1.09.73.73,0,0,1,1.33.14,2.73,2.73,0,0,1,.21,1.44,11.9,11.9,0,0,1-.19,1.46,34.55,34.55,0,0,1-2.14,6.79,14.42,14.42,0,0,1-2.28,3.63,7.38,7.38,0,0,1-8.18,2.22,5.47,5.47,0,0,1-2.8-2.28,24,24,0,0,1-3.44-8.84A25.12,25.12,0,0,1,62.19,328Z"/><path d="M186,217.18c.07-.34.18-.67.22-1,.68-5.68,1.66-11.32,2.74-16.94a65.45,65.45,0,0,1,2-8.52,47.76,47.76,0,0,1,1.8-4.46,9.26,9.26,0,0,1,2.2-3,5,5,0,0,1,3.73-1.41,9.64,9.64,0,0,1,4.27,1.2,16.91,16.91,0,0,1,5,4.48,2.44,2.44,0,0,1,.54,1.48,7.57,7.57,0,0,1,0,1.43c-.33,1.75-.67,3.5-1.07,5.24a4.66,4.66,0,0,1-.67,1.45,3.49,3.49,0,0,1-.85.7c-.3-.3-.55-.54-.78-.79-.92-1-1.77-2.1-2.75-3.06a11.2,11.2,0,0,0-2.26-1.73,2.9,2.9,0,0,0-3.89.6,9.81,9.81,0,0,0-1.67,2.51,32.25,32.25,0,0,0-1.5,4.2,62.46,62.46,0,0,0-1.8,9.29c-.68,5.26-1.2,10.54-2.17,15.76-.28,1.52-.65,3-1,4.52a7.61,7.61,0,0,1-.69,1.64.82.82,0,0,1-1.22.34,5.09,5.09,0,0,1-1.28-1.21,14.64,14.64,0,0,1-1.42-2.68q-1-2.67-1.87-5.4a40.67,40.67,0,0,0-4-9.16,29,29,0,0,0-4.9-6.13c-.34-.32-.72-.57-1.1-.87a2.22,2.22,0,0,0-.46.39,1.75,1.75,0,0,1-2.48.64,34,34,0,0,1-7.95-4.41,5.37,5.37,0,0,1-2.32-4.41,19.76,19.76,0,0,1,.23-5c0-.18.05-.36.1-.53.64-2.5,2.18-3.56,4.75-3.26a11.21,11.21,0,0,1,4.82,1.79,20,20,0,0,1,4.55,4,59.92,59.92,0,0,1,10,16.39c.65,1.72,1.5,3.37,2.26,5.06.15.31.33.61.49.92Z"/><path d="M479.13,202.31c.08-.37.19-.73.24-1.1.74-6.18,1.8-12.31,3-18.43a71.68,71.68,0,0,1,2.17-9.27c.56-1.65,1.25-3.27,2-4.86a10.27,10.27,0,0,1,2.38-3.29,5.47,5.47,0,0,1,4.07-1.54,10.31,10.31,0,0,1,4.64,1.31,18.45,18.45,0,0,1,5.5,4.87,2.68,2.68,0,0,1,.59,1.61,7.37,7.37,0,0,1,0,1.56c-.35,1.91-.73,3.81-1.16,5.71a5.19,5.19,0,0,1-.72,1.57,4.3,4.3,0,0,1-.94.77c-.32-.34-.59-.59-.84-.87-1-1.11-1.93-2.28-3-3.33a12.83,12.83,0,0,0-2.46-1.88,3.15,3.15,0,0,0-4.23.65,10.58,10.58,0,0,0-1.82,2.73,35.55,35.55,0,0,0-1.64,4.57,68.09,68.09,0,0,0-1.95,10.11c-.74,5.73-1.31,11.48-2.36,17.15-.31,1.66-.72,3.3-1.14,4.93a8.37,8.37,0,0,1-.74,1.78.91.91,0,0,1-1.33.37,5.35,5.35,0,0,1-1.4-1.32,16.29,16.29,0,0,1-1.54-2.92c-.75-1.93-1.42-3.89-2-5.87a44.84,44.84,0,0,0-4.32-10,31.39,31.39,0,0,0-5.33-6.66c-.37-.34-.79-.63-1.2-1-.22.19-.41.28-.5.43-.68,1.13-1.62,1.13-2.7.69a37.12,37.12,0,0,1-8.65-4.79,5.87,5.87,0,0,1-2.53-4.8,22.44,22.44,0,0,1,.25-5.43c.05-.19.07-.38.11-.57.71-2.72,2.38-3.88,5.17-3.55a12.09,12.09,0,0,1,5.25,1.95,22.15,22.15,0,0,1,5,4.35,64.13,64.13,0,0,1,3.93,5.07,61.14,61.14,0,0,1,7,12.77c.71,1.87,1.63,3.67,2.46,5.5.16.34.35.67.53,1Z"/><path d="M73.66,493.05C70,505.36,60.93,515.73,53.84,512.46c-.26-.23-.29-.51,0-.42,9.32,2.9,17.24-13.33,19-19.76.13-.47.16-1.14.23-1.52,0,0,0-.07,0-.1.09-.44,1.14.19,1.27.8.73,4.42,1.08,10.4,2.42,15.87,2.19-5.44,8.17-18.48,9.45-19.56.51-.67,1.4.22,1.36.86-.47,4.93-.79,8.75-.79,12.72,0,.8,0,1.56,0,2.36.19,6.26,1.18,10.84,3.56,11.61.2.06.26.41-.12.41-3.6,0-4.36-7.38-4.58-11.83,0-.83-.07-1.69-.07-2.55,0-3.91.38-8.21.77-12-1.6,2.48-7.58,15.36-9.07,19.5,0,.8-.7,1.53-1,1.24A134.09,134.09,0,0,1,73.66,493.05Z"/><path d="M94.49,505.2a2.86,2.86,0,0,1-3,3.66,2.37,2.37,0,0,1-2.13-1.94,3.13,3.13,0,0,1,1.33-3.12c.07,0,.1,0,.16,0a.87.87,0,0,1,1-.76,3.17,3.17,0,0,1,2,1.11,21.65,21.65,0,0,0,2.36.13c1.49,0,2.74-.13,3-.13.92,0,.7.38-.06.64A15.59,15.59,0,0,1,94.49,505.2Zm-4,1.62c.16.93.51,1.28,1.11,1.24,1.4-.06,2.1-1.87,1.6-3a4.88,4.88,0,0,1-1.79-.6l-.06.06A2.9,2.9,0,0,0,90.48,506.82Z"/><path d="M98.94,506.79l.32-3.18c0-.22.32-.25.64-.13s.54.45.5.64l-.06,1.08c1.08-.79,3.37-1.94,5.15-1.75a1.35,1.35,0,0,1,1.18,1.11c0,.55-.35,1.75.07,2.36a1.63,1.63,0,0,0,1.08.35c2,0,4.74-2.51,5.76-3,.12-.07.25.63-.23,1.24a7.24,7.24,0,0,1-5.06,2.67,3,3,0,0,1-2.51-1.21,2.77,2.77,0,0,1-.41-1.59,6.84,6.84,0,0,1,.09-1.08c-2.35.25-4.77,1.78-5.37,3.12l0,.73c0,.41-1.08.13-1.11-.38A3.4,3.4,0,0,1,98.94,506.79Z"/><path d="M112.94,507.36c0-1.84,0-3.56.06-4.8,0-1.49.09-3.37.19-5.31-2.64.22-5.12.41-7.67.86-.6.09-1.27-.73-.73-.86a80.66,80.66,0,0,1,8.43-1c.13-2.48.29-5,.42-7,0-.5,1.2-.31,1.3.32-.22,1.59-.41,4.07-.54,6.56.29,0,.6,0,.92-.07,2.71-.19,6.33-.48,9.45-.48a23.54,23.54,0,0,1,4.61.35,2.15,2.15,0,0,1,.74.64c0,.26-.13.38-.39.35a27,27,0,0,0-5.12-.38c-3.4,0-7.12.32-9.54.51a6.15,6.15,0,0,1-.73.06l-.23,5.35c0,2-.12,5-.12,7.92a37.53,37.53,0,0,0,.54,7.86c.09.73-.89.06-1.12-.61C113.06,516.56,112.94,511.63,112.94,507.36Z"/><path d="M116.78,506.28a2.33,2.33,0,0,1,1.15-1.94,5.54,5.54,0,0,1,3-.86,6.48,6.48,0,0,1,2.58.54h0l.54-.73c.19-.35,1.28.35,1.05.73a8.1,8.1,0,0,0-.51,1.66c0,.54.13,1.18.7,1.33,1.63.32,4.36-1.3,5.51-2.57.54-.54,1,.25-.73,2-.8.8-3,1.82-4.33,1.5a3,3,0,0,1-2.26-2c-.89.8-3,2.42-4.68,2.42a2,2,0,0,1-1.14-.32A2.14,2.14,0,0,1,116.78,506.28Zm6.24-1.62a4.34,4.34,0,0,0-1.24-.16c-1.59,0-3.69.61-4,2.07a.57.57,0,0,0,.57.76A9.34,9.34,0,0,0,123,504.66Z"/><path d="M130.65,507.62V503.1c0-4.39.16-8.3.38-12.37,0-.45,1.24-.07,1.24.41-.41,4.07-.47,8.21-.54,12.57v2.83c1-1.12,3.69-3.66,5.51-3.09a1.64,1.64,0,0,1,1,.92,17.54,17.54,0,0,0,.06,2.58,2.26,2.26,0,0,0,1,.22c1.65,0,5.09-1.33,6.11-2.7.28-.35.12.67-.35,1.37A7.19,7.19,0,0,1,140,508.1a3.75,3.75,0,0,1-2.13-.64,2.42,2.42,0,0,1-.89-2c0-.44.07-.82.07-1.05-1.82-.09-5.16,3.28-5.29,4.74,0,.48-.95.07-1.08-.44A6.91,6.91,0,0,1,130.65,507.62Z"/><path d="M143.88,506.28a2.33,2.33,0,0,1,1.15-1.94,5.54,5.54,0,0,1,3.05-.86,6.48,6.48,0,0,1,2.58.54h0l.54-.73c.19-.35,1.27.35,1.05.73a8.1,8.1,0,0,0-.51,1.66c0,.54.13,1.18.7,1.33,1.63.32,4.36-1.3,5.51-2.57.54-.54,1,.25-.73,2-.8.8-3,1.82-4.33,1.5a3,3,0,0,1-2.26-2c-.89.8-3,2.42-4.68,2.42a2,2,0,0,1-1.14-.32A2.14,2.14,0,0,1,143.88,506.28Zm6.24-1.62a4.34,4.34,0,0,0-1.24-.16c-1.59,0-3.69.61-4,2.07a.57.57,0,0,0,.57.76A9.38,9.38,0,0,0,150.12,504.66Z"/><path d="M153.23,248.56c-.15-.32-1.66,1.91-1.65,1.9a47.35,47.35,0,0,0-2.79,5,49,49,0,0,0-2.33,5.3c-.23.64-.82,1.77-.5,2.43a71.45,71.45,0,0,1,5.29,14.88A73.69,73.69,0,0,1,153,298.29a70,70,0,0,1-1.26,10c-.29,1.46-.68,3-1.09,4.47-.14.47-.27.94-.42,1.41,0,.07-.12.42-.2.67l-.3.9c-.17.46-.33.92-.51,1.38,0-.11-.9,2.23-.49,2.43s1.7-2,1.63-1.86a55.66,55.66,0,0,0,5.15-10.37,75.73,75.73,0,0,0,2.36-46.6A70.43,70.43,0,0,0,153.23,248.56Z"/><path d="M151.58,250.46l0,0Z"/><path d="M165.32,191.17c1.13-2.33-11.69,10.42-13.95,12.77-3.18,3.31-4,4.65-7.65,7.5a126.69,126.69,0,0,1-15.06,9.67,53.85,53.85,0,0,1-8.06,3.67c-1.25.37-2.52,1.11-3.79,1.58l-1.23.43-.59.2-.79.24-1.25.33c.1,0-2,.44-2,.95s2.22.47,2.12.47a37.47,37.47,0,0,0,10-1.18c13.56-3.47,26-12,35.43-25.1A62.17,62.17,0,0,0,165.32,191.17Z"/></g></svg>