<svg xmlns="http://www.w3.org/2000/svg" viewBox="0 0 600 600"><title>Artboard 10</title><g id="Layer_11" data-name="Layer 11"><path d="M346.68,296.89c-13.9-1.37-24.68,3.11-35.52,8a164.53,164.53,0,0,1-25.08,9.26A19.19,19.19,0,0,1,262,297c-1-13.28-1-26.67-.67-40,.23-9.6,4.1-17.68,14.08-22.06-10-5.35-22.29-5.46-28.66-16.48-6.07-10.5-3.94-21.21-2.75-33.87,2,2.58,3,4,4.13,5.24,3.51,3.59,6.51,8.51,10.8,10.32a220.56,220.56,0,0,0,30.46,9.79c12.33,3.19,25.2,3.78,37.26,8.68,14,5.71,20.68,16,21.7,30.62.43,6.12,1.22,12.27.94,18.37C348.84,277.27,347.61,286.91,346.68,296.89Zm-3.74-28.47c.14-9.49-5-15-11.77-18.61-14.06-7.57-29.59-10.19-46.22-12.33C296.06,251,299.41,266,298.6,283.05,313.13,276.09,326.48,268.36,342.94,268.42Zm-77,5.12c0,5.54,5.8,12.36,10.3,12.18,6-.24,14.46-6,14.34-9.8-.17-5.13-7.64-12.74-12.56-12.79C272.21,263.08,265.92,268.49,266,273.54Z"/><path d="M286.26,26A64.17,64.17,0,0,1,281,58.43c-7.55,16.82-15.42,33.52-23.8,49.94C243.73,134.67,230.44,161,222,189.43a178.78,178.78,0,0,0-7.37,48.73c-.2,15.05-.38,30.24,1.37,45.15,2.89,24.59,13.28,46.79,27.54,66.66,12.89,18,27.73,34.52,41.64,51.76C291,409,297,416.14,302.33,423.79c12.69,18.32,14.2,38.24,6.74,59.28-.63-2.78-1.59-5.53-1.84-8.35A44.09,44.09,0,0,0,297.8,451c-10-12.68-20.2-25.28-30.84-37.45-16.4-18.76-31.3-38.46-42.29-61-10.19-20.86-15.27-42.76-16.21-66-1.08-26.77,1.09-53.26,4.69-79.66,4.58-33.55,16-65,30.88-95.26,11.85-24.15,23.88-48.2,35.67-72.37,2.11-4.33,3.44-9,5.13-13.58Z"/><path d="M256,281.21c.21,3.94.74,7.9.57,11.82a29.36,29.36,0,0,0,9,22.85c3.87,3.82,5,7.93,3.95,12.74-.91,4.26.33,7.33,3.22,10.43,11.27,12.1,22.91,23.91,33.35,36.69q29.28,35.81,30.84,82.43A226.9,226.9,0,0,1,332.56,513a68.39,68.39,0,0,1-2.42,7.38l-1.67-.06c0-3.25-.24-6.52,0-9.75.9-10.3,3-20.59,2.83-30.86C331,450,319.64,424.19,301,401.58c-9.49-11.52-19.74-22.47-30.22-33.11C255.22,352.65,248.2,334,250.32,312c.92-9.57,2.09-19.11,3.21-28.66a8.64,8.64,0,0,1,.95-2.26Z"/><path d="M386.84,258A43.52,43.52,0,0,1,398,282.46c3.64,31.58,1.79,62.16-17.74,89.25-18.65,25.86-29.61,54.9-34.51,86.26-1,6.55-.89,13.28-1.36,19.92-.25,3.45-.67,6.9-1,10.34l-1.4.13a59.7,59.7,0,0,1-1.4-7.65A226.16,226.16,0,0,1,359,378c5.51-12.83,13.93-24.39,20.75-36.68,4.34-7.82,8.27-15.87,12.18-23.92,4.07-8.41,3.81-16.85-1.72-24.45C382.2,281.9,385.06,270,386.84,258Z"/><path d="M307.07,517.67c8.49-10.37,13.2-20.38,8.87-32.91l1.75-.29c1.3,2.06,3,4,3.83,6.22,5.42,14.26,4.78,27.75-2.88,41.55-4.63,8.34-6.35,18.29-9.46,27.76-4.05-6-7.55-13.37-5.67-21.15a32,32,0,0,0-2.34-22.14c-3.88-8.38-4.26-17.18-2.21-26.32.75-3.3-.85-7.13-1.39-10.72a33.78,33.78,0,0,1-.56-8.08c6.05,5.21,7.95,12.42,9,19.5,1,6.3,0,12.88.07,19.33A63.81,63.81,0,0,0,307.07,517.67Z"/><path d="M379.79,280.17c-4.3-2.05-8.41-3.9-12.4-6a3.73,3.73,0,0,1-1.57-2.51c-1.48-9.58-1.67-19.13.46-28.69,10.85,2.43,15.09,7.54,15.15,17.9,0,4.4.07,8.8-.16,13.19C381.17,276,380.39,277.79,379.79,280.17Z"/></g></svg>