<svg xmlns="http://www.w3.org/2000/svg" viewBox="0 0 601 600"><title>Zaineb</title><g id="Layer_5" data-name="Layer 5"><path d="M216.35,492.2c6.27,5.71,11.91,10.65,17.26,15.9a5.83,5.83,0,0,1,1.21,4.94c-4,11.64-8.35,23.17-13,35.87l-20.33-18.22-7,15c-6.38-5.93-12.39-11.39-18.21-17.08-.68-.66-.71-2.69-.31-3.8,4.19-11.56,8.54-23.05,13.27-35.72,7.39,6.66,13.61,12.27,20.26,18.25Z"/><path d="M73,380c7.52,5.26,13.88,9.51,20,14.15,1.08.84,1.71,3.46,1.38,5-2.56,11.74-5.42,23.42-8.5,36.47-6-4.05-10.81-7.79-16-10.7-5-2.8-6.74-6.23-5.12-12C67.59,402.36,70,391.77,73,380Z"/><path d="M257.2,174.44c-7.72-5.3-14.07-9.54-20.24-14.05a4.75,4.75,0,0,1-1.32-3.93c2.61-12.24,5.44-24.43,8.48-37.82,7.75,5.34,14.25,9.6,20.45,14.29,1.06.8,1.49,3.55,1.14,5.14C263.14,149.77,260.29,161.4,257.2,174.44Z"/><path d="M509.48,270.93c-7.69-5.33-14.29-9.78-20.69-14.52-.85-.63-1.21-2.86-.93-4.14,2.7-12,5.59-24,8.72-37.24,7.65,5.42,14.21,9.94,20.57,14.74.88.66,1.35,2.84,1.07,4.09C515.51,245.86,512.61,257.8,509.48,270.93Z"/><path d="M539.26,292.4c-21.39-5.41-39.88,8.32-52.7,24.65-14.65,18.66-28.7,37.87-40.79,58.43-11.08,18.82-22,37.91-40.06,50.35-17.51,12-39.32,16.69-60.12,15.69-17.63-.84-34-7.68-44-23.37A63.08,63.08,0,0,1,293,393.9a79.31,79.31,0,0,1-.62-15.4c.06-1.55.18-3.11.34-4.65,1.34-5.81,2.54-11.64,3.55-17.51-.06.32,1.23-6.25.65-6.39s-2.18,6.36-2.1,6c-5.19,19.71-10.16,39.95-11.87,60.38a80.12,80.12,0,0,0,3.95,33.19,52.15,52.15,0,0,0,17.46,24.38c8.47,6.39,19.09,8.95,29.33,9.88a99,99,0,0,0,60.52-14.14c18.24-11.34,29.64-30.19,40.41-48.61,12.47-21.3,26.75-41,41.72-60.46,12.92-16.8,31.62-31.29,53.54-25.74C531.26,335.22,541,292.83,539.26,292.4Z"/><path d="M431.79,295.89c-17.16-10.91-38.3-8.23-55.6.76-18.77,9.75-32.11,27.91-43.44,45.66-11.63,18.25-21.83,37.54-36.07,53.82-15.16,17.34-34.53,27.33-56.57,31.68-21.25,4.19-43.9,1.59-62-11.34a58.75,58.75,0,0,1-18.75-22.34c-.85-1.75-1.59-3.54-2.27-5.36.93-.36,1.85-.74,2.76-1.16,17.67-8.18,30.49-25.79,41.57-41.58a79.55,79.55,0,0,0,10.47-21.45,174.26,174.26,0,0,0,5.74,20c1.61,4.58,3.43,9.14,7.51,11.9,3.36,2.28,7.73,1.27,11-.5,3.73-2,6.16-5.83,7.61-9.79A143.23,143.23,0,0,0,248.17,330a48.3,48.3,0,0,0,4.79,9.56c5.23,8,13.6,13.53,23,13.33,9.15-.2,17.25-6.58,22.4-14a45.24,45.24,0,0,0,6-13.3A290.06,290.06,0,0,0,313.81,282c2.82-21.45-5.67-44.83-17.93-61.94a55,55,0,0,0-21.2-18.18c-9.89-4.61-21-4.24-31.26-1.59-10.84,2.79-20.92,8.36-30.5,14.16A193.76,193.76,0,0,0,187,233.16c-16.26,14-29.66,31.51-37.6,51.89-7,18.07-11.08,38-14.12,57.18-.31,1.95-.57,3.9-.8,5.83-18.28-3.84-36.39-13.14-48.95-27.57-14.81-17-16-39.88-14.83-61.69.1-1.93.26-3.85.44-5.78a99.08,99.08,0,0,1,10.61-20.41c12.18-17.92,30.43-27.85,49.59-35.83,18.73-7.81,38.27-14.67,53.49-29a63.49,63.49,0,0,0,16.34-26c3.61-10.55,6-21.68,8.22-32.61a245.83,245.83,0,0,0,4.28-26.71c.91-9.74.5-19.58.1-29.34-.11-2.65-1.42,2.47-1.26,2-1.28,4.13-2.29,8.36-3.28,12.58-1.28,5.43-2.47,10.89-3.52,16.38-.58,3-1.68,6.77-1.55,9.91.25,6.09.52,12.24.45,18.37-.16.29-.32.59-.49.88a58.15,58.15,0,0,1-9.89,12.13c-14.87,14.48-34.93,21.33-53.49,29-19.32,8-37.15,18-49.59,35.84-15.43,22.11-20.71,50.83-25.78,77-4.35,22.5-7.16,47.07-2.28,69.76,4.37,20.28,19.26,35.11,36.55,44.32,11.56,6.15,24.92,10.66,38.08,10.83,1.8,7.7,3.85,15.35,5.55,23,2.43,11,5.6,21.62,12.18,30.76,26.71,37.11,84.78,31.22,117.21,6.59C307.21,426.21,319,379.4,350.86,350.4c19-17.27,48.55-26.66,71.53-12,.17.11,5.47-19.85,5.72-21,1.11-5,2.16-10,3-15.09C431.14,302.29,432.46,296.32,431.79,295.89ZM185.54,269.15a205.33,205.33,0,0,1,27.05-17.49c9.95-5.44,20.63-9.74,31.92-10.78,20.73-1.89,36.93,12,47.06,29.54a108.67,108.67,0,0,1,11.53,29.81c.12.5.22,1,.32,1.51-5.88,6-14,9.48-22.31,8.42-9.34-1.2-16.7-8.92-21.1-17.05-4.72-8.71-6.2-19-7.54-28.75.08.55-2,5.8-2.1,6-1.35,4.94-2.52,9.94-3.62,15-2,9-4.38,18.37-4.61,27.7,0,.63,0,1.25,0,1.88l-.26.08c-9.53,2.7-13.42-8.54-15.88-15.72a158.7,158.7,0,0,1-4.78-17.13c.1-1,.19-2,.25-3a21.4,21.4,0,0,0-2.9-12c-.08-.13-2.23,6.51-2.1,6-1.35,4.94-2.52,9.94-3.63,14.94s-2.15,10-3,15.09c-.13.73-.29,1.52-.42,2.33a214.18,214.18,0,0,1-18.17,22.69c-6.66,7.13-14.27,13.34-23,17.4a46.6,46.6,0,0,1-20.88,4c-2.11-8.81-4-17.64-4.23-26.79q0-1,0-2c.31-.7.63-1.39,1-2.09C153.21,298.68,168.5,282.31,185.54,269.15Z"/><path d="M302.28,419.17l-17.66,22.57s2.74,12.77,9.05,21.07l24.6-28.73S309.59,429.73,302.28,419.17Z"/><path d="M292.32,387A75,75,0,0,0,294,399.12s-7.15,7-10.2,9.29c0,0,1.69-13.59,3.46-20.82Z"/><path d="M170.05,409.55s-7.87-7.32-13-20.78c0,0-15.2,3.51-19.34,3.31L144.4,420Z"/><path d="M137.31,330.19s-3.18,17-2.84,17.87c0,0,7.55,1.72,12.83,1.6,0,0-3.33-15-3.73-19.68Z"/><path d="M158,104c-5,.25-9.51,1.78-14.27,1.91a24.65,24.65,0,0,1-7.05-.71c-6.16-1.66-6.75-2.72-4.35-8.64,1.91-4.69,3-10.17,6.09-13.81,3.37-4,8.62.16,13.13-.08a50.54,50.54,0,0,0,24.9-8.33c-5.28,35.62-33.05,60.81-67.73,62.09C130.09,132.22,145.24,120,158,104Z"/><path d="M227.43,417a31.77,31.77,0,0,0,.9-24.23c-.49-1.41-.91-4.3-2.79-.79-.43.8-.85.41-1.31,0-3.29-2.71-3.54-10-.51-13,1.19-1.18,2.05-.32,2.87.36,4.16,3.5,5.46,8.44,6.16,13.61.24,1.82.15,3.7.49,5.56,1.63-4.32,1.84-8.85,2-13.36a82.64,82.64,0,0,1,.9-10.79,15,15,0,0,1,1.9-5,4,4,0,0,1,4-2c1.75.09,2.6,1.29,3.15,2.77,1.19,3.19.84,6.5.95,9.86-.41-.1-.69-.1-.72-.19-.87-2.48-2.3-4.32-5.08-3.61s-2.46,3.14-2.43,5.35c.16,11.46-2,22.3-7.85,32.15a17.34,17.34,0,0,1-1.28,1.85C228.36,416.11,227.88,416.56,227.43,417Z"/><path d="M381.25,236.06C375,228.77,375.12,223.23,379,216a12.14,12.14,0,0,0,.71-2.21c-7.31,6.68-11.81,15.6-16.05,24.69-3.81,8.16-7.27,16.51-9.14,25.39-1.93,9.13,1.42,12.69,10.19,11.58C381.17,273.35,392.11,248.77,381.25,236.06Zm-15.42,26.29c-2.76.15-5.81-.17-5-3.92,1.2-5.59,2.38-11.58,7.45-15,1.53-1,11.3,7.51,11.56,9.72C380.21,256.29,371.52,262,365.83,262.35Z"/><path d="M126.69,272.59c2.54-2.77,7.4-7.85,9.85-10.71s4.89-5.76,3.27-9.73c-1.78-4.39-5.77-3.06-9.41-2.82a20.58,20.58,0,0,1,5.92-8.29c3.37-3,7.34-4.71,11.23-1.53s3,7.81,1.23,11.79c-2.78,6.15-7.65,10.57-12.67,14.75-2.06,1.72-4.22,3.32-6.34,5A10.56,10.56,0,0,1,126.69,272.59Z"/><path d="M391.13,386.93c-4.47.23-8.54,1.6-12.81,1.71A21.81,21.81,0,0,1,372,388c-5.53-1.49-6.06-2.45-3.9-7.75,1.71-4.22,2.69-9.14,5.46-12.4,3-3.55,7.74.14,11.79-.08a45.43,45.43,0,0,0,22.35-7.47C403,392.28,378,414.9,346.89,416,366.06,412.26,379.65,401.3,391.13,386.93Z"/><path d="M464.45,221.36a47.94,47.94,0,0,0,1.35-36.54c-.75-2.12-1.37-6.48-4.21-1.18-.65,1.2-1.28.61-2,0-5-4.09-5.35-15-.77-19.59,1.79-1.79,3.09-.49,4.32.55,6.28,5.27,8.24,12.71,9.29,20.52.37,2.75.24,5.57.74,8.38,2.46-6.52,2.78-13.34,3.06-20.15a122.82,122.82,0,0,1,1.35-16.27,22.49,22.49,0,0,1,2.86-7.58,6,6,0,0,1,6-3c2.64.12,3.9,1.94,4.74,4.17,1.79,4.81,1.26,9.81,1.43,14.87-.62-.16-1-.16-1.08-.29-1.31-3.74-3.48-6.51-7.67-5.45s-3.71,4.74-3.66,8.08c.24,17.27-3,33.62-11.84,48.48a24.69,24.69,0,0,1-1.93,2.79C465.85,220,465.12,220.65,464.45,221.36Z"/><path d="M214.77,490.67c6.27,5.71,11.91,10.65,17.26,15.9a5.83,5.83,0,0,1,1.21,4.94c-4,11.64-8.35,23.17-13,35.87L199.9,529.16c-2.24,4.84-4.34,9.38-7,15-6.38-5.92-12.39-11.39-18.21-17.07-.68-.66-.71-2.69-.31-3.8,4.19-11.56,8.54-23,13.27-35.72L208,505.84Z"/><path d="M71.42,378.44c7.52,5.26,13.88,9.51,20,14.15,1.08.83,1.71,3.46,1.38,5C90.2,409.3,87.34,421,84.26,434c-6-4-10.81-7.79-16-10.7-5-2.8-6.74-6.23-5.12-12C66,400.83,68.46,390.24,71.42,378.44Z"/><path d="M255.62,172.91c-7.72-5.3-14.07-9.54-20.24-14a4.75,4.75,0,0,1-1.32-3.93c2.61-12.24,5.44-24.43,8.48-37.82,7.75,5.34,14.25,9.6,20.45,14.29,1.06.8,1.49,3.55,1.14,5.14C261.56,148.24,258.71,159.87,255.62,172.91Z"/><path d="M507.9,269.4c-7.69-5.33-14.29-9.78-20.69-14.52-.85-.63-1.21-2.86-.93-4.14,2.7-12,5.59-24,8.72-37.25,7.65,5.43,14.21,9.95,20.57,14.75.88.66,1.35,2.84,1.07,4.09C513.93,244.33,511,256.27,507.9,269.4Z"/><path d="M537.68,290.87c-21.39-5.41-39.88,8.32-52.7,24.65-14.65,18.66-28.7,37.87-40.8,58.43-11.07,18.82-21.95,37.91-40.05,50.35C386.62,436.33,364.81,441,344,440c-17.63-.84-34-7.68-44-23.37a63.32,63.32,0,0,1-8.64-24.25,80.1,80.1,0,0,1-.61-15.4c.06-1.56.18-3.11.34-4.66,1.34-5.8,2.54-11.63,3.55-17.5-.06.32,1.23-6.25.65-6.39s-2.18,6.36-2.1,6c-5.19,19.71-10.16,40-11.87,60.38A80,80,0,0,0,285.3,448a52.15,52.15,0,0,0,17.46,24.38c8.47,6.39,19.09,8.95,29.33,9.88a99.08,99.08,0,0,0,60.52-14.14c18.24-11.34,29.64-30.2,40.41-48.61,12.47-21.31,26.75-41,41.72-60.47,12.92-16.79,31.62-31.28,53.54-25.73C529.68,333.69,539.37,291.3,537.68,290.87Z"/><path d="M430.21,294.36c-17.16-10.92-38.3-8.23-55.6.76-18.77,9.74-32.11,27.9-43.44,45.66C319.54,359,309.34,378.32,295.1,394.6c-15.16,17.34-34.53,27.33-56.57,31.68-21.25,4.19-43.9,1.59-62-11.34a58.82,58.82,0,0,1-18.75-22.34c-.85-1.75-1.59-3.54-2.27-5.37.93-.35,1.85-.73,2.76-1.16,17.67-8.17,30.49-25.79,41.57-41.58a79.35,79.35,0,0,0,10.47-21.44,176.85,176.85,0,0,0,5.73,20c1.62,4.58,3.44,9.14,7.52,11.9,3.36,2.28,7.73,1.27,11-.5,3.73-2,6.16-5.83,7.61-9.79a143.23,143.23,0,0,0,4.45-16.24,48.3,48.3,0,0,0,4.79,9.56c5.23,8,13.6,13.53,23,13.33,9.15-.2,17.25-6.58,22.4-14a45.36,45.36,0,0,0,6-13.3,290.06,290.06,0,0,0,9.45-43.59c2.81-21.45-5.67-44.83-17.93-61.94a55,55,0,0,0-21.2-18.18c-9.89-4.61-21-4.24-31.26-1.59-10.84,2.79-20.92,8.36-30.5,14.16a193.76,193.76,0,0,0-25.93,18.73c-16.26,14-29.66,31.5-37.6,51.88-7.05,18.08-11.08,38-14.12,57.19-.31,1.95-.57,3.89-.8,5.83C114.61,342.69,96.5,333.39,83.94,319c-14.81-17-16-39.89-14.83-61.69.1-1.93.26-3.86.44-5.78a99.08,99.08,0,0,1,10.61-20.41c12.18-17.92,30.43-27.85,49.59-35.83,18.73-7.81,38.27-14.67,53.49-29a63.49,63.49,0,0,0,16.34-26c3.61-10.56,6-21.68,8.22-32.62a245.26,245.26,0,0,0,4.28-26.7c.91-9.74.5-19.58.1-29.34-.11-2.65-1.42,2.47-1.26,2-1.28,4.13-2.29,8.36-3.28,12.57-1.28,5.44-2.47,10.9-3.52,16.39-.58,3-1.68,6.77-1.55,9.91.25,6.09.52,12.24.45,18.37-.16.29-.32.59-.49.87a58,58,0,0,1-9.89,12.14c-14.87,14.48-34.93,21.32-53.49,29-19.32,8-37.15,18-49.59,35.84-15.43,22.11-20.71,50.82-25.78,77-4.35,22.51-7.16,47.08-2.28,69.77,4.37,20.28,19.26,35.11,36.55,44.32,11.56,6.15,24.92,10.66,38.08,10.83,1.8,7.7,3.85,15.35,5.55,23,2.43,11,5.6,21.63,12.18,30.77,26.71,37.11,84.78,31.22,117.21,6.58,34.56-26.25,46.36-73.06,78.21-102.06,19-17.27,48.55-26.66,71.53-12.05.17.11,5.47-19.84,5.72-21,1.11-5,2.16-10,3-15.09C429.56,300.76,430.88,294.78,430.21,294.36ZM184,267.62a204.31,204.31,0,0,1,27-17.49c10-5.44,20.63-9.75,31.92-10.78,20.73-1.89,36.93,12,47.06,29.54a108.67,108.67,0,0,1,11.53,29.81c.12.5.22,1,.32,1.51-5.88,6-14,9.48-22.31,8.42-9.34-1.2-16.7-8.92-21.11-17.05-4.71-8.72-6.19-19-7.53-28.75.08.55-2,5.8-2.1,6-1.35,4.94-2.52,9.94-3.62,14.94-2,9-4.38,18.38-4.61,27.71,0,.63,0,1.25,0,1.88l-.26.08c-9.53,2.7-13.42-8.54-15.88-15.72a158.24,158.24,0,0,1-4.78-17.14c.1-1,.19-2,.25-3a21.4,21.4,0,0,0-2.9-12c-.08-.13-2.23,6.51-2.1,6-1.35,4.94-2.52,9.94-3.63,14.94s-2.15,10-3,15.09c-.13.73-.29,1.52-.42,2.33a214.18,214.18,0,0,1-18.17,22.69C183,333.82,175.38,340,166.6,344.08a46.48,46.48,0,0,1-20.88,4.05c-2.11-8.81-4-17.64-4.23-26.79q0-1,0-2c.31-.7.63-1.4.95-2.09C151.63,297.15,166.92,280.78,184,267.62Z"/><path d="M300.7,417.64,283,440.2s2.74,12.78,9,21.08l24.6-28.73S308,428.2,300.7,417.64Z"/><path d="M290.74,385.5a74.77,74.77,0,0,0,1.64,12.08s-7.15,7-10.2,9.3c0,0,1.69-13.59,3.46-20.83Z"/><path d="M168.47,408s-7.87-7.32-13-20.79c0,0-15.2,3.52-19.34,3.32l6.69,27.88Z"/><path d="M135.73,328.66s-3.18,17-2.84,17.87c0,0,7.55,1.72,12.83,1.6,0,0-3.33-15-3.73-19.68Z"/><path d="M156.44,102.48c-5,.25-9.51,1.77-14.27,1.91a24.3,24.3,0,0,1-7-.72C129,102,128.37,101,130.77,95c1.91-4.69,3-10.18,6.09-13.81,3.36-4,8.62.15,13.13-.08a50.54,50.54,0,0,0,24.9-8.33c-5.28,35.62-33,60.81-67.73,62.09C128.51,130.69,143.66,118.48,156.44,102.48Z"/><path d="M225.85,415.49a31.77,31.77,0,0,0,.9-24.23c-.49-1.4-.91-4.29-2.79-.78-.43.8-.85.4-1.31,0-3.29-2.71-3.54-10-.51-13,1.19-1.19,2.05-.33,2.87.36,4.16,3.49,5.46,8.43,6.16,13.61.24,1.82.15,3.69.49,5.56,1.63-4.32,1.84-8.85,2-13.36a82.94,82.94,0,0,1,.9-10.8,14.93,14.93,0,0,1,1.9-5,4,4,0,0,1,4-2c1.75.09,2.6,1.29,3.15,2.77,1.19,3.19.84,6.5,1,9.86-.42-.11-.69-.1-.72-.19-.87-2.48-2.3-4.32-5.08-3.62s-2.46,3.15-2.43,5.36c.16,11.46-2,22.29-7.85,32.15a16.07,16.07,0,0,1-1.29,1.85C226.78,414.58,226.3,415,225.85,415.49Z"/><path d="M379.44,234.31c-6.24-7.29-6.12-12.83-2.21-20.08a12.14,12.14,0,0,0,.71-2.21c-7.31,6.68-11.81,15.6-16,24.69-3.81,8.16-7.28,16.51-9.15,25.39-1.93,9.13,1.42,12.69,10.2,11.58C379.36,271.6,390.31,247,379.44,234.31ZM364,260.6c-2.76.15-5.82-.17-5-3.93,1.2-5.59,2.38-11.57,7.45-15,1.54-1,11.31,7.51,11.56,9.71C378.4,254.54,369.72,260.27,364,260.6Z"/><path d="M125.11,271.06c2.54-2.77,7.4-7.85,9.85-10.71s4.89-5.77,3.27-9.73c-1.78-4.39-5.77-3.06-9.41-2.82a20.58,20.58,0,0,1,5.92-8.29c3.37-3,7.34-4.71,11.23-1.54s3,7.81,1.23,11.8c-2.78,6.15-7.65,10.57-12.67,14.75-2.06,1.72-4.22,3.32-6.34,5A10.38,10.38,0,0,1,125.11,271.06Z"/><path d="M389.55,385.4c-4.47.23-8.54,1.6-12.81,1.71a21.47,21.47,0,0,1-6.33-.64c-5.53-1.48-6.06-2.44-3.9-7.74,1.71-4.22,2.69-9.14,5.46-12.4,3-3.55,7.74.13,11.79-.08a45.34,45.34,0,0,0,22.35-7.48c-4.74,32-29.67,54.6-60.8,55.74C364.48,410.72,378.07,399.77,389.55,385.4Z"/><path d="M462.86,219.83a47.9,47.9,0,0,0,1.36-36.54c-.75-2.12-1.37-6.48-4.21-1.19-.65,1.21-1.28.61-2,.05-5-4.09-5.35-15-.77-19.6,1.79-1.78,3.09-.48,4.32.56,6.28,5.26,8.24,12.71,9.29,20.52.37,2.75.24,5.57.74,8.37,2.46-6.51,2.78-13.33,3.06-20.14A123.11,123.11,0,0,1,476,155.58a22.52,22.52,0,0,1,2.86-7.57,6,6,0,0,1,6-3c2.64.13,3.9,1.95,4.74,4.18,1.79,4.8,1.26,9.8,1.43,14.87-.62-.16-1-.16-1.08-.29-1.31-3.74-3.48-6.52-7.67-5.45s-3.71,4.74-3.66,8.08c.24,17.27-3,33.61-11.84,48.48a25.62,25.62,0,0,1-1.93,2.79C464.27,218.45,463.54,219.12,462.86,219.83Z"/></g></svg>