<svg id="Layer_1" data-name="Layer 1" xmlns="http://www.w3.org/2000/svg" viewBox="0 0 549.21 367.65"><title>AlmenModstand</title><g id="Layer_19" data-name="Layer 19"><g id="Layer_17" data-name="Layer 17"><path d="M574,349.15H354.93v-212L464.47,39.92,574,137.13ZM388.07,308.2H540.86V153.64L464.47,85.83l-76.4,67.81Z" transform="translate(-24.79 -39.92)" fill="#f90000"/><path d="M517.86,219.14C517.75,213,516,202.19,506.19,203c-4.63.33-21,4.84-30.94,4-5.17-.44-17.61-3.41-20.47,0s-3.08,13.76-2,16.84c.88,2.64,7.81,9.36,15.19,11.45,8.48,2.42,23.34-.55,23.34-.55,3.41.11-.11,1.76-.11,1.76C472.59,241,460,235.4,460,235.4S447.29,230,443.88,221a48.8,48.8,0,0,0-8.37-13.54c-14.42-8.26-23.77,4.62-23.77,4.62-1.88,3.53.88,10,.88,10,3.74,9,13.43,25.87,17.5,29.61s19.93,14.09,19.93,14.09L444.87,407l46.68.55s-2.86-136.06-2.09-139,4.07-4.52,4.07-4.52c6.82-6.93,15.19-4.18,20.47-15.41C518.63,238.4,518,226.62,517.86,219.14Z" transform="translate(-24.79 -39.92)" fill="#f90000"/><path d="M425.39,200s6.71,5.18,12.66,3.42c0,0,9.9-2-6.06-41.61,0,0-15.41-10-20.8,8C411.3,169.82,411.74,188,425.39,200Z" transform="translate(-24.79 -39.92)" fill="#f90000"/><path d="M489.24,199.1c13,7.05,23.88-4.29,24.87-5.06.11,0,.11-.11.11-.22,4.52-5.61-.44-17.5-.44-17.5-3.63-8.81-11.66-7-11.66-7C493.64,171.69,484.39,190.63,489.24,199.1Z" transform="translate(-24.79 -39.92)" fill="#f90000"/><path d="M473.71,199.87c5.51-.33,10-8.58,10-8.58a70.62,70.62,0,0,0,10.46-34.35c-5.73-13.54-20.48-5.61-20.48-5.61-7.37,6.82-7.37,33-7.37,33C465.9,191.07,468.21,200.2,473.71,199.87Z" transform="translate(-24.79 -39.92)" fill="#f90000"/><path d="M459.62,195.8c5.62-7,4.85-29.61,4.85-29.61.33-13.65-3.42-17.83-3.42-17.83C446.19,138,439.26,153,439.26,153c-2.09,8.36,4.07,39.08,4.07,39.08C449.16,205.38,459.62,195.8,459.62,195.8Z" transform="translate(-24.79 -39.92)" fill="#f90000"/><path d="M181.66,264.27a6,6,0,0,1-1.1,2.87,5.7,5.7,0,0,1-2.09,1.65,4,4,0,0,1-2.53.11,5.38,5.38,0,0,1-2.54-1.76,5.08,5.08,0,0,1-1.1-2.76,27.45,27.45,0,0,0-.44-3,66.75,66.75,0,0,0-2.2-8.7c-3.19,0-6.27.11-9.47.11s-6.27,0-9.35.11c-.44,1.33-.88,2.65-1.21,4.08s-.66,2.75-1,4.07c-.22,1-.45,2.09-.67,3.19a5.48,5.48,0,0,1-1.43,2.87,4.57,4.57,0,0,1-2.75,1.76,3.67,3.67,0,0,1-2.64-.55,4.94,4.94,0,0,1-1.87-2.1,6.35,6.35,0,0,1-.55-3.3,21.31,21.31,0,0,1,.88-4.62l1.32-4.62a169.42,169.42,0,0,1,8.92-25.54c.33-.66.66-1.44,1-2.1l1-2c.33-.66.66-1.43,1.1-2.31a23.08,23.08,0,0,1,1.21-2.31,6.7,6.7,0,0,1,1.76-1.76,4.19,4.19,0,0,1,2.42-.77,4.61,4.61,0,0,1,3.2,1.21,44.88,44.88,0,0,1,8.58,11.78c2.2,4.4,4.29,8.8,6.06,13.32h3.19a3.76,3.76,0,0,1,2.75,1.43,4.29,4.29,0,0,1,1.21,2.31,6,6,0,0,1-.22,2.42,5.19,5.19,0,0,1-1.43,2,4.57,4.57,0,0,1-2.31,1.1,45.52,45.52,0,0,1,1.32,5.51l1,5.61v.66ZM166,243.47c-1-2.31-2-4.63-3.08-6.83a47.55,47.55,0,0,0-3.75-6.49c-1,2.2-2,4.51-2.86,6.71s-1.76,4.52-2.53,6.83c2.42,0,4.51-.11,6.27-.11S163.94,243.47,166,243.47Z" transform="translate(-24.79 -39.92)" fill="#f90000"/><path d="M198.5,261.74a9.12,9.12,0,0,1,1.43,2,8.5,8.5,0,0,1,.66,2.43,3.86,3.86,0,0,1-.55,2.2,3.62,3.62,0,0,1-2,1.54,4.83,4.83,0,0,1-2.53.11,13.16,13.16,0,0,1-2.75-.88,11.76,11.76,0,0,1-2.42-1.65,6.79,6.79,0,0,1-1.54-2.1,2,2,0,0,1-.22-.88c0-.33-.11-.66-.11-.88V221.12a3.79,3.79,0,0,1,1.32-3,5.38,5.38,0,0,1,3-1.43,4.2,4.2,0,0,1,1.65.22,11.88,11.88,0,0,1,1.65.88,4.48,4.48,0,0,1,1.21,1.32,3.25,3.25,0,0,1,.55,1.65v35.56c0,2.2,0,3.85-.11,5.06Z" transform="translate(-24.79 -39.92)" fill="#f90000"/><path d="M228.23,244.57v-1.1a4.58,4.58,0,0,0-2.21-2.53,10.48,10.48,0,0,0-3.3-.88,12.34,12.34,0,0,0-1.65.66,4.44,4.44,0,0,0-1.1.88c-.33.33-.55.66-.88,1a12.68,12.68,0,0,0-.88,1.21v20a4.82,4.82,0,0,1-1.43,3.75,5.4,5.4,0,0,1-3.2,1.54,4.3,4.3,0,0,1-3.19-.88c-1-.66-1.43-1.87-1.54-3.53-.11-4-.11-8.36-.11-13.43V234.55a3.6,3.6,0,0,1,1-2.64,5.13,5.13,0,0,1,2.31-1.43,5.85,5.85,0,0,1,2.76,0,4.11,4.11,0,0,1,2.31,1.76,13.16,13.16,0,0,1,8.58-1.32,15.06,15.06,0,0,1,7.7,4.08,19.75,19.75,0,0,1,3.3-2.75,10.15,10.15,0,0,1,8.7-1.43,13.53,13.53,0,0,1,4.51,1.87,14.79,14.79,0,0,1,3.64,3.19,11.19,11.19,0,0,1,2.31,4.19,12.69,12.69,0,0,1,.33,2.75v20.8a8.74,8.74,0,0,1-.22,1.76,4.71,4.71,0,0,1-5.29,3.31,4.39,4.39,0,0,1-3.85-4.74V243.36a5,5,0,0,0-2-2.64,4.93,4.93,0,0,0-2.64-.77,4.49,4.49,0,0,0-2.65,1,5.65,5.65,0,0,0-2,2.53v20a4.64,4.64,0,0,1-1.32,3.42,6,6,0,0,1-3,1.76,4.5,4.5,0,0,1-3-.33,3,3,0,0,1-1.65-2.76Z" transform="translate(-24.79 -39.92)" fill="#f90000"/><path d="M289.87,256.24a5.66,5.66,0,0,1,3.31,0,4.57,4.57,0,0,1,2.2,1.43,3,3,0,0,1,.66,2.42,5,5,0,0,1-1.32,3.08,7,7,0,0,1-2.76,2.2,19.75,19.75,0,0,1-3.3,1.44,38.39,38.39,0,0,1-7.15,1.87,20,20,0,0,1-6.28,0,14.25,14.25,0,0,1-5.5-2.2,20.21,20.21,0,0,1-4.85-4.74,17,17,0,0,1-2.31-4.73,21.93,21.93,0,0,1-.77-5.4,29.48,29.48,0,0,1,.44-5.39,20.52,20.52,0,0,1,1.54-4.84,14.27,14.27,0,0,1,4.19-5,24.81,24.81,0,0,1,6.27-3.52,25.85,25.85,0,0,1,7.05-1.54,13.2,13.2,0,0,1,6.38,1.1A11.87,11.87,0,0,1,294,239.9a10.33,10.33,0,0,1,.11,4.85,8.54,8.54,0,0,1-2.54,4.4,15.82,15.82,0,0,1-4.18,3.08c-1.54.77-3.08,1.44-4.73,2.1a38.64,38.64,0,0,1-5.07,1.54c-1.76.44-3.41.88-5,1.43a7.31,7.31,0,0,0,3.63,2.31,11.33,11.33,0,0,0,4.3.22,22.76,22.76,0,0,0,4.51-1.21,40.44,40.44,0,0,0,4.29-2.09ZM274.46,243a6.5,6.5,0,0,0-2.64,2.53,11.76,11.76,0,0,0-1.21,4.18c1.32-.44,2.86-.88,4.51-1.32s3.19-1,4.74-1.43a31.93,31.93,0,0,0,3.74-1.65c1-.66,1.54-1.32,1.54-2a4.53,4.53,0,0,0-.22-1.21,1.39,1.39,0,0,0-.77-.77,7.52,7.52,0,0,0-4.4-.33,14.34,14.34,0,0,0-3.86,1.32Z" transform="translate(-24.79 -39.92)" fill="#f90000"/><path d="M330.82,264.49a5.36,5.36,0,0,1-4.07,4.74,3.91,3.91,0,0,1-4.79-2.77c0-.08,0-.15,0-.23a12.35,12.35,0,0,1-.55-4.52c.11-1.54.11-3,.11-4.29v-8.26q0-4.12-.33-8.25a.39.39,0,0,0-.11-.22q0-.16-.33-.33a6.32,6.32,0,0,0-3.75.22,14.14,14.14,0,0,0-3.41,1.76,12.2,12.2,0,0,0-2.42,2.75,6.1,6.1,0,0,0-1.21,3.3V259a21.2,21.2,0,0,0,.11,2.64,24.86,24.86,0,0,1-.11,2.86A7,7,0,0,1,309,267a3.85,3.85,0,0,1-2.2,1.65,2.66,2.66,0,0,1-1.55.22,10,10,0,0,1-1.54-.33,3.92,3.92,0,0,1-2-1.54,9.06,9.06,0,0,1-.88-2.43,9.37,9.37,0,0,1-.22-2.42V236.09a3.87,3.87,0,0,1,1-2.75,4.39,4.39,0,0,1,2.31-1.43,5.1,5.1,0,0,1,2.87.11,4.87,4.87,0,0,1,2.53,2,18.48,18.48,0,0,1,6.71-2.64,16.25,16.25,0,0,1,6.94.22,11.07,11.07,0,0,1,5.43,3.4,10.9,10.9,0,0,1,2.31,6.94,3.72,3.72,0,0,0,.11.88c0,.55.11,1.21.11,2.09V264.5Z" transform="translate(-24.79 -39.92)" fill="#f90000"/><path d="M44.28,312.82v-1.1a4.58,4.58,0,0,0-2.21-2.53,10.48,10.48,0,0,0-3.3-.88,12.34,12.34,0,0,0-1.65.66,4.44,4.44,0,0,0-1.1.88c-.33.33-.55.66-.88,1a12.68,12.68,0,0,0-.88,1.21v20a4.79,4.79,0,0,1-1.43,3.74,5.4,5.4,0,0,1-3.2,1.54,4.3,4.3,0,0,1-3.19-.88c-1-.66-1.43-1.87-1.54-3.52-.11-4-.11-8.37-.11-13.43V302.8a3.6,3.6,0,0,1,1-2.64,5.13,5.13,0,0,1,2.31-1.43,5.85,5.85,0,0,1,2.76,0,4.11,4.11,0,0,1,2.31,1.76,13.16,13.16,0,0,1,8.58-1.32,15,15,0,0,1,7.71,4.07,19.75,19.75,0,0,1,3.3-2.75,12.12,12.12,0,0,1,3.86-1.65,12.15,12.15,0,0,1,4.84.22A13.47,13.47,0,0,1,66,300.93a14.37,14.37,0,0,1,3.63,3.19A11.08,11.08,0,0,1,72,308.31a12.69,12.69,0,0,1,.33,2.75v20.81a8.74,8.74,0,0,1-.22,1.76,4.74,4.74,0,0,1-5.29,3.3,4.38,4.38,0,0,1-3.85-4.73V311.61a5,5,0,0,0-2-2.64,4.93,4.93,0,0,0-2.64-.77,4.36,4.36,0,0,0-2.65,1,5.65,5.65,0,0,0-2,2.53v20a4.56,4.56,0,0,1-1.32,3.41,6,6,0,0,1-3,1.76,4.5,4.5,0,0,1-3-.33,3,3,0,0,1-1.65-2.75Z" transform="translate(-24.79 -39.92)" fill="#f90000"/><path d="M77,316.45a23.67,23.67,0,0,1,1.54-4.4A29.82,29.82,0,0,1,80.82,308a19.23,19.23,0,0,1,3.09-3.53,14.64,14.64,0,0,1,3.74-2.64,15.43,15.43,0,0,1,7-1.87,14.51,14.51,0,0,1,6.61,1.43,13.82,13.82,0,0,1,5.17,4.3,15.41,15.41,0,0,1,2.87,6.82,41,41,0,0,1,.44,4.95,18.91,18.91,0,0,1-.55,4.85,21.78,21.78,0,0,1-3.09,7.15,20.53,20.53,0,0,1-5.61,6,17.49,17.49,0,0,1-7.16,3.19,11.71,11.71,0,0,1-7.81-1.21,16,16,0,0,1-3.2-2,14.71,14.71,0,0,1-2.53-2.64,12.58,12.58,0,0,1-2-3.53,39.94,39.94,0,0,1-1.21-3.85,14.05,14.05,0,0,1-.33-4.29c.11-1.43.33-2.87.55-4.3Zm9.25,1.65a19.71,19.71,0,0,0-.33,2.43,8.91,8.91,0,0,0,0,2.42,7.84,7.84,0,0,0,1,3.19,5.61,5.61,0,0,0,1.87,2.31,4.6,4.6,0,0,0,2.75.88,7,7,0,0,0,3.3-1,11.41,11.41,0,0,0,3.86-4.07,13.65,13.65,0,0,0,2-5.73,12,12,0,0,0-.66-5.61,6.11,6.11,0,0,0-4-3.74,7.58,7.58,0,0,0-3.53.77,8.09,8.09,0,0,0-2.75,1.87,18.62,18.62,0,0,0-2.09,2.75,16,16,0,0,0-1.45,3.53Z" transform="translate(-24.79 -39.92)" fill="#f90000"/><path d="M147,328.67a5.09,5.09,0,0,1,.88,4,4.2,4.2,0,0,1-1.76,2.64,5.08,5.08,0,0,1-3.19.66,6,6,0,0,1-3.63-2,14.25,14.25,0,0,1-3.85,2c-1.33.44-2.76.88-4.19,1.21a13.29,13.29,0,0,1-6.6-.11,15.13,15.13,0,0,1-5.62-2.86,14.62,14.62,0,0,1-4-5,15.6,15.6,0,0,1-1.65-6.38,27.71,27.71,0,0,1,.55-7.38,23.61,23.61,0,0,1,2.53-6.38,16.59,16.59,0,0,1,4.62-5,18.31,18.31,0,0,1,6.83-2.86,21.73,21.73,0,0,1,4.62-.44,32.56,32.56,0,0,1,4.63.33c0-1.1-.11-2.42-.11-3.85V293c0-1.44,0-2.65.11-3.75a17.84,17.84,0,0,1,.33-2.31,3.89,3.89,0,0,1,1.65-2.09,4.78,4.78,0,0,1,2.31-.77,5,5,0,0,1,2.42.66,4.63,4.63,0,0,1,1.87,2c.11.22.22.55.33.77a1.6,1.6,0,0,1,.22.77c0,6.72.11,13.32,0,19.82v19.8C146.65,328.23,146.76,328.45,147,328.67Zm-10.67-4.29a2.59,2.59,0,0,1,.55-.44.6.6,0,0,0,.44-.66V317c0-2.09,0-4.18-.11-6.27a19.43,19.43,0,0,0-7.71-.11,9.49,9.49,0,0,0-3.41,1.54,7.73,7.73,0,0,0-2.53,3.08c-.33,1-.55,2-.88,2.86a13.29,13.29,0,0,0-.44,2.87,11.56,11.56,0,0,0,.33,2.75,6.28,6.28,0,0,0,1.32,2.53,4.4,4.4,0,0,0,.77.66c.33.22.88.55,1.65,1.1a14.44,14.44,0,0,0,5.39-.55,9.94,9.94,0,0,0,4.61-3.08Z" transform="translate(-24.79 -39.92)" fill="#f90000"/><path d="M153.37,329.66a5.19,5.19,0,0,1-.33-2.53,4,4,0,0,1,.66-2.31,4,4,0,0,1,1.65-1.65,4.72,4.72,0,0,1,2.64-.44,3.6,3.6,0,0,1,1.54.44,5,5,0,0,1,1.21.88l1.11,1.1a6,6,0,0,0,1.21,1.1,9.25,9.25,0,0,0,2.75,1.43,13.54,13.54,0,0,0,3.08.66,3,3,0,0,0,1.76-.55,2.19,2.19,0,0,0,.88-1.32,4.18,4.18,0,0,0,.11-1.65,2.86,2.86,0,0,0-.55-1.43,6,6,0,0,0-3.19-1.65,25.62,25.62,0,0,1-8-2.86,10.71,10.71,0,0,1-5.39-7.82,13.47,13.47,0,0,1,.33-4.73,11.71,11.71,0,0,1,2.2-4.19,12.6,12.6,0,0,1,3.63-3.19,9.69,9.69,0,0,1,3.53-1.21,17.17,17.17,0,0,1,7.7.66,27.73,27.73,0,0,1,3.53,1.21,5.94,5.94,0,0,1,2.75,2.42,5.52,5.52,0,0,1,.88,3.08,3.66,3.66,0,0,1-1.1,2.76,3.81,3.81,0,0,1-3,1.1,4.81,4.81,0,0,1-2.21-.44,11.9,11.9,0,0,0-2.09-.77,19.42,19.42,0,0,0-3-.77,5,5,0,0,0-2.64.22c-.22,0-.44.22-.66.55a4.24,4.24,0,0,0-.55,1,4.48,4.48,0,0,0-.11,1.21,1.38,1.38,0,0,0,.77,1,15.93,15.93,0,0,0,4,1.54c1.43.33,2.75.77,4.07,1.21a22.86,22.86,0,0,1,3.75,1.76,9.6,9.6,0,0,1,2.86,3.09,13.68,13.68,0,0,1,1.76,6.05,15.53,15.53,0,0,1-1.21,5.94,12.25,12.25,0,0,1-3.85,4.74,11,11,0,0,1-6,2.31,15.92,15.92,0,0,1-4.62-.22,16.53,16.53,0,0,1-4.41-1.65,24.28,24.28,0,0,1-4-2.64,21.93,21.93,0,0,1-3.19-3.2Z" transform="translate(-24.79 -39.92)" fill="#f90000"/><path d="M192.45,309.3a6,6,0,0,1-2.64-1.32,5.4,5.4,0,0,1-1.54-2.09,3.38,3.38,0,0,1,0-2.54,5.45,5.45,0,0,1,1.87-2.42,4.14,4.14,0,0,1,2.75-.88h3c0-.33,0-1.1-.11-2.31a24.23,24.23,0,0,1,0-4c.11-1.47.11-2.76.22-4.08a5,5,0,0,1,.88-2.75,4.1,4.1,0,0,1,3.74-2,4.69,4.69,0,0,1,3.75,2.2,2.38,2.38,0,0,1,.55.88,1.59,1.59,0,0,1,.22,1c0,1.87.11,3.64,0,5.51V300h6a3.89,3.89,0,0,1,2.42.88A6.28,6.28,0,0,1,215,303a4.88,4.88,0,0,1,.22,2.54,3.17,3.17,0,0,1-1.21,2.09,7.05,7.05,0,0,1-4.08,1.54c-1.54,0-3.19.11-4.84.11v17c0,1.21.11,2.53.22,3.74a13.08,13.08,0,0,1-.22,3.64,4.22,4.22,0,0,1-3.41,3.19,6,6,0,0,1-2.43-.11A7.72,7.72,0,0,1,197,335.5a3.25,3.25,0,0,1-.77-1.87,10.69,10.69,0,0,1-.33-2.76V309.41Z" transform="translate(-24.79 -39.92)" fill="#f90000"/><path d="M253.22,331.42a4.45,4.45,0,0,1-.23,3.64,4.07,4.07,0,0,1-2.31,2,4.86,4.86,0,0,1-3.3-.11,6.45,6.45,0,0,1-3.08-2.42,14.38,14.38,0,0,1-4.18,2.31,18.61,18.61,0,0,1-4.63.77,19.39,19.39,0,0,1-6.93-.88,13.46,13.46,0,0,1-5.18-3.08,12.23,12.23,0,0,1-3.08-5.18,18.39,18.39,0,0,1-.66-7.15c.11-1.1.33-2.2.55-3.31a16.78,16.78,0,0,1,1-3.19,27,27,0,0,1,1.76-3.63,21,21,0,0,1,2.31-3.3,22.25,22.25,0,0,1,10.35-7.27,23.24,23.24,0,0,1,2.86-.66,14.29,14.29,0,0,1,3.75-.22,13.93,13.93,0,0,1,3.63.55,4.64,4.64,0,0,1,2.53,1.65,9.54,9.54,0,0,1,1,1.65,3.37,3.37,0,0,1,.33,1.43V318.9a16.25,16.25,0,0,0,.11,2.31,14.93,14.93,0,0,0,.22,2.31,17.59,17.59,0,0,0,.33,1.76ZM237,328c.55-.33,1.21-.77,1.87-1.21a8.45,8.45,0,0,0,1.88-1.54,50.66,50.66,0,0,1-.78-8.15c-.11-2.75-.11-5.39,0-8.14a12.91,12.91,0,0,0-6.16,3,12.23,12.23,0,0,0-3.85,5.61,24.33,24.33,0,0,0-.77,2.65,7.12,7.12,0,0,0-.22,2.64,5.23,5.23,0,0,0,2.86,4.73,5.08,5.08,0,0,0,2.53.66A6.72,6.72,0,0,0,237,328Z" transform="translate(-24.79 -39.92)" fill="#f90000"/><path d="M289.21,332.75a5.36,5.36,0,0,1-4.07,4.73,3.91,3.91,0,0,1-4.79-2.77c0-.08,0-.15-.05-.23a12.35,12.35,0,0,1-.55-4.52c.11-1.54.11-3,.11-4.29v-8.26q0-4.12-.33-8.25a.39.39,0,0,0-.11-.22c0-.11-.11-.22-.34-.33a6.29,6.29,0,0,0-3.74.22,14.14,14.14,0,0,0-3.41,1.76,12.2,12.2,0,0,0-2.42,2.75,6.1,6.1,0,0,0-1.21,3.3v10.57a21.2,21.2,0,0,0,.11,2.64,25,25,0,0,1-.11,2.87,7.13,7.13,0,0,1-.88,2.53,3.75,3.75,0,0,1-2.21,1.65,2.64,2.64,0,0,1-1.54.22,10,10,0,0,1-1.54-.33,3.92,3.92,0,0,1-2-1.54,9.12,9.12,0,0,1-.88-2.42,9.45,9.45,0,0,1-.22-2.43V304.34a3.87,3.87,0,0,1,1-2.75,4.39,4.39,0,0,1,2.31-1.43,5.06,5.06,0,0,1,2.86.11,4.85,4.85,0,0,1,2.54,2,18.48,18.48,0,0,1,6.71-2.64,16.25,16.25,0,0,1,6.94.22,10.19,10.19,0,0,1,7.7,10.35,3.72,3.72,0,0,0,.11.88c0,.55.11,1.21.11,2.09v19.6Z" transform="translate(-24.79 -39.92)" fill="#f90000"/><path d="M328.84,328.67a5.09,5.09,0,0,1,.88,4,4.2,4.2,0,0,1-1.76,2.64,5.08,5.08,0,0,1-3.19.66,6,6,0,0,1-3.63-2,14.17,14.17,0,0,1-3.86,2c-1.32.44-2.75.88-4.18,1.21a13.29,13.29,0,0,1-6.6-.11,15.13,15.13,0,0,1-5.62-2.86,14.62,14.62,0,0,1-4-5,15.6,15.6,0,0,1-1.65-6.38,27.71,27.71,0,0,1,.55-7.38,23.61,23.61,0,0,1,2.53-6.38,16.59,16.59,0,0,1,4.62-5,18.31,18.31,0,0,1,6.83-2.86,21.73,21.73,0,0,1,4.62-.44,32.56,32.56,0,0,1,4.63.33c0-1.1-.11-2.42-.11-3.85V293c0-1.44,0-2.65.11-3.75a17.84,17.84,0,0,1,.33-2.31,3.89,3.89,0,0,1,1.65-2.09,4.78,4.78,0,0,1,2.31-.77,5,5,0,0,1,2.42.66,4.63,4.63,0,0,1,1.87,2c.11.22.22.55.33.77a1.6,1.6,0,0,1,.22.77c0,6.72.11,13.32,0,19.82v19.8A3.42,3.42,0,0,1,328.84,328.67Zm-10.57-4.29a2.18,2.18,0,0,1,.56-.44.6.6,0,0,0,.44-.66V317c0-2.09,0-4.18-.11-6.27a19.43,19.43,0,0,0-7.71-.11,9.49,9.49,0,0,0-3.41,1.54,7.73,7.73,0,0,0-2.53,3.08c-.34,1-.56,2-.89,2.86a13.29,13.29,0,0,0-.44,2.87,11.56,11.56,0,0,0,.33,2.75,6.11,6.11,0,0,0,1.33,2.53,4.4,4.4,0,0,0,.77.66c.33.22.88.55,1.65,1.1a14.44,14.44,0,0,0,5.39-.55A9.82,9.82,0,0,0,318.27,324.38Z" transform="translate(-24.79 -39.92)" fill="#f90000"/></g></g></svg>