<svg xmlns="http://www.w3.org/2000/svg" viewBox="0 0 600 478"><defs><style>.cls-1{fill:#fff;}.cls-2{fill:#1d1a38;}.cls-3{fill:#1c1a3b;}.cls-4{fill:#95c026;}</style></defs><title>Dhaabasmatak</title><g id="Calque_19" data-name="Calque 19"><path class="cls-1" d="M279.62,61.1s12.86-21.51,29.28-11.56,54.23,36.82,54.23,36.82l75.14,55s30.35,15.88,22.89,33.19S350.85,329.68,350.85,329.68s-47.45-17.42-80.53-41.8S182,228.17,177.53,212.25s40.81-62.2,40.81-62.2Z"/><path class="cls-1" d="M279.78,61.58s12.8-21.43,29.16-11.52,54,36.68,54,36.68l74.85,54.79s30.24,15.81,22.81,33.06-109.9,154.56-109.9,154.56-47.27-17.35-80.22-41.64-88-59.49-92.44-75.35,40.65-62,40.65-62Z"/><path class="cls-2" d="M466.31,159.94c-2.07-4.38-5.8-7.13-9.56-9.87q-24.42-17.81-48.8-35.69-47.11-34.56-94.27-69.13a19.24,19.24,0,0,0-11.25-3.88c-8.53-.23-14.17,3.59-18.67,9.76Q265,76.86,246.16,102.46q-33.74,46-67.5,92c-8.32,11.35-6.34,23.41,4.76,31.54q71.39,52.28,142.69,104.66c12.1,8.89,23.79,7.16,32.64-5q28.67-39.14,57.38-78.25,24-32.73,47.94-65.45C469.18,175.07,470,167.75,466.31,159.94Zm-23.25,14.57c-14.06,22-28.29,43.9-42.46,65.85q-22.1,34.26-44.17,68.52c-3.88,6.05-9.24,9.32-16.34,9.57a20.47,20.47,0,0,1-10.55-3.35q-57.12-36.9-114.28-73.78c-6.78-4.38-13.61-8.72-20.39-13.13-9.78-6.38-12.18-17.19-5.88-26.95q43.22-67,86.48-134c6.7-10.37,17.55-12.58,27.9-5.92Q370.17,104.51,437,147.63C446.73,153.89,449.34,164.7,443.06,174.51Z"/><path class="cls-3" d="M338.85,203.3c3-3.87,5.37-7,7.85-10.13s5.92-4.64,9.88-3.51,5.58,4.52,5.79,8.25c.36,6.08.27,12.18.29,18.28,0,12.06,0,24.13,0,36.19,0,.4,0,.8,0,1.2.1,1-.06,2.35,1.38,2.46s1.54-1.19,1.61-2.24c.22-3.43.54-6.87.55-10.31.06-15.91,0-31.82,0-47.74a32.67,32.67,0,0,1,.11-3.57,3.16,3.16,0,0,1,3.25-2.89c1.76-.16,3.25.39,3.7,2.25a18.38,18.38,0,0,1,.48,4.31q0,28.64,0,57.28c0,9.93-4.89,13.42-14.31,10.26a3.77,3.77,0,0,0-2.68-.27c-6.37,2.42-12.8,1.27-19.22.29a9.07,9.07,0,0,0-5.07.39,7,7,0,0,1-5.42.37,7.76,7.76,0,0,0-5.8,0c-.49.19-1.1.49-1.53.35-5.5-1.83-11.16.68-16.65-.66a5.52,5.52,0,0,0-3.12.06c-.63.21-1.36.63-1.91.46-6.81-2-13.67.71-20.43-.2-6.59-.89-9.77-4.27-9.89-10.91-.27-15.77-.11-31.55-.11-47.33,0-2.3,1-3.85,3.49-3.89,2.89,0,4,1.6,4,4.28l.09,38.59c0,2.25,0,4.51,0,6.76.09,3.47,1.8,5.44,5.39,5.52s5.33-1.57,5.43-5.37c.23-8.47.35-17,.49-25.43.31-18,.42-36.07,0-54.1-.24-9.54-.13-19.06.12-28.59.06-2.45-.17-5,3.37-5.1s4,2.58,4.05,5.14c.09,11.54,0,23.07,0,34.61q0,36.39.19,72.79c0,1.73-1,4.87,1.8,4.75,2.51-.11,1.67-3.18,1.68-5,.06-18.3,0-36.6,0-54.9,0-1.19,0-2.39.08-3.57a3.23,3.23,0,0,1,3.07-3.11,3.27,3.27,0,0,1,4,2.41,17.62,17.62,0,0,1,.47,4.71c0,18.16-.07,36.33,0,54.49,0,1.77-.92,4.89,1.72,4.84,2.2,0,1.22-3.07,1.23-4.75.08-18,0-36.07.05-54.1a39.72,39.72,0,0,1,.14-4.37c.72-6.63,3.57-8.87,10.78-8.62,5.44.2,8.25,3.25,8.28,9.5.07,18.83,0,37.66,0,56.49a41.88,41.88,0,0,0,.26,4.75,1.57,1.57,0,0,0,1.62,1.47,1.6,1.6,0,0,0,1.56-1.53,30.36,30.36,0,0,0,.15-3.57q0-27.25,0-54.5c0-.93,0-1.86,0-2.79,0-2.47,1.07-4.14,3.75-4.14s3.7,1.84,3.79,4.19C338.94,196.68,338.85,199.59,338.85,203.3Zm15.57,23.06h-.06c0-8.47,0-16.93,0-25.4,0-1.41.39-3.24-1.3-3.84s-2.53,1.18-3.28,2.29c-6.33,9.43-11.66,19.18-10.93,31.17.36,5.8.06,11.64.07,17.46,0,7.81.71,8.51,8.58,8.47.66,0,1.32-.07,2-.07,3.73.06,5.07-1.82,5-5.47C354.31,242.77,354.42,234.57,354.42,226.36Zm-34.28-2c0-9.68,0-19.35,0-29,0-1.39.35-3.38-1.66-3.48-2.47-.13-1.9,2.12-1.9,3.55q-.07,28.83,0,57.65c0,1.47-.42,3.76,1.83,3.72s1.72-2.31,1.73-3.8C320.17,243.44,320.14,233.9,320.14,224.36Z"/><path class="cls-4" d="M257,241.19c-5.54-2-8.66-6.42-11.45-11-4.92-8.12-7.09-17.16-7.78-26.46-1.17-15.83.53-31.21,8-45.59,3.94-7.56,8.76-14.22,16.23-18.6,2.93-1.72,3.87-3.21,1.75-6.77-5.94-9.95-3.32-25.18,4.86-32.63,2.37-2.15,4.25-2.14,6.46.09,6.76,6.83,8.9,15.63,10.26,24.81-1.36-2.91-2.83-5.78-4.06-8.75a42.5,42.5,0,0,0-6.55-10.39c-2.34-2.91-3.75-2.89-6-.06-6.33,8.09-3.33,22.51,8.94,23.84,9,1,16.71-1.69,24.09-6.28.92-.58,1.76-2.08,3.05-1,1,.78.81,2.18.77,3.37-.14,3.71-2.52,5.55-5.63,6.95-3.33,1.51-3.44,3-.26,4.78,4.58,2.58,9.6,1.66,14.39.87s9.27-2.21,13.89-3.42a32.83,32.83,0,0,1,8.66-1c2.87,0,4.47.87,3.06,4.06-.41.94-1.25,2,0,2.79,1,.64,2.06,0,3-.52a7.69,7.69,0,0,0,3.53-5.12c3.65-18.34,23.94-22.25,38.69-9.89a28.56,28.56,0,0,1,8.33,10.49c2.2,5.11-.4,9.38-5.92,9.56-8.23.26-16.35,1.53-24.5,2.54a151.76,151.76,0,0,1-21.42.71c-2.61,0-4.31-1-5-3.56-.74-2.91-2.62-3.68-5.43-3.08-6.35,1.34-12.71,2.68-19.1,3.78A41.81,41.81,0,0,1,304,146c-4.38-.09-7.77-1.95-9.06-6.35-1-3.52-3-3.94-6.3-3.21-20.49,4.54-36.09,15.66-44.26,35.13-6.3,15-6.17,30.69-.7,46.25,2.87,8.15,7.58,15.11,12.57,22A10.07,10.07,0,0,1,257,241.19ZM367.49,125.33c-10.39,0-17.73,5-20.24,12.48-.84,2.48-.32,3.95,2.51,3.86a263.52,263.52,0,0,0,32.35-3.24c3.3-.52,3.8-2,1.66-4.61A22.47,22.47,0,0,0,367.49,125.33Z"/><path class="cls-2" d="M273.61,160.7c-.24,2.92-2.05,4.83-3.91,6.75-4.14,4.28-3.84,5.54,1.74,8a52.59,52.59,0,0,1,5.78,2.57c4.82,2.87,4.83,8.16,0,11.1a13.15,13.15,0,0,1-4.41,1.65c-1.61.28-4.08,1.68-4.75.09-.87-2,2.08-2.08,3.33-3,2.16-1.56,2-3.2.52-5-1.68-2.07-4.17-2.66-6.53-3.52-2.79-1-5.38-2.19-5.87-5.7s1.55-5.64,4.23-7.37,5-3.37,6.41-6.29c.46-1,.15-2.95,1.64-2.73C273.46,157.43,273.34,159.37,273.61,160.7Z"/><path class="cls-4" d="M300.5,178.17c-1.26-.79-2.76-1.43-3.09-3.21a4.57,4.57,0,0,1,1.8-4.9,3.91,3.91,0,0,1,4.47-.32,3.83,3.83,0,0,1,2.1,4.67c-.82,2.58-1.17,4.88,0,7.54.82,2-.08,3.94-2.2,4.93a4,4,0,0,1-5-1.11,4.19,4.19,0,0,1-.36-5.47A12.65,12.65,0,0,1,300.5,178.17Z"/><path class="cls-2" d="M344,107.17c.05-1.67.27-3.39,1.85-4.14,1.77-.83,2.47,1.06,3.46,2,1.64,1.52,3.19,3.15,4.71,4.8,1.81,2,1.07,3.69-.45,5.57-1.77,2.18-3.11.51-4.37-.31C346.32,113.21,344.14,110.81,344,107.17Z"/><path class="cls-4" d="M374.6,271.68c-.05,2.05-1.18,4-4.19,4-2.58,0-3.84-1.63-3.94-4.08-.11-2.85,1.24-4.6,4.21-4.58C373.2,267,374.61,268.34,374.6,271.68Z"/><path class="cls-2" d="M109.2,409.57c-3.35,0-5.92-.85-7.69-2.56s-2.66-4.16-2.66-7.35a21.67,21.67,0,0,1,1.38-7.46h4.16a34.36,34.36,0,0,0-.84,7.08,6.24,6.24,0,0,0,1.47,4.38,5.21,5.21,0,0,0,4,1.59H128.9V367.52h4.7v37.73H141c.18,0,.27.07.27.22v3.83a.24.24,0,0,1-.27.27Zm1.89-19.75,2.59-.38a4,4,0,0,1-1.94-3.48,4.58,4.58,0,0,1,1.54-3.68,6.09,6.09,0,0,1,4.11-1.32,7.81,7.81,0,0,1,3.64.83l-.81,2.49a5.43,5.43,0,0,0-2.78-.68,3.07,3.07,0,0,0-2,.69,3.13,3.13,0,0,0-.35,3.76,2.94,2.94,0,0,0,1.17,1c.44-.09,1.34-.23,2.71-.42a25,25,0,0,1,2.83-.29V391c-.3,0-1.11.06-2.43.2s-2.29.25-2.92.34q-4.78.68-5.32.78Z"/><path class="cls-2" d="M140.41,409.57a.24.24,0,0,1-.27-.27v-3.83c0-.15.09-.22.27-.22h9V382.74h4.92v22.51h8.3c.18,0,.27.07.27.22v3.83a.24.24,0,0,1-.27.27Zm6.59-32.1a3.27,3.27,0,0,1-2.2-.78,4,4,0,0,1,0-5.09,3.27,3.27,0,0,1,2.2-.78,3,3,0,0,1,2.25.85,4.1,4.1,0,0,1,0,4.93A3,3,0,0,1,147,377.47Zm9.57,0a3,3,0,0,1-2.27-.87,3.36,3.36,0,0,1-.84-2.45,3.4,3.4,0,0,1,.83-2.46,3,3,0,0,1,2.28-.87,2.91,2.91,0,0,1,2.3.91,4,4,0,0,1,0,4.83A2.91,2.91,0,0,1,156.57,377.47Z"/><path class="cls-2" d="M162.06,409.57a.24.24,0,0,1-.27-.27v-3.83c0-.15.09-.22.27-.22h6.86a26.88,26.88,0,0,1-2-9.46,18.84,18.84,0,0,1,2-8.81,16.21,16.21,0,0,1,4.65-2.7,15.06,15.06,0,0,1,5.46-1,11.86,11.86,0,0,1,6.08,1.53,10.09,10.09,0,0,1,4,4.33,14.05,14.05,0,0,1,1.41,6.38,17.81,17.81,0,0,1-1.16,6.51,6.79,6.79,0,0,0,2.66,2.52,9,9,0,0,0,3.88.7h.27c.19,0,.29.07.29.22v3.83c0,.18-.1.27-.29.27h-.27a13.88,13.88,0,0,1-5-.81,11.35,11.35,0,0,1-4-2.78,11,11,0,0,1-4.09,2.72,13.9,13.9,0,0,1-4.88.87Zm9.78-14.72a27.23,27.23,0,0,0,.46,5,28.06,28.06,0,0,0,1.65,5.36h3.92a6.79,6.79,0,0,0,5.67-2.51q2-2.52,2-7.27a8.41,8.41,0,0,0-1.91-5.7,5.9,5.9,0,0,0-4.63-2.22,10,10,0,0,0-3.45.62,11.34,11.34,0,0,0-3,1.65,8.22,8.22,0,0,0-.57,2.36C171.88,393,171.84,393.87,171.84,394.85Z"/><path class="cls-2" d="M195.59,409.57a.24.24,0,0,1-.26-.27v-3.83c0-.15.09-.22.26-.22h6.76V384.39h4.7v10.24a22.94,22.94,0,0,1,6.52-9.32,13.74,13.74,0,0,1,8.81-3.14q6.27,0,9.47,3.41t3.2,10.64v9h7.3c.2,0,.29.07.29.22v3.83c0,.18-.09.27-.29.27Zm34.76-4.32v-8.78q0-5.12-2.23-7.51t-6.74-2.41q-8.52,0-14.33,14.16v4.54Z"/><path class="cls-2" d="M241.81,409.57a.24.24,0,0,1-.27-.27v-3.83c0-.15.09-.22.27-.22h7.29V382.74H254v26.83Zm9.51,11.08a3,3,0,0,1-2.27-.86,3.4,3.4,0,0,1-.84-2.46,3.44,3.44,0,0,1,.83-2.46,3,3,0,0,1,2.28-.86,2.94,2.94,0,0,1,2.3.9,4,4,0,0,1,0,4.84A2.94,2.94,0,0,1,251.32,420.65Z"/><path class="cls-2" d="M282.75,416.66a11.76,11.76,0,0,1,2-6.53,23.15,23.15,0,0,1,6.4-6.1,39.66,39.66,0,0,1-6.67-8.39,24,24,0,0,1-3.35-8.6,23.11,23.11,0,0,1,6.82-4.46,19.54,19.54,0,0,1,7.74-1.62,23.68,23.68,0,0,1,7,1.1,22.62,22.62,0,0,1,6.19,2.95,22.86,22.86,0,0,1-2.68,10.26,26.79,26.79,0,0,1-7.4,8.71,15.86,15.86,0,0,0,6.27,1.27h6.7c.18,0,.27.07.27.22v3.83a.24.24,0,0,1-.27.27h-6.48a19.08,19.08,0,0,1-5.08-.83,25.86,25.86,0,0,1-5.33-2.11,19.27,19.27,0,0,0-5.54,4.8,8.25,8.25,0,0,0-1.59,4.79c0,2.36.68,4.1,2.05,5.2s3.5,1.67,6.41,1.67a29.61,29.61,0,0,0,4.18-.29c1.34-.19,2.65-.39,3.95-.6L305,426q-4,.83-6.16,1.08a41.62,41.62,0,0,1-4.59.24q-5.36,0-8.42-2.81A10.11,10.11,0,0,1,282.75,416.66Zm3.7-28.16a20.58,20.58,0,0,0,3,6.75,27.09,27.09,0,0,0,5.54,6.24,22.22,22.22,0,0,0,6.4-6.35,16.85,16.85,0,0,0,2.47-7.81,16.77,16.77,0,0,0-8-2.05A16.55,16.55,0,0,0,286.45,388.5Z"/><path class="cls-2" d="M311.23,409.57a.24.24,0,0,1-.27-.27v-3.83c0-.15.09-.22.27-.22H318V384.39h4.7v10.24a22.94,22.94,0,0,1,6.52-9.32,13.72,13.72,0,0,1,8.8-3.14q6.27,0,9.48,3.41t3.2,10.64v13.35ZM346,405.25v-8.78c0-3.41-.75-5.91-2.23-7.51s-3.74-2.41-6.74-2.41q-8.52,0-14.33,14.16v4.54Zm-9.52-27.78a3,3,0,0,1-2.26-.87,3.36,3.36,0,0,1-.84-2.45,3.4,3.4,0,0,1,.82-2.46,3,3,0,0,1,2.28-.87,2.91,2.91,0,0,1,2.3.91,4,4,0,0,1,0,4.83A2.91,2.91,0,0,1,336.47,377.47Z"/><path class="cls-2" d="M391.31,409.57q-6.65,0-10.35-3.36t-3.7-9.42q0-6.54,4.1-10.29t11.06-3.76h3.64v-3.49h4.73v26h6.3c.18,0,.27.07.27.22v3.83a.24.24,0,0,1-.27.27Zm4.75-4.32V387h-3.48q-5,0-7.69,2.55a9.34,9.34,0,0,0-2.72,7.15,8.21,8.21,0,0,0,2.36,6.32,9.41,9.41,0,0,0,6.67,2.19Zm-7.62-31.1a3.26,3.26,0,0,1-2.2-.79,4,4,0,0,1,0-5.08,3.25,3.25,0,0,1,2.2-.78,3,3,0,0,1,2.25.85,3.37,3.37,0,0,1,.83,2.47,3.43,3.43,0,0,1-.82,2.46A3,3,0,0,1,388.44,374.15Zm9.57,0a3,3,0,0,1-2.27-.87,3.4,3.4,0,0,1-.84-2.46,3.44,3.44,0,0,1,.83-2.46,3,3,0,0,1,2.28-.86,2.94,2.94,0,0,1,2.3.9,4,4,0,0,1,0,4.84A3,3,0,0,1,398,374.15Z"/><path class="cls-2" d="M406.55,409.57a.24.24,0,0,1-.27-.27v-3.83c0-.15.09-.22.27-.22h9V382.74h4.92v22.51h8.3c.18,0,.27.07.27.22v3.83a.24.24,0,0,1-.27.27Zm6.81,11.08a3.25,3.25,0,0,1-2.2-.78,4,4,0,0,1,0-5.08,3.25,3.25,0,0,1,2.2-.78,3,3,0,0,1,2.24.85,3.37,3.37,0,0,1,.84,2.47,3.43,3.43,0,0,1-.82,2.46A3,3,0,0,1,413.36,420.65Zm9.57,0a3,3,0,0,1-2.27-.86,3.4,3.4,0,0,1-.84-2.46,3.43,3.43,0,0,1,.82-2.46,3,3,0,0,1,2.29-.86,2.92,2.92,0,0,1,2.29.9,4,4,0,0,1,0,4.84A2.92,2.92,0,0,1,422.93,420.65Z"/><path class="cls-2" d="M455.14,409.57a20,20,0,0,1-5-.68,23.41,23.41,0,0,1-5.24-2.07,20.55,20.55,0,0,1-10.3,2.75h-6.4a.24.24,0,0,1-.27-.27v-3.83c0-.15.09-.22.27-.22h6.35a17,17,0,0,0,6.59-1.11,21.66,21.66,0,0,1-4.36-4.44,33.22,33.22,0,0,1-3.79-6.27,25.31,25.31,0,0,1-2-6.39,23.16,23.16,0,0,1,6.83-4.46,19.54,19.54,0,0,1,7.74-1.62,23.73,23.73,0,0,1,7,1.1,22.41,22.41,0,0,1,6.18,2.95,23.12,23.12,0,0,1-2.64,10.81,22.5,22.5,0,0,1-7.3,8.27,17.37,17.37,0,0,0,6.13,1.16h6.71c.18,0,.27.07.27.22v3.83a.24.24,0,0,1-.27.27ZM445,401.66a20.82,20.82,0,0,0,6.35-6.35,17.22,17.22,0,0,0,2.35-8,16.74,16.74,0,0,0-8-2.05,16.52,16.52,0,0,0-9.4,3.22,21.28,21.28,0,0,0,3.13,7.24A24.22,24.22,0,0,0,445,401.66Z"/><path class="cls-2" d="M461.08,409.57a.24.24,0,0,1-.26-.27v-3.83c0-.15.09-.22.26-.22H468a26.88,26.88,0,0,1-2.05-9.46,18.84,18.84,0,0,1,2-8.81,16.29,16.29,0,0,1,4.64-2.7,15.14,15.14,0,0,1,5.46-1,11.81,11.81,0,0,1,6.08,1.53,10.11,10.11,0,0,1,4,4.33,14.05,14.05,0,0,1,1.41,6.38,17.61,17.61,0,0,1-1.17,6.51,6.86,6.86,0,0,0,2.66,2.52,9.1,9.1,0,0,0,3.88.7h.27c.2,0,.3.07.3.22v3.83q0,.27-.3.27h-.27a13.83,13.83,0,0,1-5-.81,11.35,11.35,0,0,1-4-2.78,10.92,10.92,0,0,1-4.1,2.72,13.86,13.86,0,0,1-4.88.87Zm9.79-14.72a27.23,27.23,0,0,0,.46,5,26.7,26.7,0,0,0,1.65,5.36h3.91a6.81,6.81,0,0,0,5.68-2.51q2-2.52,2-7.27a8.4,8.4,0,0,0-1.9-5.7,5.9,5.9,0,0,0-4.64-2.22,10,10,0,0,0-3.44.62,11.56,11.56,0,0,0-3,1.65,8.54,8.54,0,0,0-.56,2.36C470.9,393,470.87,393.87,470.87,394.85Z"/><path class="cls-2" d="M494.62,409.57a.24.24,0,0,1-.27-.27v-3.83c0-.15.09-.22.27-.22h23.73q-2-2-3.48-10.13c-.55-3.19-1.33-5.43-2.36-6.71a5.57,5.57,0,0,0-4.62-1.91,17.1,17.1,0,0,0-8,2.21L498,384.9a15.44,15.44,0,0,1,4.79-2.13,21.64,21.64,0,0,1,5.21-.6,11.83,11.83,0,0,1,5.64,1.22A8.84,8.84,0,0,1,517.2,387a21.11,21.11,0,0,1,2,6.85,41.54,41.54,0,0,0,1.83,7.63,9.81,9.81,0,0,0,2.33,3.88v4.21Zm13.16,11.08a3,3,0,0,1-2.27-.86,4.08,4.08,0,0,1,0-4.92,3,3,0,0,1,2.28-.86,2.93,2.93,0,0,1,2.3.9,4,4,0,0,1,0,4.84A2.93,2.93,0,0,1,507.78,420.65Z"/></g></svg>