<svg xmlns="http://www.w3.org/2000/svg" viewBox="0 0 600 406"><defs><style>.cls-1{fill:#8cc63f;}</style></defs><title>Artboard 1</title><g id="Layer_16" data-name="Layer 16"><path class="cls-1" d="M416.69,111.43l-2.82-2.58-50.94-46.7-1-.9L359.48,59H242.15l-2.55,2.25-1.06,1-50,44.4-2.45,2.25-2.85,2.64L181.57,113l4.46,4.45L293.17,224.63l4.18,4.19,1.61,1.6,1.6-1.58.38-.38,3.69-3.64L413.76,117.46l2.93-2.88,1.66-1.63ZM359.48,76.81l32.45,29.79H347.51Zm-12.27-4.7-11.38,28.3-23-28.3ZM323.94,106.6H277.53l21.81-30.25ZM286.19,72.11,266.24,99.84,254.53,72.11Zm-44.06,4.43,12.7,30.06H208.27ZM206.8,119.71H260l24.66,77.82Zm92.59,81L273.7,119.71h54.74Zm15.48-4.32,27.53-76.63h50.37Z"/><path class="cls-1" d="M308.74,347c107.68-17.36,109.61-141.43,109.61-141.43C307.13,234.5,308.74,347,308.74,347Z"/><path class="cls-1" d="M179.37,205.57S181.3,329.64,289,347C289,347,290.59,234.5,179.37,205.57Z"/><rect class="cls-1" x="294.87" y="238.56" width="8.24" height="108.44"/></g></svg>