<svg xmlns="http://www.w3.org/2000/svg" viewBox="0 0 601 601"><title>Artboard 18</title><g id="Layer_3" data-name="Layer 3"><path d="M456.15,342.34A107.47,107.47,0,0,1,355.3,441.07c-.34-4-.58-7.92-1.22-11.88a95.37,95.37,0,1,0-27.59-187.88V441.07H312.15v-195a96.06,96.06,0,0,0-41.38,33.62V441.07H207.89V31l62.88,12.05V260.77a107.85,107.85,0,0,1,41.38-27.51v-180l14.34,3.54V229.08A107.23,107.23,0,0,1,456.15,342.34Z"/><path d="M111.54,502.26h10.65l-12.9,64.47H98.64Z"/><path d="M138.45,502.26H156.9c12.62,0,20.86,4.73,20.86,14.47,0,8.08-6.43,14.08-14.19,16.13l-.12.39c6.9,1.62,11.47,5.72,11.47,12.58,0,14.75-12.1,20.9-27.32,20.9h-22Zm9.15,56.23c10.64,0,17-3.91,17-12.19,0-5.87-4.34-9.58-12.54-9.58h-9.9l-4.41,21.77Zm3.9-29.18c10.61,0,15.38-4.42,15.38-10.85,0-5-3.79-8-12.15-8h-7.29l-3.79,18.81Z"/><path d="M197,502.26h10.65l-5.33,26.1h25.52l5.2-26.1h10.65l-12.9,64.47H220.15L226,537.67H200.51l-5.76,29.06H184.11Z"/><path d="M252.92,546.52H264.1v1.23h-9.75v8.18h8.24v1.23h-8.24V567h-1.43Z"/><path d="M274.12,546.52h1.43V565.8H285V567H274.12Z"/><path d="M295,546.52h11.22v1.23h-9.79v7.78h8.22v1.23h-8.22v9h10.1V567H295Z"/><path d="M321.05,556.42l-5.73-9.9h1.55l3.39,6.05c.54.93,1,1.66,1.65,2.8H322c.6-1.14,1-1.87,1.52-2.8l3.37-6.05h1.47l-5.73,10L328.82,567h-1.55l-3.58-6.3c-.55-1-1.15-2-1.88-3.25h-.12c-.66,1.24-1.21,2.24-1.76,3.25l-3.56,6.3H314.9Z"/><path d="M349.73,564.32l.93-1a8,8,0,0,0,6,2.78c3.13,0,5.1-1.68,5.1-4.12s-1.67-3.38-3.69-4.29L355,556.31c-1.79-.79-4.16-2.07-4.16-5.11s2.55-5.05,6-5.05a7.83,7.83,0,0,1,5.72,2.46l-.83.95a6.51,6.51,0,0,0-4.89-2.11c-2.71,0-4.52,1.45-4.52,3.67,0,2.39,2,3.29,3.54,4l3.11,1.39c2.3,1,4.32,2.29,4.32,5.43s-2.59,5.52-6.57,5.52A9,9,0,0,1,349.73,564.32Z"/><path d="M373.88,546.52h11.23v1.23h-9.8v7.78h8.23v1.23h-8.23v9h10.11V567H373.88Z"/><path d="M396.26,546.52h5.87c4.08,0,6.75,1.5,6.75,5.42,0,3.74-2.67,5.68-6.75,5.68H397.7V567h-1.44Zm5.49,9.89c3.63,0,5.65-1.44,5.65-4.47s-2-4.21-5.65-4.21H397.7v8.68Zm.06.79,1.37-.41L409.27,567h-1.66Z"/><path d="M417.16,546.52h1.52l3.79,12c.79,2.51,1.33,4.4,2.17,6.89h.12c.84-2.49,1.39-4.38,2.17-6.89l3.79-12h1.45L425.46,567h-1.54Z"/><path d="M441.65,546.52h1.43V567h-1.43Z"/><path d="M454.15,556.74c0-6.51,3.55-10.59,8.76-10.59a7.09,7.09,0,0,1,5.34,2.45l-.84,1a5.86,5.86,0,0,0-4.48-2.11c-4.5,0-7.28,3.58-7.28,9.27s2.75,9.39,7.16,9.39a6.58,6.58,0,0,0,5.18-2.53l.84.9a7.6,7.6,0,0,1-6.1,2.93C457.68,567.41,454.15,563.26,454.15,556.74Z"/><path d="M479.38,546.52H490.6v1.23h-9.79v7.78H489v1.23h-8.22v9h10.1V567H479.38Z"/></g></svg>