<svg xmlns="http://www.w3.org/2000/svg" viewBox="0 0 600 478"><defs><style>.cls-1{fill:#427bbe;}.cls-2{opacity:0.6;}.cls-3{fill:#010202;}.cls-4{fill:#fff;}.cls-5{fill:#21244d;}</style></defs><title>Artboard 4</title><g id="Layer_6" data-name="Layer 6"><circle class="cls-1" cx="298.11" cy="209.89" r="138.89"/><g class="cls-2"><rect class="cls-3" x="362.98" y="160.32" width="27.56" height="25.85"/><rect class="cls-3" x="333.44" y="160.32" width="25.57" height="25.85"/><rect class="cls-3" x="302.19" y="160.32" width="27.27" height="25.85"/><path class="cls-3" d="M394,160.32V249.9c4.32.82,12.22,2.91,15,4.9,0,0,6.17,4.95,10,6.65h.2V160.32Zm23.58,81.11c-4,0-11.37,1.33-21,4V239c3.41-2.29,4-3,2-2.15-.62-.81-.94-2.43-.94-4.87a11.09,11.09,0,0,1,.75-4.21,8.54,8.54,0,0,1,7.77-5.86q5.52-.6,10.3,4.08l-5.4,3.59a8.35,8.35,0,0,0-3.34-1.06c-1.64,0-2.46,1.15-2.46,3.46a3.15,3.15,0,0,0,2,2.72,70.89,70.89,0,0,1,10.33-1.63Z"/><path class="cls-3" d="M208.5,250.61a3.59,3.59,0,0,1,2.72-1.31,2.61,2.61,0,0,0,1.79-1.15,3.6,3.6,0,0,1,3.52-1.74s4.88.48,6.43-.5a11.21,11.21,0,0,1,6-2.31s1.33.14,10.82-5.06c0,0,13.14-6.94,15.6-8.31,0,0,10.28-6.29,15.93-4.7a22.06,22.06,0,0,0,7.56,1l17.59-.29s4.64-.29,6.24-1.3c0,0,3.05-1.44,8,.58l7.23,3.4a5,5,0,0,0,2.33.43s2.19-.72,8.09,3.47a9.19,9.19,0,0,0,8.23.29s2.66-1.16,4.25-.44c0,0,.95.69,1.59.22,0,0,2.88-.49,6.84,2.24a16.85,16.85,0,0,0,6.37,3,30,30,0,0,1,6.83,2.24,61.48,61.48,0,0,0,10.62,2.39s5.67,1,7.3,1.23a11.85,11.85,0,0,1,5.91,2.74,11.73,11.73,0,0,0,4.25,2.53V190.15H363V222h-4v-30.4H333.44V222h-4v-30.4H302.19V222h-4.55v-30.4H267.81v-5.4h29.83V160.32H241.11V216h30.11v6H235.71V160.32h-25V222h-4.55v-30.4H180v69.88s9.75-8.68,21-8.68C201.06,252.77,205.71,253.06,208.5,250.61Z"/><path class="cls-3" d="M394,250v.48l-3.41-1.14h0a11.84,11.84,0,0,1-4.25-2.53,11.8,11.8,0,0,0-5.9-2.74c-1.64-.22-7.3-1.23-7.3-1.23a61.78,61.78,0,0,1-10.62-2.38,29.58,29.58,0,0,0-6.84-2.24,17,17,0,0,1-6.37-3c-4-2.73-6.84-2.24-6.84-2.24-.64.47-1.59-.21-1.59-.21-1.59-.73-4.25.43-4.25.43a9.17,9.17,0,0,1-8.22-.29c-5.91-4.19-8.1-3.47-8.1-3.47A4.91,4.91,0,0,1,318,229l-7.24-3.4c-4.91-2-8-.58-8-.58-1.59,1-6.24,1.3-6.24,1.3l-17.59.29a22.12,22.12,0,0,1-7.56-1c-5.64-1.59-15.93,4.7-15.93,4.7-2.46,1.37-15.6,8.31-15.6,8.31-9.49,5.2-10.81,5.06-10.81,5.06a11.16,11.16,0,0,0-6,2.31c-1.56,1-6.44.51-6.44.51a3.58,3.58,0,0,0-3.52,1.73,2.62,2.62,0,0,1-1.79,1.16,3.56,3.56,0,0,0-2.72,1.3c-2.79,2.45-7.43,2.16-7.43,2.16-11.29,0-21,8.69-21,8.69h239c-3.88-1.71-10.05-6.66-10.05-6.66C406.26,252.9,398.35,250.81,394,250Z"/></g><rect class="cls-4" x="361.94" y="158.75" width="27.56" height="25.85"/><rect class="cls-4" x="332.39" y="158.75" width="25.57" height="25.85"/><rect class="cls-4" x="301.14" y="158.75" width="27.27" height="25.85"/><path class="cls-4" d="M392.9,158.75v89.58c4.33.83,12.23,2.91,15,4.9,0,0,6.18,5,10.05,6.66h.2V158.75Zm23.58,81.12c-4,0-11.36,1.33-21,4v-6.4c3.41-2.28,4-3,2-2.15-.63-.81-.94-2.43-.94-4.86a11.11,11.11,0,0,1,.75-4.22,8.53,8.53,0,0,1,7.77-5.86q5.52-.6,10.29,4.09L410,228a8.43,8.43,0,0,0-3.33-1.06c-1.65,0-2.47,1.16-2.47,3.47a3.13,3.13,0,0,0,2,2.71,71.84,71.84,0,0,1,10.32-1.62Z"/><path class="cls-4" d="M207.45,249a3.56,3.56,0,0,1,2.72-1.3,2.65,2.65,0,0,0,1.8-1.16,3.56,3.56,0,0,1,3.51-1.73s4.88.47,6.44-.51a11.3,11.3,0,0,1,6-2.31s1.32.14,10.82-5.06c0,0,13.14-6.94,15.59-8.31,0,0,10.29-6.29,15.93-4.7a21.87,21.87,0,0,0,7.57,1l17.58-.28s4.65-.29,6.24-1.3c0,0,3.05-1.45,8,.57l7.24,3.4a4.91,4.91,0,0,0,2.32.43s2.19-.72,8.1,3.47a9.19,9.19,0,0,0,8.23.29s2.65-1.16,4.24-.43c0,0,1,.68,1.6.21,0,0,2.88-.49,6.83,2.24a17,17,0,0,0,6.37,3,30,30,0,0,1,6.84,2.24A62.08,62.08,0,0,0,372,241.16s5.66,1,7.3,1.23a11.76,11.76,0,0,1,5.9,2.75,11.74,11.74,0,0,0,4.25,2.52V188.58H361.94V220.4h-4V190H332.39v30.4h-4V190H301.14v30.4H296.6V190H266.77v-5.4H296.6V158.75H240.06v55.68h30.11v6H234.66V158.75h-25V220.4h-4.54V190H179v69.89s9.76-8.68,21-8.68C200,251.21,204.66,251.49,207.45,249Z"/><path class="cls-5" d="M393,248.42v.48l-3.4-1.14h0a11.73,11.73,0,0,1-4.25-2.53,11.81,11.81,0,0,0-5.91-2.75c-1.64-.22-7.3-1.23-7.3-1.23a62.08,62.08,0,0,1-10.62-2.38,30,30,0,0,0-6.83-2.24,16.92,16.92,0,0,1-6.37-3c-4-2.74-6.84-2.24-6.84-2.24-.65.47-1.59-.22-1.59-.22-1.6-.72-4.25.43-4.25.43a9.15,9.15,0,0,1-8.23-.29c-5.91-4.19-8.1-3.47-8.1-3.47a4.94,4.94,0,0,1-2.32-.43l-7.23-3.4c-4.91-2-8-.57-8-.57-1.59,1-6.24,1.3-6.24,1.3l-17.58.29a22,22,0,0,1-7.57-1c-5.64-1.58-15.93,4.7-15.93,4.7-2.45,1.37-15.59,8.31-15.59,8.31-9.5,5.2-10.82,5.06-10.82,5.06a11.3,11.3,0,0,0-6,2.31c-1.55,1-6.44.51-6.44.51a3.56,3.56,0,0,0-3.51,1.73,2.64,2.64,0,0,1-1.79,1.16,3.57,3.57,0,0,0-2.73,1.3c-2.78,2.46-7.43,2.17-7.43,2.17-11.28,0-21,8.68-21,8.68h239c-3.87-1.7-10.05-6.66-10.05-6.66C405.21,251.33,397.31,249.25,393,248.42Z"/><path class="cls-5" d="M130.94,416.67v-33.6h7v33.6Z"/><path class="cls-5" d="M173,404.9a13.76,13.76,0,0,1-4.56,9.27,14.62,14.62,0,0,1-10,3.42q-7.09,0-11.27-4.72T143,400.07q0-8.25,4.18-13.09a14.14,14.14,0,0,1,11.27-4.83,15.09,15.09,0,0,1,9.91,3.24,12.93,12.93,0,0,1,4.62,8.77h-7a6.32,6.32,0,0,0-2.34-4.31,7.87,7.87,0,0,0-5.09-1.6,7.1,7.1,0,0,0-6.13,3.11c-1.47,2.08-2.2,5-2.2,8.66s.73,6.4,2.2,8.43a7.17,7.17,0,0,0,6.13,3.05,7.39,7.39,0,0,0,5.09-1.77,7.3,7.3,0,0,0,2.34-4.83Z"/><path class="cls-5" d="M178.08,416.67v-33.6h7v12.59h13.13V383.07h7v33.6h-7V401.46H185.1v15.21Z"/><path class="cls-5" d="M212.66,416.67v-33.6h7V397l12.88-13.93h9l-13.43,13.74,14.32,19.86h-9.19l-10.12-14.79-3.42,3.5v11.29Z"/><path class="cls-5" d="M246,416.67v-33.6H270.7v6H253v7.15h16.42V402H253v8.75h18.5v6Z"/><path class="cls-5" d="M304.12,404q0,7.2-3.18,10.39t-10.38,3.19c-4.6,0-8-1.1-10.23-3.32S277,408.63,277,404V383.07h7v21.18a7.9,7.9,0,0,0,1.62,5.41,6.32,6.32,0,0,0,4.94,1.81c2.35,0,4-.55,5-1.67s1.5-3,1.5-5.55V383.07h7Z"/><path class="cls-5" d="M311,416.67v-33.6h7v27.64h16.71v6Z"/><path class="cls-5" d="M378,424.78a12.43,12.43,0,0,1-6.22-1.5,10,10,0,0,1-4-4.23,13.58,13.58,0,0,1-1.39-6.26,21.86,21.86,0,0,1,.59-5,19.56,19.56,0,0,1,1.61-4.52h5.64a39.05,39.05,0,0,0-1.07,4.82,30.75,30.75,0,0,0-.39,4.69,7.42,7.42,0,0,0,1.56,5,5.15,5.15,0,0,0,4.14,1.85h1.28q3.3,0,4.85-1.78a7.42,7.42,0,0,0,1.56-5V382h6.38v27.38h5.58c.14,0,.21.06.21.17v4.76a.19.19,0,0,1-.21.21h-5.62q-.78,10.29-12.59,10.28Z"/><path class="cls-5" d="M397.62,414.5a.19.19,0,0,1-.21-.21v-4.76c0-.11.07-.17.21-.17h16.74v-6.88a4.72,4.72,0,0,0-1.78-4,8,8,0,0,0-5-1.38h-7.28v-4.64a26,26,0,0,1,6.39-8.43,28.88,28.88,0,0,1,9.58-5.59l2.34,5.73a25.6,25.6,0,0,0-7,3.32A16.63,16.63,0,0,0,406.9,392h1.63q12.21,0,12.2,9.68v7.69h5.56c.14,0,.21.06.21.17v4.76a.19.19,0,0,1-.21.21Z"/><path class="cls-5" d="M425.88,414.5a.19.19,0,0,1-.21-.21v-4.76c0-.11.07-.17.21-.17h5.35V396.65h6.37v12.71h3.64a3.84,3.84,0,0,0,3.12-1.18,5.84,5.84,0,0,0,1-3.77v-7.76h6.37v8.26a12.69,12.69,0,0,1-.13,1.92,7,7,0,0,0,2.09,2,5.76,5.76,0,0,0,2.7.56H459V393.31h6.38V414.5h-8.9a9.2,9.2,0,0,1-6.71-3.22,8.36,8.36,0,0,1-7.15,3.22ZM445,388.73a2.71,2.71,0,0,1-2.09-.82,3.14,3.14,0,0,1-.77-2.25,3.21,3.21,0,0,1,.76-2.27,2.72,2.72,0,0,1,2.1-.82,2.68,2.68,0,0,1,2.09.82,3.25,3.25,0,0,1,.75,2.27,3.14,3.14,0,0,1-.78,2.25A2.7,2.7,0,0,1,445,388.73Zm3.64-6.9a2.45,2.45,0,0,1-1.73-.64,2.6,2.6,0,0,1-.7-2,2.29,2.29,0,0,1,2.43-2.59,2.33,2.33,0,0,1,1.77.69,2.59,2.59,0,0,1,.67,1.9,2.69,2.69,0,0,1-.66,1.89A2.29,2.29,0,0,1,448.64,381.83Zm3.65,6.9a2.76,2.76,0,0,1-2.11-.82,3.72,3.72,0,0,1,0-4.52,2.75,2.75,0,0,1,2.12-.82,2.69,2.69,0,0,1,2.06.81,3.19,3.19,0,0,1,.77,2.28,3.15,3.15,0,0,1-.79,2.25A2.67,2.67,0,0,1,452.29,388.73Z"/><path class="cls-5" d="M472,425l2.45-.4a3.6,3.6,0,0,1-1.4-1.16,2.8,2.8,0,0,1-.55-1.74,3.47,3.47,0,0,1,1.28-2.84,5.26,5.26,0,0,1,3.45-1.05,7.18,7.18,0,0,1,3.51.78l-.86,2.17a5.35,5.35,0,0,0-2.32-.57,1.94,1.94,0,0,0-2,2.07,2.08,2.08,0,0,0,1.28,1.93l.77-.13c1.39-.22,2.55-.37,3.47-.44v2.49c-1,.07-2.7.24-5.05.52s-3.67.46-4,.55Zm1.38-43h6.38V414.5h-6.38Z"/></g></svg>