<svg xmlns="http://www.w3.org/2000/svg" viewBox="0 0 600 478"><defs><style>.cls-1,.cls-3{fill:#39b54a;}.cls-2{font-size:71.94px;font-family:Roboto-Black, Roboto;font-weight:800;}.cls-3{font-family:Roboto-Light, Roboto;font-weight:300;}</style></defs><title>Artboard 7</title><g id="Layer_2" data-name="Layer 2"><path class="cls-1" d="M427.3,152.12A21.55,21.55,0,0,0,420.6,137l-9.29-8.67L389.1,107.6,362.24,82.53,339,60.79c-3.75-3.51-7.47-7-11.25-10.51l-.16-.15a17.3,17.3,0,0,0-7.37-4.42,18.26,18.26,0,0,0-8.82-1.84c-6.07.25-11.8,2.17-16.18,6.26l-9.29,8.67L263.68,79.54l-26.86,25.08-23.28,21.74c-3.75,3.5-7.55,7-11.25,10.5l-.16.15-3.58,4.33-2.32,5.18-.81,5.6a15.26,15.26,0,0,0,2,8.24,10.46,10.46,0,0,0,2.94,4.71,11.13,11.13,0,0,0,4.1,3.84,11.59,11.59,0,0,0,5.05,2.74,17.4,17.4,0,0,0,4.34,1.48v86.54c0,5,0,9.91,0,14.86v.22a15.33,15.33,0,0,0,2,8.23,16,16,0,0,0,4.73,6.87,24.63,24.63,0,0,0,16.15,6.25h27.7c0-.43-.09-.88-.17-1.34h16.53s-.13.51-.44,1.34h86.75c6,0,12.07,0,18.11,0h.25a18.17,18.17,0,0,0,8.8-1.83,17.43,17.43,0,0,0,7.35-4.42c4.11-4.18,6.69-9.32,6.69-15.1V173.25a17.9,17.9,0,0,0,5-1.6,17.38,17.38,0,0,0,7.37-4.41C424.6,163.16,427.57,157.82,427.3,152.12Zm-41.39.11V275H236.81V152.23H218.24l93.12-86.95,93.12,86.95Z"/><ellipse class="cls-1" cx="275.37" cy="218.38" rx="14.74" ry="13.76"/><ellipse class="cls-1" cx="311.65" cy="218.38" rx="14.74" ry="13.76"/><ellipse class="cls-1" cx="347.36" cy="218.38" rx="14.74" ry="13.76"/><path class="cls-1" d="M248.34,313.79c22.7,3.09,30.23-12.88,32-17.69H264.38C265.3,308.54,248.34,313.79,248.34,313.79Z"/><text class="cls-2" transform="translate(100.12 428.56) scale(1.07 1)">NABO<tspan class="cls-3" x="196.22" y="0">SNAK</tspan></text></g></svg>