<svg xmlns="http://www.w3.org/2000/svg" viewBox="0 0 600 600"><title>Artboard 5</title><g id="Layer_15" data-name="Layer 15"><path d="M447,568c-65.8-.71-87.21-23.41-125.55-64.07-8.66-9.17-18.47-19.59-30.29-31.38-24.4-24.41-45-37.08-60-43.65V567h-58V367.21l25.56-3c5.55-.64,52.09-4.19,115.26,50.41a54.05,54.05,0,0,0,43.91-53V351.34a54,54,0,0,0-54-54H171.35l-43-58H303.9a112.07,112.07,0,0,1,112,112v10.22a112,112,0,0,1-57,97.5c1.64,1.71,3.25,3.43,4.79,5.09C399.38,502,406.55,509.66,447,510Z"/><path d="M456.3,81.15,390.43,204.31H169.19L103.33,81.15l80.16,22.34a33.66,33.66,0,1,0,42-16.39l54.28-54.28L332.5,85.51a33.66,33.66,0,1,0,40,33.05,33.05,33.05,0,0,0-2.75-13.31Z"/></g></svg>