<svg xmlns="http://www.w3.org/2000/svg" viewBox="0 0 598 599"><defs><style>.cls-1{fill:#e81f1b;}.cls-2{fill:#ed3f45;}.cls-3{fill:#fdf5f5;}.cls-4{fill:#fcf3f3;}.cls-5{fill:#f9dede;}.cls-6{fill:#fcf4f4;}.cls-7{fill:#e9312e;}.cls-8{fill:#fff;}</style></defs><title>TnTounsi</title><g id="Layer_21" data-name="Layer 21"><g id="aiPxzW"><path class="cls-1" d="M326,84.1q17.39-3.94,34.75-7.88,10.51-2.35,21-4.59c5.74-1.22,8.4.93,8.41,6.67V241l-.41.1c-.29-1.07-.59-2.14-.86-3.22-3.75-14.58-14.95-23.31-30-24.24-14.89-.92-27.77,4.13-39.93,11.95l-3.91,2.52c0-3.72-.09-7,0-10.33.06-1.73-.49-2.26-2.24-2.25q-16,.11-32,0c-1.83,0-2.2.62-2.2,2.3q.06,57.16,0,114.33c0,1.94.56,2.39,2.42,2.38,11.09-.08,22.19-.12,33.28,0,2.47,0,3-.68,3-3.07-.09-24.55,0-49.1-.11-73.65a5.47,5.47,0,0,1,2.53-5.1c4.89-3.43,9.68-7.12,15.56-8.55,11.19-2.71,15.1,1.18,16,10.8.35,3.57.49,7.17.5,10.76,0,21.88.07,43.76,0,65.64,0,2.58.64,3.21,3.19,3.18,10.89-.16,21.78,0,32.67-.11,1.95,0,2.65.41,2.58,2.5-.18,5.33-.11,10.68-.14,16-9.37-.61-18.74-1.59-28.12-1.72-10.75-.15-21.51-.21-32.28.34-13.48.68-26.89,1.68-40.3,3.18-11.86,1.33-23.67,3-35.39,5.17a493.67,493.67,0,0,0-77,20.25c-1,.34-2.39.17-2.57,1.74a26.75,26.75,0,0,1-7.54-1.36,5.51,5.51,0,0,1-4.16-5.17c-.06-.61,0-1.23,0-1.85q0-93.35,0-186.69c0-.92.07-1.84.11-2.76a62.27,62.27,0,0,0,9.7-1.21A389.26,389.26,0,0,0,229.19,170c22.58-7,44.41-15.7,64.49-28.33,12.09-7.6,23.52-16.09,31.05-28.66C330.34,103.66,332.2,94,326,84.1Zm-26.4,118.53c1.21.3,2.13,2.21,3.68.71a1.33,1.33,0,0,0,0-2.12c-1.55-1.5-2.47.41-3.68.71-.45-1.53-1.54-1.5-2.54-.8a1.35,1.35,0,0,0,0,2.3C298.07,204.13,299.16,204.16,299.61,202.63ZM365,184.05c-.45-1.53-1.53-1.5-2.54-.8a1.35,1.35,0,0,0,0,2.3c1,.71,2.09.74,2.54-.79,1.22.29,2.13,2.2,3.68.7a1.31,1.31,0,0,0,0-2.11C367.08,181.84,366.17,183.76,365,184.05ZM250.81,179.6C238,184.9,225.76,190,213.45,195.05c-1.46.59-1.27,1.65-1.27,2.76,0,7.18-.08,14.37,0,21.56,0,1.93-.54,2.43-2.42,2.37-4.51-.13-9,0-13.55-.07-1.55,0-2.14.32-2.12,2q.13,11.55,0,23.1c0,1.9.71,2.17,2.33,2.13,4.1-.1,8.23.19,12.31-.1,3-.21,3.44.89,3.47,3.57.16,18.37-.69,36.75.47,55.12.92,14.72,7.52,23.85,20.45,27.49,13.39,3.76,27,3.27,40.57,1,1.44-.25,2.08-.76,2.06-2.36q-.1-12.63,0-25.26c0-2-.66-2.07-2.37-1.76a54.22,54.22,0,0,1-11,1.34c-7.86-.2-11.62-4.07-11.62-11.94,0-14.68.07-29.36-.08-44,0-2.67.8-3.2,3.28-3.13,6.36.18,12.73,0,19.09.09,1.81,0,2.75-.2,2.7-2.43-.14-7.49-.12-15,0-22.48,0-2-.65-2.37-2.47-2.34-6.57.1-13.14-.07-19.71.1-2.3.05-2.9-.54-2.88-2.86C250.88,206,250.81,193,250.81,179.6ZM327,199.52c2.77,0,5.55-.13,8.31,0,9.75.55,9.76-2.57,9.74-10.56,0-1.58-.66-1.85-2-1.85s-2.18.24-2,1.84c.1,1-.11,2.08,0,3.08.47,3.09-1.37,3-3.66,3.23-3.12.34-2.18-1.59-2.22-3.08a38.12,38.12,0,0,1,0-4c.13-1.6-.46-2.13-2.08-2.15-1.81,0-2,.86-1.95,2.29.07,1.64,0,3.28,0,4.92,0,1.47-.73,2-2.13,1.93-1.61,0-1.06-1.16-1.08-2-.05-1.54-.09-3.08,0-4.62s-.49-1.91-1.94-1.94c-1.61,0-1.89.71-1.82,2.06.07,1.53,0,3.08,0,4.62,0,1.76-1.22,1.85-2.55,1.84-1.72,0-.92-1.21-.93-2,0-1.43,0-2.87.1-4.3s-.26-2.24-2-2.26-2,.79-2,2.24,0,3.08,0,4.62c0,.94-.4,1.6-1.43,1.63s-1.49-.62-1.52-1.55a44.87,44.87,0,0,1,0-4.92c.14-1.69-.54-2.35-2.16-2.63-5.58-1-8,.81-8.65,6.47-.11.92.31,2.13-1,2.63-3.55,1.34-6.29-.62-5.91-4.35.11-1,.09-1.64-1.07-1.62-.94,0-2.05-.72-2.71.61-1.61,3.21.29,8.25,3.53,9.35,6.49,2.21,10.22,0,11-6.68.12-1,.38-1.85,1.44-2.09,2.15-.49,1.68,1.13,1.71,2.26.19,6,1.1,6.89,7.11,6.89Zm24.87.29c-2.77-.21-3.63.81-2.81,3.36a1.62,1.62,0,0,0,2.06,1.26c2.32-.3,4.51-1.1,5.78-3.08a3.81,3.81,0,0,1,3.77-1.86c4.54,0,6.29-1.72,6.51-6.27.08-1.43-.06-2.87.05-4.3.13-1.66-.79-1.76-2.07-1.79s-2.11.36-2,1.9a27.22,27.22,0,0,1,0,3.38c0,1.29.3,2.75-1.84,2.8-1.73,0-2.76-.09-2.88-2.31a7.65,7.65,0,0,0-2.74-5.34,3.49,3.49,0,0,0-4.51-.44,8.57,8.57,0,0,0-4,7.51C347.18,197.63,349.12,198.94,351.9,199.81Zm-8.54-17.55c-1,0-1.7.31-1.81,1.3a1.44,1.44,0,0,0,1.58,1.76,1.54,1.54,0,0,0,.23-3.06Z"/><path class="cls-2" d="M174.45,382c.18-1.57,1.62-1.4,2.57-1.74A493.67,493.67,0,0,1,254,360c11.72-2.15,23.53-3.84,35.39-5.17,13.41-1.5,26.82-2.5,40.3-3.18,10.77-.55,21.53-.49,32.28-.34,9.38.13,18.75,1.11,28.12,1.72q0,34,.06,68.07c0,3.93-3.31,6-8,5.08-5.83-1.15-11.64-2.42-17.46-3.65l-188.3-39.84C175.73,382.5,175,382.54,174.45,382Z"/><path class="cls-2" d="M326,84.1c6.19,9.93,4.33,19.56-1.28,28.91-7.53,12.57-19,21.06-31.05,28.66C273.6,154.3,251.77,163,229.19,170a389.26,389.26,0,0,1-56.64,12.91,62.27,62.27,0,0,1-9.7,1.21q-.06-29.7-.09-59.4c0-3.36,1.78-5.25,5.4-6q31.8-7,63.6-14.06,45.62-10,91.23-20C324,84.36,325,84.26,326,84.1Z"/><path class="cls-3" d="M327,199.52h-9.85c-6,0-6.92-.9-7.11-6.89,0-1.13.44-2.75-1.71-2.26-1.06.24-1.32,1.07-1.44,2.09-.78,6.64-4.51,8.89-11,6.68-3.24-1.1-5.14-6.14-3.53-9.35.66-1.33,1.77-.6,2.71-.61,1.16,0,1.18.61,1.07,1.62-.38,3.73,2.36,5.69,5.91,4.35,1.34-.5.92-1.71,1-2.63.65-5.66,3.07-7.45,8.65-6.47,1.62.28,2.3.94,2.16,2.63a44.87,44.87,0,0,0,0,4.92c0,.93.49,1.58,1.52,1.55s1.41-.69,1.43-1.63c0-1.54.08-3.08,0-4.62s.18-2.25,2-2.24,2.1.78,2,2.26-.12,2.87-.1,4.3c0,.76-.79,1.95.93,2,1.33,0,2.54-.08,2.55-1.84,0-1.54.07-3.09,0-4.62-.07-1.35.21-2.08,1.82-2.06,1.45,0,2,.45,1.94,1.94s-.06,3.08,0,4.62c0,.8-.53,1.93,1.08,2,1.4,0,2.15-.46,2.13-1.93,0-1.64.06-3.28,0-4.92-.06-1.43.14-2.31,1.95-2.29,1.62,0,2.21.55,2.08,2.15a38.12,38.12,0,0,0,0,4c0,1.49-.9,3.42,2.22,3.08,2.29-.25,4.13-.14,3.66-3.23-.15-1,.06-2.06,0-3.08-.16-1.6.67-1.83,2-1.84s2,.27,2,1.85c0,8,0,11.11-9.74,10.56C332.58,199.39,329.8,199.52,327,199.52Z"/><path class="cls-4" d="M351.9,199.81c-2.78-.87-4.72-2.18-4.68-5.18a8.57,8.57,0,0,1,4-7.51,3.49,3.49,0,0,1,4.51.44,7.65,7.65,0,0,1,2.74,5.34c.12,2.22,1.15,2.35,2.88,2.31,2.14-.05,1.81-1.51,1.84-2.8a27.22,27.22,0,0,0,0-3.38c-.13-1.54.56-1.94,2-1.9s2.2.13,2.07,1.79c-.11,1.43,0,2.87-.05,4.3-.22,4.55-2,6.29-6.51,6.27a3.81,3.81,0,0,0-3.77,1.86c-1.27,2-3.46,2.78-5.78,3.08a1.62,1.62,0,0,1-2.06-1.26C348.27,200.62,349.13,199.6,351.9,199.81Zm1.3-4.57c.66-.3,2,.52,1.8-.9s-.43-3.14-2.1-3.31c-1.14-.11-1.86,1.26-2,2.39C350.78,195,352.19,194.94,353.2,195.24Z"/><path class="cls-5" d="M365,184.05c1.22-.29,2.13-2.21,3.68-.7a1.31,1.31,0,0,1,0,2.11c-1.55,1.5-2.46-.41-3.68-.7Z"/><path class="cls-5" d="M299.61,201.93c1.21-.3,2.13-2.21,3.68-.71a1.33,1.33,0,0,1,0,2.12c-1.55,1.5-2.47-.41-3.68-.71Z"/><path class="cls-6" d="M343.36,182.26a1.54,1.54,0,0,1-.23,3.06,1.44,1.44,0,0,1-1.58-1.76C341.66,182.57,342.36,182.24,343.36,182.26Z"/><path class="cls-6" d="M365,184.05v.71c-.45,1.53-1.53,1.5-2.54.79a1.35,1.35,0,0,1,0-2.3C363.42,182.55,364.5,182.52,365,184.05Z"/><path class="cls-6" d="M299.61,201.93v.7c-.45,1.53-1.54,1.5-2.54.8a1.35,1.35,0,0,1,0-2.3C298.07,200.43,299.16,200.4,299.61,201.93Z"/><path class="cls-7" d="M353.2,195.24c-1-.3-2.42-.24-2.27-1.82.11-1.13.83-2.5,2-2.39,1.67.17,1.93,2,2.1,3.31S354,195.33,353.2,195.24Z"/></g><path class="cls-1" d="M138,515v-39H123.61v-8.43h38.58v8.43H147.87v39Z"/><path class="cls-1" d="M176.85,515h-9.24V467.51H178l19,33.28V467.51h9.28V515h-9.87L176.85,480.8Z"/><path class="cls-1" d="M226.31,502H213.43v-7.61h12.88V481.58h7.6v12.83h12.84V502H233.91v12.84h-7.6Z"/><path class="cls-1" d="M278.21,492.85a18.1,18.1,0,0,0-1.35,3.53,14.9,14.9,0,0,0-.58,4,11.92,11.92,0,0,0,.28,2.19,4.25,4.25,0,0,0,.91,1.81,4.46,4.46,0,0,0,1.91,1.23,10,10,0,0,0,3.25.44l8.83,0v-9.69a17,17,0,0,1,.89-5.69,11,11,0,0,1,2.61-4.21,11.34,11.34,0,0,1,4.22-2.6,17,17,0,0,1,5.71-.89l6.6.15a4.11,4.11,0,0,1,1.79.39,4.57,4.57,0,0,1,1.42,1,4.9,4.9,0,0,1,1,1.5,4.71,4.71,0,0,1,.35,1.78V506h5.49v9.2H311.42a4.52,4.52,0,0,1-1.78-.35,4.79,4.79,0,0,1-1.45-1,4.53,4.53,0,0,1-1.33-3.26V492.19c-.35,0-.7-.05-1.06-.06l-1.06,0a7.37,7.37,0,0,0-2,.23,2.52,2.52,0,0,0-1.27.72,3,3,0,0,0-.66,1.3,7.9,7.9,0,0,0-.21,2l0,14a6,6,0,0,1-.31,1.91,4.81,4.81,0,0,1-.91,1.58,4.29,4.29,0,0,1-1.45,1.06,4.59,4.59,0,0,1-1.93.39H282.63a18.41,18.41,0,0,1-7.27-1.28,13.34,13.34,0,0,1-4.81-3.38,12.81,12.81,0,0,1-2.65-4.79,18.5,18.5,0,0,1-.82-5.47,20.72,20.72,0,0,1,.24-3.13,26.69,26.69,0,0,1,.67-3.1c.29-1,.61-2,1-2.91a23.45,23.45,0,0,1,1.13-2.55Zm-2.63,32.28a5,5,0,0,1,.37-1.93,4.7,4.7,0,0,1,1-1.55,4.64,4.64,0,0,1,1.56-1,4.79,4.79,0,0,1,1.89-.37,4.92,4.92,0,0,1,1.93.37,4.85,4.85,0,0,1,1.56,1A5.27,5.27,0,0,1,285,523.2a5,5,0,0,1,.38,1.93A4.88,4.88,0,0,1,285,527a5.27,5.27,0,0,1-1.06,1.55,5.07,5.07,0,0,1-1.56,1.06,4.76,4.76,0,0,1-1.93.39,4.63,4.63,0,0,1-1.89-.39,4.84,4.84,0,0,1-1.56-1.06,4.7,4.7,0,0,1-1-1.55A4.87,4.87,0,0,1,275.58,525.13Zm11.06,0a5,5,0,0,1,.37-1.93,4.55,4.55,0,0,1,1-1.55,4.7,4.7,0,0,1,1.55-1,4.87,4.87,0,0,1,1.9-.37,5,5,0,0,1,1.93.37,4.7,4.7,0,0,1,1.55,1A4.91,4.91,0,0,1,296,523.2a4.79,4.79,0,0,1,.39,1.93A4.72,4.72,0,0,1,296,527a5.09,5.09,0,0,1-2.61,2.61,4.79,4.79,0,0,1-1.93.39,4.72,4.72,0,0,1-1.9-.39,4.91,4.91,0,0,1-1.55-1.06,4.55,4.55,0,0,1-1-1.55A4.87,4.87,0,0,1,286.64,525.13Z"/><path class="cls-1" d="M320.58,515.23V506h5.87V484.14h9.2V506h6.64V484.14h9.2V506h6.68V484.14h9.16V506h5.83v9.2Z"/><path class="cls-1" d="M372.57,506h10.16V484.14h9.17v26.08a.83.83,0,0,1,0,.22v.19a4.36,4.36,0,0,1-.37,1.8,4.75,4.75,0,0,1-2.46,2.45,4.69,4.69,0,0,1-1.8.35H372.57Zm7.12-31.95a4.92,4.92,0,0,1,.37-1.93,4.85,4.85,0,0,1,1-1.56,4.79,4.79,0,0,1,1.56-1,5,5,0,0,1,1.89-.37,5.1,5.1,0,0,1,1.93.37,5,5,0,0,1,1.56,1,5.45,5.45,0,0,1,1.06,1.56,4.92,4.92,0,0,1,.38,1.93,4.8,4.8,0,0,1-.38,1.89,5.19,5.19,0,0,1-1.06,1.56,4.85,4.85,0,0,1-1.56,1,4.92,4.92,0,0,1-1.93.37,4.79,4.79,0,0,1-1.89-.37,4.78,4.78,0,0,1-2.6-2.6A4.79,4.79,0,0,1,379.69,474.08Z"/><path class="cls-1" d="M426.81,515.23a31.91,31.91,0,0,1-2.45,6.92,19.67,19.67,0,0,1-4.15,5.66,18.75,18.75,0,0,1-6.24,3.8,24.43,24.43,0,0,1-8.68,1.39v-9.2q5.54,0,8.55-2.12a9.28,9.28,0,0,0,3.73-6.49c-1.21.17-2.57.33-4.08.46a21.29,21.29,0,0,1-4.58-.07,16.3,16.3,0,0,1-4.51-1.21,10.2,10.2,0,0,1-3.86-2.89,13.88,13.88,0,0,1-2.6-5.19,25.65,25.65,0,0,1-.7-8.06,15,15,0,0,1,1.19-5.93,15.22,15.22,0,0,1,8.09-8.15,14.79,14.79,0,0,1,5.93-1.2h9.61a5.59,5.59,0,0,1,2.21.44,5.69,5.69,0,0,1,3,3,5.67,5.67,0,0,1,.44,2.22c0,.9,0,1.82,0,2.79s.06,2,.11,3.08.1,2.45.15,3.78.07,2.65.07,3.93c0,.65,0,1.28,0,1.92s0,1.26-.05,1.91h5.71v9.2Zm-8.2-23.08-3.08,0-3.08,0a5.59,5.59,0,0,0-2.32.5A6.68,6.68,0,0,0,408.2,494a6.37,6.37,0,0,0-1.31,1.95,5.66,5.66,0,0,0-.49,2.33,23,23,0,0,0,.1,4.36,6.11,6.11,0,0,0,1,2.75,4.09,4.09,0,0,0,2,1.47,11.67,11.67,0,0,0,3.12.55,25.52,25.52,0,0,0,3.23-.22,3.58,3.58,0,0,0,1.87-.76,2.89,2.89,0,0,0,.87-1.67,15.22,15.22,0,0,0,.23-2.95Z"/><path class="cls-1" d="M433.23,506h10.13V484.14h9.16v26.08a.57.57,0,0,1,0,.22v.19a4.49,4.49,0,0,1-1.34,3.26,4.6,4.6,0,0,1-1.46,1,4.69,4.69,0,0,1-1.8.35H433.23Zm1-31.95a4.92,4.92,0,0,1,.37-1.93,4.85,4.85,0,0,1,1-1.56,4.79,4.79,0,0,1,1.56-1,5,5,0,0,1,1.89-.37,5.14,5.14,0,0,1,1.93.37,5,5,0,0,1,1.56,1,5.22,5.22,0,0,1,1.05,1.56,4.76,4.76,0,0,1,.39,1.93,4.63,4.63,0,0,1-.39,1.89,5,5,0,0,1-1.05,1.56,5.07,5.07,0,0,1-1.56,1.06,4.79,4.79,0,0,1-1.93.39,4.63,4.63,0,0,1-1.89-.39,4.84,4.84,0,0,1-1.56-1.06,4.64,4.64,0,0,1-1-1.56A4.79,4.79,0,0,1,434.27,474.08Zm11.05,0a4.92,4.92,0,0,1,.38-1.93,4.82,4.82,0,0,1,1-1.56,5,5,0,0,1,5.38-1,4.79,4.79,0,0,1,1.56,1,5.07,5.07,0,0,1,1.06,1.56,4.76,4.76,0,0,1,.39,1.93,4.63,4.63,0,0,1-.39,1.89,5,5,0,0,1-2.62,2.62,4.87,4.87,0,0,1-3.82,0,5.07,5.07,0,0,1-1.56-1.06,4.61,4.61,0,0,1-1-1.56A4.8,4.8,0,0,1,445.32,474.08Z"/><rect class="cls-1" x="282.04" y="174.18" width="97.86" height="34.54"/><path class="cls-8" d="M292.86,186.38a9.19,9.19,0,0,0-.62,1.61,7,7,0,0,0-.26,1.84,4.56,4.56,0,0,0,.13,1,2,2,0,0,0,.41.84,2.19,2.19,0,0,0,.88.56,4.66,4.66,0,0,0,1.49.2l4,0V188a7.77,7.77,0,0,1,.41-2.61,4.94,4.94,0,0,1,1.2-1.93,5.2,5.2,0,0,1,1.93-1.19,7.55,7.55,0,0,1,2.62-.41l3,.07a2,2,0,0,1,.81.17,2.24,2.24,0,0,1,.66.48,2.46,2.46,0,0,1,.44.69,2.07,2.07,0,0,1,.16.82v8.34h2.52v4.22h-4.63a2,2,0,0,1-.81-.16,2.09,2.09,0,0,1-1.12-1.12,2.08,2.08,0,0,1-.16-.83v-8.45l-.48,0H305a3.42,3.42,0,0,0-.91.1,1.27,1.27,0,0,0-.58.33,1.31,1.31,0,0,0-.3.6,3.76,3.76,0,0,0-.1.91l0,6.39a2.84,2.84,0,0,1-.14.88,2.35,2.35,0,0,1-.42.72,2,2,0,0,1-.66.48,2.11,2.11,0,0,1-.89.18h-6.15a8.47,8.47,0,0,1-3.34-.58,6.22,6.22,0,0,1-2.2-1.55,5.85,5.85,0,0,1-1.21-2.2,8.52,8.52,0,0,1-.38-2.5,10,10,0,0,1,.11-1.44,13.27,13.27,0,0,1,.31-1.42c.13-.47.28-.91.44-1.34s.34-.81.52-1.16Zm-1.2,14.79a2.13,2.13,0,0,1,.17-.88,2.3,2.3,0,0,1,.47-.72,2.19,2.19,0,0,1,.72-.47,2.1,2.1,0,0,1,.86-.17,2.17,2.17,0,0,1,.89.17,2.15,2.15,0,0,1,.71.47,2.36,2.36,0,0,1,.49.72,2.22,2.22,0,0,1,0,1.75,2.39,2.39,0,0,1-1.2,1.2,2.18,2.18,0,0,1-.89.18,2.11,2.11,0,0,1-.86-.18,2.24,2.24,0,0,1-.72-.49,2.15,2.15,0,0,1-.47-.71A2.11,2.11,0,0,1,291.66,201.17Zm5.06,0a2.3,2.3,0,0,1,.17-.88,2.52,2.52,0,0,1,.48-.72,2.23,2.23,0,0,1,1.58-.64,2.21,2.21,0,0,1,.89.17,2.15,2.15,0,0,1,.71.47,2.52,2.52,0,0,1,.48.72,2.22,2.22,0,0,1,0,1.75,2.34,2.34,0,0,1-.48.71,2.2,2.2,0,0,1-1.6.67,2.15,2.15,0,0,1-.87-.18,2.2,2.2,0,0,1-.71-.49,2.34,2.34,0,0,1-.48-.71A2.29,2.29,0,0,1,296.72,201.17Z"/><path class="cls-8" d="M312.28,196.63v-4.22H315v-10h4.22v10h3v-10h4.22v10h3.06v-10h4.2v10h2.67v4.22Z"/><path class="cls-8" d="M336.11,192.41h4.65v-10H345v12a.3.3,0,0,1,0,.1v.08a2.09,2.09,0,0,1-.17.83,2.22,2.22,0,0,1-.46.67,2.19,2.19,0,0,1-.67.45,2,2,0,0,1-.82.16h-6.75Zm3.26-14.64a2.34,2.34,0,0,1,.17-.88,2.26,2.26,0,0,1,1.19-1.19,2.29,2.29,0,0,1,.87-.17,2.34,2.34,0,0,1,.88.17,2.16,2.16,0,0,1,.72.48,2.34,2.34,0,0,1,.48.71,2.16,2.16,0,0,1,.18.88,2.12,2.12,0,0,1-.18.87,2.52,2.52,0,0,1-.48.72,2.3,2.3,0,0,1-.72.47,2.16,2.16,0,0,1-.88.17,2.11,2.11,0,0,1-.87-.17,2.17,2.17,0,0,1-1.19-1.19A2.29,2.29,0,0,1,339.37,177.77Z"/><path class="cls-8" d="M361,196.63a14.53,14.53,0,0,1-1.12,3.17,9.13,9.13,0,0,1-1.9,2.6,8.7,8.7,0,0,1-2.86,1.74,11.34,11.34,0,0,1-4,.64v-4.22a6.74,6.74,0,0,0,3.92-1,4.27,4.27,0,0,0,1.71-3c-.56.08-1.18.15-1.87.22a9.86,9.86,0,0,1-2.1,0,7.55,7.55,0,0,1-2.07-.55,4.75,4.75,0,0,1-1.76-1.33,6.25,6.25,0,0,1-1.19-2.38,11.33,11.33,0,0,1-.33-3.69,6.75,6.75,0,0,1,.55-2.72,6.91,6.91,0,0,1,1.48-2.22,7,7,0,0,1,2.22-1.51,6.75,6.75,0,0,1,2.72-.55h4.41a2.6,2.6,0,0,1,1,.2,2.72,2.72,0,0,1,.82.56,2.62,2.62,0,0,1,.55.82,2.69,2.69,0,0,1,.2,1c0,.41,0,.83,0,1.28s0,.91.05,1.41.05,1.12.07,1.73,0,1.21,0,1.8c0,.3,0,.59,0,.88s0,.58,0,.87h2.62v4.22Zm-3.75-10.58h-2.83a2.41,2.41,0,0,0-1.06.23,2.84,2.84,0,0,0-.88.61,2.88,2.88,0,0,0-.61.89,2.81,2.81,0,0,0-.22,1.07,11.44,11.44,0,0,0,0,2,2.79,2.79,0,0,0,.46,1.26,1.82,1.82,0,0,0,.91.67,5.46,5.46,0,0,0,1.43.26,10.71,10.71,0,0,0,1.48-.11,1.66,1.66,0,0,0,.86-.34,1.36,1.36,0,0,0,.4-.77,6.88,6.88,0,0,0,.1-1.35Z"/><path class="cls-8" d="M363.91,192.41h4.64v-10h4.2v12a.3.3,0,0,1,0,.1v.08a2.09,2.09,0,0,1-.17.83,1.89,1.89,0,0,1-.45.67,2.08,2.08,0,0,1-.67.45,2,2,0,0,1-.82.16h-6.75Zm.47-14.64a2.34,2.34,0,0,1,.17-.88,2.17,2.17,0,0,1,.48-.71,2,2,0,0,1,.71-.48,2.32,2.32,0,0,1,.87-.17,2.3,2.3,0,0,1,.88.17,2.07,2.07,0,0,1,.72.48,2.34,2.34,0,0,1,.48.71,2.16,2.16,0,0,1,.18.88,2.12,2.12,0,0,1-.18.87,2.52,2.52,0,0,1-.48.72,2.39,2.39,0,0,1-.72.48,2.22,2.22,0,0,1-1.75,0,2.23,2.23,0,0,1-1.19-1.2A2.29,2.29,0,0,1,364.38,177.77Zm5.07,0a2.34,2.34,0,0,1,.17-.88,2.26,2.26,0,0,1,1.19-1.19,2.29,2.29,0,0,1,.87-.17,2.34,2.34,0,0,1,.88.17,2.16,2.16,0,0,1,.72.48,2.34,2.34,0,0,1,.48.71,2.16,2.16,0,0,1,.18.88,2.12,2.12,0,0,1-.18.87,2.21,2.21,0,0,1-1.2,1.2,2.16,2.16,0,0,1-.88.18,2.12,2.12,0,0,1-.87-.18,2.34,2.34,0,0,1-.71-.48,2.16,2.16,0,0,1-.48-.72A2.29,2.29,0,0,1,369.45,177.77Z"/></g></svg>