<svg xmlns="http://www.w3.org/2000/svg" xmlns:xlink="http://www.w3.org/1999/xlink" viewBox="0 0 599 498"><defs><style>.cls-1{fill:url(#linear-gradient);}.cls-2{fill:url(#linear-gradient-2);}.cls-3{fill:url(#linear-gradient-3);}.cls-4{fill:url(#linear-gradient-4);}.cls-5{fill:url(#linear-gradient-5);}.cls-6{fill:url(#linear-gradient-6);}.cls-7{fill:url(#linear-gradient-7);}.cls-8{fill:url(#linear-gradient-8);}.cls-9{fill:url(#linear-gradient-9);}.cls-10{fill:url(#linear-gradient-10);}.cls-11{fill:url(#linear-gradient-11);}.cls-12{fill:url(#linear-gradient-12);}.cls-13{fill:url(#linear-gradient-13);}.cls-14{fill:url(#linear-gradient-14);}.cls-15{fill:url(#linear-gradient-15);}.cls-16{fill:url(#linear-gradient-16);}.cls-17{fill:url(#linear-gradient-17);}.cls-18{fill:url(#linear-gradient-18);}.cls-19{fill:url(#linear-gradient-19);}.cls-20{fill:url(#linear-gradient-20);}.cls-21{fill:url(#linear-gradient-21);}.cls-22{fill:url(#linear-gradient-22);}.cls-23{fill:url(#linear-gradient-23);}.cls-24{fill:url(#linear-gradient-24);}</style><linearGradient id="linear-gradient" x1="489.59" y1="283.83" x2="95.59" y2="129.4" gradientUnits="userSpaceOnUse"><stop offset="0" stop-color="#f9a55a"/><stop offset="1" stop-color="#eb7f44"/></linearGradient><linearGradient id="linear-gradient-2" x1="352" y1="256.29" x2="365.55" y2="256.29" xlink:href="#linear-gradient"/><linearGradient id="linear-gradient-3" x1="324.87" y1="256.29" x2="338.44" y2="256.29" xlink:href="#linear-gradient"/><linearGradient id="linear-gradient-4" x1="297.77" y1="256.29" x2="311.33" y2="256.29" xlink:href="#linear-gradient"/><linearGradient id="linear-gradient-5" x1="270.67" y1="256.29" x2="284.22" y2="256.29" xlink:href="#linear-gradient"/><linearGradient id="linear-gradient-6" x1="243.55" y1="256.3" x2="257.12" y2="256.3" xlink:href="#linear-gradient"/><linearGradient id="linear-gradient-7" x1="216.44" y1="256.29" x2="230" y2="256.29" xlink:href="#linear-gradient"/><linearGradient id="linear-gradient-8" x1="189.34" y1="242.74" x2="202.9" y2="242.74" xlink:href="#linear-gradient"/><linearGradient id="linear-gradient-9" x1="175.79" y1="215.63" x2="189.34" y2="215.63" xlink:href="#linear-gradient"/><linearGradient id="linear-gradient-10" x1="189.33" y1="188.52" x2="202.89" y2="188.52" xlink:href="#linear-gradient"/><linearGradient id="linear-gradient-11" x1="216.45" y1="174.97" x2="230" y2="174.97" xlink:href="#linear-gradient"/><linearGradient id="linear-gradient-12" x1="238.36" y1="174.86" x2="289.2" y2="174.86" xlink:href="#linear-gradient"/><linearGradient id="linear-gradient-13" x1="-28.9" y1="282.25" x2="256.86" y2="606.98" xlink:href="#linear-gradient"/><linearGradient id="linear-gradient-14" x1="-15.86" y1="270.77" x2="269.9" y2="595.5" xlink:href="#linear-gradient"/><linearGradient id="linear-gradient-15" x1="1.12" y1="255.84" x2="286.88" y2="580.56" xlink:href="#linear-gradient"/><linearGradient id="linear-gradient-16" x1="21.89" y1="237.56" x2="307.65" y2="562.28" xlink:href="#linear-gradient"/><linearGradient id="linear-gradient-17" x1="43.69" y1="218.37" x2="329.45" y2="543.1" xlink:href="#linear-gradient"/><linearGradient id="linear-gradient-18" x1="68.01" y1="196.97" x2="353.77" y2="521.69" xlink:href="#linear-gradient"/><linearGradient id="linear-gradient-19" x1="86.91" y1="180.34" x2="372.67" y2="505.07" xlink:href="#linear-gradient"/><linearGradient id="linear-gradient-20" x1="103.88" y1="165.4" x2="389.64" y2="490.13" xlink:href="#linear-gradient"/><linearGradient id="linear-gradient-21" x1="141.13" y1="132.62" x2="426.89" y2="457.35" xlink:href="#linear-gradient"/><linearGradient id="linear-gradient-22" x1="165.16" y1="111.48" x2="450.92" y2="436.21" xlink:href="#linear-gradient"/><linearGradient id="linear-gradient-23" x1="185.65" y1="93.44" x2="471.41" y2="418.17" xlink:href="#linear-gradient"/><linearGradient id="linear-gradient-24" x1="208.2" y1="73.6" x2="493.96" y2="398.33" xlink:href="#linear-gradient"/></defs><title>TreasureHunt</title><g id="Layer_22" data-name="Layer 22"><path class="cls-1" d="M379.09,317.31H299.26c-27.67,0-55.34,0-83,.05-2.58,0-4.13-.74-5.45-2.92-2.34-3.86-5-7.54-7.91-12-2.76,4.13-5.41,7.84-7.77,11.73-1.39,2.28-2.95,3.33-5.76,3.16-11.8-.7-23.74-.36-35.38-2.08-6.54-1-13.08-4.46-18.78-8.12-9.36-6-13.77-15-13.74-26.5q.27-98.67,0-197.34c0-13.14,5.45-22.81,16.48-28.89,21.17-11.67,42.69-11.58,63.54.92,10.1,6.06,15.5,15.32,15,27.54-.22,5.63,0,11.27,0,17.52h5.09c34.31,0,68.61,0,102.91-.08,3.07,0,4.89.86,6.43,3.49,2.17,3.75,4.77,7.25,7.55,11.38,3-4.48,5.59-8.62,8.5-12.52a5.9,5.9,0,0,1,4-2.18c26.4-.11,52.8-.33,79.19.06,12.08.18,23.36,3.84,32.82,11.82,7.3,6.15,11.11,13.87,11.1,23.64q-.14,99.51,0,199c0,11.53-4.77,20.06-13.8,26.58-18.5,13.35-49.46,13.24-67.85-.26-8.85-6.5-13.85-15-13.38-26.34C379.29,329.28,379.09,323.52,379.09,317.31ZM202.89,278c5.27,7.89,10.22,15.08,14.91,22.44a6.3,6.3,0,0,0,6,3.4q75.15-.15,150.31-.08h4.93v-4.15q0-55.89,0-111.78,0-26.25,0-52.5c0-4.5,2.39-7.38,6.16-7.75a6.54,6.54,0,0,1,7.3,6.08c.38,6.82,4.06,11.45,9.59,14.49,16.35,9,33,9.25,49.11-.28,12.45-7.37,12.19-19.39,0-27.22-7.47-4.79-15.82-6.59-24.58-6.61-18.92,0-37.87.73-56.72-.3-10.76-.59-17.78,2.19-22.34,12.08-2.24,4.86-5.88,9.06-9.16,14-5.13-7.68-9.95-14.63-14.44-21.78-1.83-2.94-3.81-4.08-7.4-4.07-49.12.14-98.23.09-147.35.1-11.52,0-22.36-2.54-32.26-8.63a12.33,12.33,0,0,0-1.85-.69v6.2c0,56.6.07,113.2-.08,169.79,0,7.15,2.77,12.39,8.57,15.87,3.93,2.36,8.29,4.75,12.71,5.39,8.6,1.25,17.37,1.43,26.08,1.67a6.92,6.92,0,0,0,5-2.63C192.6,293.63,197.48,286.06,202.89,278ZM392.67,158.8v2.64q0,87.42,0,174.85c0,6.12,2.91,10.43,7.55,13.88,13.8,10.26,38.36,10.35,52.34.25,5.26-3.8,8-8.63,8-15.4q-.19-85.72-.07-171.47v-4.78C437.67,171.42,415.43,171.46,392.67,158.8ZM202.88,99.57c0-4.56-.36-9.88.08-15.13.81-9.57-3.94-15.57-11.91-19.52a45.36,45.36,0,0,0-10.7-3.81c-13.82-2.88-27.09-1.6-38.63,7.25-8.9,6.82-9,17,.17,23.38,5.28,3.65,11.81,7,18,7.48C173.92,100.32,188.07,99.57,202.88,99.57Z"/><path class="cls-2" d="M358.72,249.52a6.78,6.78,0,1,1-6.72,6.71A6.77,6.77,0,0,1,358.72,249.52Z"/><path class="cls-3" d="M331.72,263.07a6.78,6.78,0,1,1,6.72-6.73A6.84,6.84,0,0,1,331.72,263.07Z"/><path class="cls-4" d="M311.33,256.45a6.78,6.78,0,1,1-6.51-6.93A6.85,6.85,0,0,1,311.33,256.45Z"/><path class="cls-5" d="M270.67,256.31a6.78,6.78,0,1,1,6.68,6.76A6.79,6.79,0,0,1,270.67,256.31Z"/><path class="cls-6" d="M257.12,256.3a6.78,6.78,0,1,1-13.56-.24,6.75,6.75,0,0,1,6.88-6.54A6.83,6.83,0,0,1,257.12,256.3Z"/><path class="cls-7" d="M230,256.45a6.78,6.78,0,1,1-6.51-6.93A6.85,6.85,0,0,1,230,256.45Z"/><path class="cls-8" d="M202.9,242.66a6.78,6.78,0,1,1-13.56-.07,6.75,6.75,0,0,1,6.8-6.63A6.84,6.84,0,0,1,202.9,242.66Z"/><path class="cls-9" d="M189.34,215.55a6.78,6.78,0,1,1-6.75-6.69A6.84,6.84,0,0,1,189.34,215.55Z"/><path class="cls-10" d="M196.18,195.3a6.79,6.79,0,1,1,6.71-6.73A6.85,6.85,0,0,1,196.18,195.3Z"/><path class="cls-11" d="M230,174.9a6.78,6.78,0,1,1-6.73-6.71A6.83,6.83,0,0,1,230,174.9Z"/><path class="cls-12" d="M278.88,149.3l9.76,10.34-15.85,15.41,16.41,15.17-9.88,9.71L264,183.84,248.7,200.43l-9.45-10.15,15.89-15.34-16.78-15,10.31-10.16,14.78,16.29Z"/><path class="cls-13" d="M82.48,447.58V407.23H67.63v-8.7h39.89v8.7H92.72v40.35Z"/><path class="cls-14" d="M112.78,447.58V411.26h9.09v6.52c.36-.71.74-1.41,1.15-2.07q3.38-5.41,8.71-5.41l2.18,0v9.78c-.84-.08-1.8-.11-2.87-.11-2.92,0-5.09.72-6.53,2.16s-2.14,3.63-2.14,6.54v18.87Z"/><path class="cls-15" d="M153.82,448.5q-8.28,0-12.77-5.1t-4.49-14.53q0-8.72,4.56-13.64t12.7-4.93q8.28,0,12.77,5t4.49,14.3a7.77,7.77,0,0,1-.15,2.15H146.19a12.61,12.61,0,0,0,1.91,6.45q2,2.68,6.68,2.68a7.14,7.14,0,0,0,4-1.23,4.79,4.79,0,0,0,2.24-3h9.74a14,14,0,0,1-5.75,8.69A19.16,19.16,0,0,1,153.82,448.5Zm7.29-22.82a9.75,9.75,0,0,0-1.73-5.1q-1.84-2.41-5.71-2.42A6.43,6.43,0,0,0,148,421a12.64,12.64,0,0,0-1.73,4.68Z"/><path class="cls-16" d="M186.16,448.5a11.42,11.42,0,0,1-8.14-2.87A9.94,9.94,0,0,1,175,438a11.18,11.18,0,0,1,2.78-7.94q2.77-3,8.07-3.76l6.33-.88a14.7,14.7,0,0,0,4.1-1.11,2.36,2.36,0,0,0,1.08-1.21,3.41,3.41,0,0,0,.27-1.78A3.15,3.15,0,0,0,196,419a8.68,8.68,0,0,0-4.68-1,6.37,6.37,0,0,0-4.29,1.33,4.9,4.9,0,0,0-1.61,3.78h-9.21c.2-4.25,1.66-7.43,4.35-9.56s6.65-3.18,11.84-3.18q6.78,0,10.7,2.86A9.14,9.14,0,0,1,207,421v20.3a10.34,10.34,0,0,0,.4,3.41,2.9,2.9,0,0,0,1.63,1.53v1.35H198.7a21.8,21.8,0,0,1-.85-4.3l0-.08A14.52,14.52,0,0,1,186.16,448.5Zm11.5-14.34V430a16.28,16.28,0,0,1-4.41,1.49l-3.53.65a7.27,7.27,0,0,0-3.79,1.71,4.2,4.2,0,0,0-1.31,3.17,4.75,4.75,0,0,0,1.17,3.41,4.26,4.26,0,0,0,3.24,1.23,9.17,9.17,0,0,0,7.37-3.22,5.4,5.4,0,0,0,.88-1.88A8.3,8.3,0,0,0,197.66,434.16Z"/><path class="cls-17" d="M236,422.15a4,4,0,0,0-1.75-3.37,7.64,7.64,0,0,0-4.62-1.27,8.17,8.17,0,0,0-4.31,1,3,3,0,0,0-1.56,2.65q0,1.19,1.77,2.07a32.43,32.43,0,0,0,6.17,1.84q8.82,2,11.78,4.3t3,7.36a10.17,10.17,0,0,1-4.33,8.57c-2.89,2.17-6.69,3.24-11.4,3.24q-8.35,0-12.88-3.2A11.49,11.49,0,0,1,213,436h9.75a4.75,4.75,0,0,0,2.22,3.92,10.23,10.23,0,0,0,5.75,1.41,8.68,8.68,0,0,0,4.49-1,3.06,3.06,0,0,0,1.61-2.75,2.51,2.51,0,0,0-1.57-2.11,23.25,23.25,0,0,0-5.49-1.68q-9.2-2.07-12.31-4.38c-2.07-1.5-3.1-3.86-3.1-7a10.76,10.76,0,0,1,4-8.73q4-3.31,10.59-3.32,7.4,0,11.95,3.26a10.1,10.1,0,0,1,4.54,8.59Z"/><path class="cls-18" d="M263.1,411.26V434a7.2,7.2,0,0,0,1.44,4.93,5.63,5.63,0,0,0,4.39,1.59,7.25,7.25,0,0,0,5.75-2.27q2-2.26,2-6.52V411.26h9.59v36.32h-9.13v-5.44A11.23,11.23,0,0,1,276,444q-3.52,4.49-10.24,4.48-5.76,0-9-3.37t-3.22-9.4V411.26Z"/><path class="cls-19" d="M295.13,447.58V411.26h9.09v6.52c.36-.71.74-1.41,1.15-2.07q3.38-5.41,8.71-5.41l2.18,0v9.78c-.84-.08-1.8-.11-2.87-.11-2.92,0-5.09.72-6.53,2.16s-2.14,3.63-2.14,6.54v18.87Z"/><path class="cls-20" d="M336.17,448.5q-8.28,0-12.77-5.1t-4.49-14.53q0-8.72,4.56-13.64t12.7-4.93q8.28,0,12.77,5t4.49,14.3a7.77,7.77,0,0,1-.15,2.15H328.54a12.61,12.61,0,0,0,1.91,6.45q2,2.68,6.68,2.68a7.14,7.14,0,0,0,4-1.23,4.79,4.79,0,0,0,2.24-3h9.74a14,14,0,0,1-5.75,8.69A19.16,19.16,0,0,1,336.17,448.5Zm7.29-22.82a9.75,9.75,0,0,0-1.73-5.1q-1.85-2.41-5.71-2.42a6.43,6.43,0,0,0-5.64,2.84,12.64,12.64,0,0,0-1.73,4.68Z"/><path class="cls-21" d="M376.87,447.58V398.53h10.24V416.9h19.18V398.53h10.28v49.05H406.29v-22.2H387.11v22.2Z"/><path class="cls-22" d="M435.48,411.26V434a7.2,7.2,0,0,0,1.44,4.93,5.61,5.61,0,0,0,4.39,1.59,7.26,7.26,0,0,0,5.75-2.27q2-2.26,2-6.52V411.26h9.58v36.32h-9.12v-5.44a11.91,11.91,0,0,1-1.19,1.88q-3.54,4.49-10.24,4.48-5.76,0-9-3.37t-3.22-9.4V411.26Z"/><path class="cls-23" d="M467.58,447.58V411.26h9.09v5.41a15.91,15.91,0,0,1,1.23-1.84q3.57-4.53,10.28-4.53,5.76,0,9,3.42t3.26,9.43v24.43h-9.59v-22.7a7.28,7.28,0,0,0-1.45-5,5.68,5.68,0,0,0-4.45-1.63,7.36,7.36,0,0,0-5.79,2.26q-2,2.26-2,6.56v20.48Z"/><path class="cls-24" d="M526,447.78c-1.61.12-3.58.19-5.91.19q-5.1,0-7.3-1.8t-2.21-5.95V418h-5.06v-6.71h5.06v-9.74h9.55v9.74H526V418h-5.87v20.64a1.72,1.72,0,0,0,.77,1.67,7.74,7.74,0,0,0,3.1.4h2Z"/></g></svg>