<svg xmlns="http://www.w3.org/2000/svg" viewBox="0 0 600 518"><defs><style>.cls-1{fill:#eab532;}.cls-2,.cls-3{fill:#2e3192;}.cls-3{font-size:83.51px;font-family:PTSans-Bold, PT Sans;font-weight:700;}</style></defs><title>Artboard 6</title><g id="Layer_9" data-name="Layer 9"><circle class="cls-1" cx="352.98" cy="126.35" r="9.2"/><circle class="cls-1" cx="352.98" cy="147.8" r="9.2"/><path class="cls-2" d="M352.92,328.67H239.71a67.4,67.4,0,0,1-67.33-67.33V243.82a20,20,0,1,1,40,0v17.52a27.32,27.32,0,0,0,27.29,27.29H352.92a27.32,27.32,0,0,0,27.29-27.29V127.15a27.32,27.32,0,0,0-27.29-27.29H240.66a27.32,27.32,0,0,0-27.29,27.29V145l42.76,42.75A20,20,0,0,1,227.82,216l-34.47-34.47L158.89,216a20,20,0,0,1-28.32-28.32L173.33,145V127.15a67.41,67.41,0,0,1,67.33-67.33H352.92a67.41,67.41,0,0,1,67.34,67.33V261.34A67.41,67.41,0,0,1,352.92,328.67Z"/><text class="cls-3" transform="translate(141.86 457.2)">YAWMIA</text></g></svg>