<?xml version="1.0" encoding="utf-8"?>
<!-- Generator: Adobe Illustrator 24.0.0, SVG Export Plug-In . SVG Version: 6.00 Build 0)  -->
<svg version="1.1" id="Layer_1" xmlns="http://www.w3.org/2000/svg" xmlns:xlink="http://www.w3.org/1999/xlink" x="0px" y="0px"
	 viewBox="0 0 23 14" style="enable-background:new 0 0 23 14;" xml:space="preserve">
<path d="M6.4,0C7.1,0,7.7,0,8.2,0.2c0.5,0.1,1,0.3,1.4,0.5c0.4,0.2,0.7,0.6,0.9,1c0.2,0.4,0.3,1,0.3,1.6c0,0.7-0.1,1.3-0.5,1.7
	C10,5.5,9.5,5.9,8.9,6.2c0.8,0.2,1.5,0.7,1.9,1.3c0.4,0.6,0.6,1.3,0.6,2.2c0,0.7-0.1,1.3-0.4,1.8c-0.2,0.5-0.6,0.9-1.1,1.2
	c-0.5,0.3-1,0.6-1.6,0.7c-0.6,0.1-1.2,0.2-1.8,0.2H0V0H6.4z M6,5.5c0.5,0,1-0.1,1.3-0.4c0.3-0.2,0.5-0.7,0.5-1.2
	c0-0.3-0.1-0.6-0.1-0.8C7.6,2.9,7.5,2.8,7.3,2.6C7.1,2.5,6.9,2.4,6.6,2.4c-0.2,0-0.5,0-0.8,0H3v3.2L6,5.5L6,5.5z M6.2,11.4
	c0.3,0,0.6-0.1,0.8-0.1c0.2,0,0.5-0.1,0.7-0.3c0.2-0.1,0.4-0.3,0.5-0.5c0.1-0.2,0.2-0.5,0.2-0.9c0-0.7-0.2-1.2-0.6-1.5
	C7.4,7.7,6.9,7.6,6.2,7.6H3v3.8L6.2,11.4L6.2,11.4z M15.7,11.3c0.4,0.4,1,0.6,1.8,0.6c0.5,0,1-0.1,1.4-0.4c0.4-0.3,0.6-0.6,0.7-0.9
	H22c-0.4,1.2-1,2-1.8,2.6c-0.8,0.5-1.7,0.8-2.9,0.8c-0.7,0-1.4-0.1-2.1-0.4c-0.6-0.2-1.1-0.6-1.6-1.1c-0.5-0.5-0.8-1-1-1.6
	c-0.2-0.6-0.3-1.3-0.3-2.1c0-0.7,0.1-1.4,0.3-2.1c0.2-0.6,0.6-1.2,1-1.7c0.4-0.4,1-0.8,1.6-1.1c0.7-0.3,1.4-0.4,2.1-0.4
	c0.8,0,1.6,0.1,2.2,0.5c0.6,0.3,1.1,0.7,1.5,1.3c0.4,0.6,0.7,1.2,0.9,1.9c0.1,0.7,0.1,1.4,0.1,2.2H15C15,10.2,15.3,10.9,15.7,11.3
	L15.7,11.3z M18.8,6.1c-0.3-0.3-0.9-0.5-1.5-0.5c-0.4,0-0.8,0.1-1.1,0.2c-0.3,0.1-0.5,0.3-0.7,0.5c-0.2,0.2-0.3,0.4-0.3,0.7
	C15.1,7.3,15,7.5,15,7.7h4.4C19.4,7,19.1,6.5,18.8,6.1L18.8,6.1z M14.5,0.9H20v1.3h-5.5L14.5,0.9L14.5,0.9z"/>
</svg>
