<?xml version="1.0" encoding="utf-8"?>
<!-- Generator: Adobe Illustrator 24.0.0, SVG Export Plug-In . SVG Version: 6.00 Build 0)  -->
<svg version="1.1" id="Layer_1" xmlns="http://www.w3.org/2000/svg" xmlns:xlink="http://www.w3.org/1999/xlink" x="0px" y="0px"
	 viewBox="0 0 18 20" style="enable-background:new 0 0 18 20;" xml:space="preserve">
<path d="M3,16.2c-0.3-0.2-0.6-0.5-0.9-0.8C2,15.1,1.9,15,1.7,14.8c-0.5-0.6-0.8-0.8-1.1-0.9c-0.2-0.1-0.5-0.3-0.6-0.5
	c-0.1-0.2-0.1-0.5,0-0.8c0.1-0.2,0.3-0.5,0.5-0.6c0.2-0.1,0.5-0.1,0.8,0c0.8,0.3,1.3,0.7,1.9,1.6c-0.1-0.1,0.3,0.4,0.4,0.5
	c0.2,0.2,0.3,0.4,0.4,0.4c0.2,0.1,0.6,0.2,1.2,0.1c0-0.4,0.1-0.8,0.2-1.1c-3-0.7-4.6-2.6-4.6-6.4c0-1.2,0.4-2.4,1.1-3.3
	C1.7,3,1.7,1.9,2.2,0.7c0.1-0.1,0.1-0.3,0.2-0.4c0.1-0.1,0.2-0.2,0.4-0.2c0.1,0,0.1,0,0.2,0C3.9-0.1,5,0.2,6.5,1.1
	c0.9-0.2,1.8-0.3,2.7-0.3c0.9,0,1.8,0.1,2.7,0.3c1.5-0.9,2.6-1.2,3.4-1.1c0.1,0,0.2,0,0.2,0c0.1,0,0.3,0.1,0.4,0.2
	C16,0.4,16,0.5,16.1,0.7c0.5,1.2,0.5,2.3,0.3,3.2c0.7,0.9,1.1,2,1.1,3.3c0,3.8-1.7,5.7-4.6,6.4c0.1,0.4,0.2,0.9,0.2,1.4
	c0,0.9,0,1.8,0,2.7c0.2,0,0.4,0.2,0.6,0.4c0.1,0.2,0.2,0.4,0.2,0.6c0,0.2-0.1,0.5-0.2,0.6s-0.4,0.3-0.6,0.3c-1.1,0.2-2-0.5-2-1.5
	l0-0.4l0-0.7c0-0.7,0-1.3,0-2c0-0.7-0.2-1.2-0.4-1.4c-0.7-0.6-0.3-1.7,0.5-1.8c3-0.3,4.3-1.5,4.3-4.7c0-1-0.3-1.7-0.9-2.4
	c-0.1-0.1-0.2-0.3-0.2-0.5c0-0.2,0-0.4,0.1-0.5c0.2-0.4,0.2-1,0.1-1.6l0,0C14,2.2,13.3,2.5,12.6,3c-0.1,0.1-0.3,0.1-0.4,0.2
	c-0.1,0-0.3,0-0.4,0C10.9,2.9,10,2.8,9.2,2.8c-0.9,0-1.8,0.1-2.6,0.4c-0.1,0-0.3,0-0.4,0C6,3.2,5.9,3.1,5.7,3C5,2.5,4.4,2.2,3.9,2.1
	C3.7,2.7,3.8,3.3,4,3.7C4,3.9,4.1,4.1,4,4.2c0,0.2-0.1,0.4-0.2,0.5C3.2,5.4,2.9,6.2,2.9,7.1c0,3.2,1.4,4.3,4.3,4.7
	C8,11.9,8.4,13,7.7,13.6c-0.2,0.2-0.4,0.7-0.4,1.4v3.1c0,1-0.8,1.7-2,1.5c-0.2,0-0.4-0.2-0.6-0.3c-0.2-0.2-0.2-0.4-0.2-0.6
	c0-0.2,0.1-0.5,0.2-0.6c0.1-0.2,0.3-0.3,0.6-0.4v-1C4.4,16.7,3.6,16.6,3,16.2L3,16.2z"/>
</svg>
