<?xml version="1.0" encoding="utf-8"?>
<!-- Generator: Adobe Illustrator 24.0.0, SVG Export Plug-In . SVG Version: 6.00 Build 0)  -->
<svg version="1.1" id="Layer_1" xmlns="http://www.w3.org/2000/svg" xmlns:xlink="http://www.w3.org/1999/xlink" x="0px" y="0px"
	 viewBox="0 0 20 20" style="enable-background:new 0 0 20 20;" xml:space="preserve">
<path d="M10,7C9.2,7,8.4,7.3,7.9,7.9S7,9.2,7,10c0,0.8,0.3,1.6,0.9,2.1S9.2,13,10,13c0.8,0,1.6-0.3,2.1-0.9S13,10.8,13,10
	c0-0.8-0.3-1.6-0.9-2.1S10.8,7,10,7z M10,5c1.3,0,2.6,0.5,3.5,1.5C14.5,7.4,15,8.7,15,10c0,1.3-0.5,2.6-1.5,3.5
	C12.6,14.5,11.3,15,10,15c-1.3,0-2.6-0.5-3.5-1.5C5.5,12.6,5,11.3,5,10c0-1.3,0.5-2.6,1.5-3.5C7.4,5.5,8.7,5,10,5L10,5z M16.5,4.7
	c0,0.3-0.1,0.6-0.4,0.9C15.9,5.9,15.6,6,15.2,6s-0.6-0.1-0.9-0.4C14.1,5.4,14,5.1,14,4.7s0.1-0.6,0.4-0.9c0.2-0.2,0.6-0.4,0.9-0.4
	s0.6,0.1,0.9,0.4S16.5,4.4,16.5,4.7L16.5,4.7z M10,2C7.5,2,7.1,2,6,2.1c-0.8,0-1.3,0.1-1.8,0.3C3.7,2.6,3.4,2.8,3.1,3.1
	C2.8,3.4,2.5,3.8,2.4,4.2C2.2,4.7,2.1,5.2,2.1,6C2,7.1,2,7.5,2,10c0,2.5,0,2.9,0.1,4c0,0.8,0.1,1.3,0.3,1.8c0.2,0.4,0.4,0.7,0.7,1.1
	c0.3,0.3,0.6,0.5,1.1,0.7c0.5,0.2,1,0.3,1.8,0.3C7.1,18,7.5,18,10,18c2.5,0,2.9,0,4-0.1c0.8,0,1.3-0.1,1.8-0.3
	c0.4-0.2,0.7-0.4,1.1-0.7c0.3-0.3,0.5-0.6,0.7-1.1c0.2-0.5,0.3-1,0.3-1.8c0.1-1.1,0.1-1.5,0.1-4c0-2.5,0-2.9-0.1-4
	c0-0.8-0.1-1.3-0.3-1.8c-0.2-0.4-0.4-0.8-0.7-1.1c-0.3-0.3-0.7-0.6-1.1-0.7c-0.5-0.2-1-0.3-1.8-0.3C12.9,2,12.5,2,10,2z M10,0
	c2.7,0,3.1,0,4.1,0.1c1.1,0.1,1.8,0.2,2.4,0.5c0.7,0.3,1.2,0.6,1.8,1.2c0.5,0.5,0.9,1.1,1.2,1.8c0.2,0.6,0.4,1.4,0.5,2.4
	C20,6.9,20,7.3,20,10s0,3.1-0.1,4.1c-0.1,1.1-0.2,1.8-0.5,2.4c-0.3,0.7-0.6,1.3-1.2,1.8c-0.5,0.5-1.1,0.9-1.8,1.2
	c-0.6,0.2-1.4,0.4-2.4,0.5C13.1,20,12.7,20,10,20s-3.1,0-4.1-0.1c-1.1-0.1-1.8-0.2-2.4-0.5c-0.7-0.3-1.3-0.6-1.8-1.2
	c-0.5-0.5-0.9-1.1-1.2-1.8c-0.2-0.6-0.4-1.4-0.5-2.4C0,13.1,0,12.7,0,10s0-3.1,0.1-4.1c0.1-1.1,0.2-1.8,0.5-2.4
	c0.3-0.7,0.6-1.3,1.2-1.8c0.5-0.5,1.1-0.9,1.8-1.2c0.6-0.2,1.4-0.4,2.4-0.5C6.9,0,7.3,0,10,0z"/>
</svg>
