<?xml version="1.0" encoding="utf-8"?>
<!-- Generator: Adobe Illustrator 24.0.0, SVG Export Plug-In . SVG Version: 6.00 Build 0)  -->
<svg version="1.1" xmlns="http://www.w3.org/2000/svg" xmlns:xlink="http://www.w3.org/1999/xlink" x="0px" y="0px"
	 viewBox="0 0 288 200.9" style="enable-background:new 0 0 288 200.9;" xml:space="preserve">
<style type="text/css">
	.st0{fill:none;stroke:#FFFFFF;stroke-width:2;stroke-miterlimit:10;}
	.st1{display:none;}
	.st2{display:inline;}
	.st3{fill:none;stroke:#000000;stroke-width:0.25;stroke-miterlimit:10;}
	.st4{fill:#FFFFFF;}
</style>
<g id="Layer_1">
	<title>logoarbb</title>
	<g id="Layer_2_1_">
		<g>
			<g id="Layer_2-2_12_">
				<path class="st0" d="M18.8,198.3c3.3,1,6.8,1.1,10.2,0.4c4.6-1,9-2.7,13-5.1c9-5.2,16.5-12.8,22.5-22.8c6-10.2,10.1-21.4,12-33
					c0.6-3.2,0.9-6.5,0.9-9.8c0.1-7.6-1.7-15.1-5.1-21.9"/>
				<path class="st0" d="M48,168.2c-4.9,3-10.3,5-16,6.1c-3.3,0.6-6.7,1-10.1,1c-5.6-1.5-8.4-4.6-8.4-9.4c0-2,0.4-4,1.1-5.8
					c2.8-8.2,5.6-15.6,8.6-22.2l0.5-1.1l12,6c1.7-3.5,3.5-7,5.2-10.5c1.8-3.5,3.5-7.1,5.2-10.7"/>
				<polyline class="st0" points="100.4,150.3 112.3,128.4 107.7,58.1 				"/>
				<path class="st0" d="M193.7,54.6c2.2-3.3,4.4-6.5,6.6-9.8c2.2-3.3,4.4-6.6,6.6-10"/>
				<path class="st0" d="M247.1,34.7l6.7-9.8c2.2-3.3,4.4-6.6,6.6-10"/>
				<path class="st0" d="M272.4,80.4c-3.9,2.7-8.3,4.7-12.9,5.6c-2.6-1.8-5-4.1-6.8-6.7c-2.1-3-3.4-6.4-3.9-10
					c5.7-0.5,11.4-0.5,17,0.2l6.8-23.1 M165.3,118.6l-3.2,1.3h-0.2l-0.1,0.2c-0.5,0.3-1,0.5-1.6,0.7c-0.5,0.2-1,0.4-1.5,0.6h-0.2
					v0.2c-4.3,1.3-8.6,2.9-12.7,4.8c-4,1.8-8.1,6.7-12.4,14.9c-1.2,2.1-2.2,4.4-3.1,6.6v0.1c-0.4,0.6-0.8,1.2-1.1,1.8
					c-0.7,0.4-1.4,0.8-2.2,1.2c-7.8,3.6-15.9,7-24.3,10c-8.2,3-16.1,6.6-23.7,10.8c-1.5,1-1.8,1.8-0.9,2.4c1.3,0.9,5.5,1.8,12.6,2.6
					c7.1,0.9,11.5,1.3,13.4,1.3c5,0.2,9.9-0.6,14.5-2.5c4.6-2,8.3-6.2,11.2-12.5c1.1-2.4,2.3-4.8,3.5-7.1c0.8-1.5,1.8-3,2.8-4.3
					c2.8-2.1,5.8-3.8,9-5c5.3-2.2,10.4-4.5,15.1-6.8v-0.2h0.1c1.8-0.8,3.6-1.6,5.4-2.4c1.2-0.5,2.4-1,3.6-1.6c0.4,0.5,1,1,1.6,1.2
					c1.9,0.9,4.1,1.2,6.2,1c6.1-0.5,13.7-2.4,23-5.5s18.7-6.9,28.3-11.3c9.6-4.4,18.8-9,27.5-13.8c7.1-3.8,14-8.1,20.5-12.8
					c0.1-0.3,0.7-1.7,1.8-4.2s2.2-5,3.2-7.8s1.9-5.2,2.5-7.2 M237.8,84.2c-0.1,5.3,0.8,9.4,2.9,12.3c-4.3,2.1-10,4.6-17.1,7.4
					c-6.9,2.8-14,5.2-21.1,7.3c-2.6,0.7-5.1,1.4-7.5,1.8c4.9-7.7,8.9-16,11.8-24.6c0.8-3,1.2-6,1.3-9.1c0-5.2-1.7-8.4-5.2-9.6
					c-1.4-0.5-2.9-0.6-4.4-0.3"/>
				<path class="st0" d="M18.8,198.3c3.3,1,6.8,1.1,10.2,0.4c4.6-1,9-2.7,13-5.1c9-5.2,16.5-12.8,22.5-22.8c6-10.2,10.1-21.4,12-33
					c0.6-3.2,0.9-6.5,0.9-9.8c0.1-7.6-1.7-15.1-5.1-21.9"/>
				<path class="st0" d="M48,168.2c-4.9,3-10.3,5-16,6.1c-3.3,0.6-6.7,1-10.1,1c-5.6-1.5-8.4-4.6-8.4-9.4c0-2,0.4-4,1.1-5.8
					c2.8-8.2,5.6-15.6,8.6-22.2l0.5-1.1l12,6c1.7-3.5,3.5-7,5.2-10.5c1.8-3.5,3.5-7.1,5.2-10.7"/>
				<polyline class="st0" points="100.4,150.3 112.3,128.4 107.7,58.1 				"/>
				<path class="st0" d="M193.7,54.6c2.2-3.3,4.4-6.5,6.6-9.8c2.2-3.3,4.4-6.6,6.6-10"/>
				<path class="st0" d="M247.1,34.7l6.7-9.8c2.2-3.3,4.4-6.6,6.6-10"/>
				<path class="st0" d="M272.4,80.4c-3.9,2.7-8.3,4.7-12.9,5.6c-2.6-1.8-5-4.1-6.8-6.7c-2.1-3-3.4-6.4-3.9-10
					c5.7-0.5,11.4-0.5,17,0.2l6.8-23.1 M165.3,118.6l-3.2,1.3h-0.2l-0.1,0.2c-0.5,0.3-1,0.5-1.6,0.7c-0.5,0.2-1,0.4-1.5,0.6h-0.2
					v0.2c-4.3,1.3-8.6,2.9-12.7,4.8c-4,1.8-8.1,6.7-12.4,14.9c-1.2,2.1-2.2,4.4-3.1,6.6v0.1c-0.4,0.6-0.8,1.2-1.1,1.8
					c-0.7,0.4-1.4,0.8-2.2,1.2c-7.8,3.6-15.9,7-24.3,10c-8.2,3-16.1,6.6-23.7,10.8c-1.5,1-1.8,1.8-0.9,2.4c1.3,0.9,5.5,1.8,12.6,2.6
					c7.1,0.9,11.5,1.3,13.4,1.3c5,0.2,9.9-0.6,14.5-2.5c4.6-2,8.3-6.2,11.2-12.5c1.1-2.4,2.3-4.8,3.5-7.1c0.8-1.5,1.8-3,2.8-4.3
					c2.8-2.1,5.8-3.8,9-5c5.3-2.2,10.4-4.5,15.1-6.8v-0.2h0.1c1.8-0.8,3.6-1.6,5.4-2.4c1.2-0.5,2.4-1,3.6-1.6c0.4,0.5,1,1,1.6,1.2
					c1.9,0.9,4.1,1.2,6.2,1c6.1-0.5,13.7-2.4,23-5.5s18.7-6.9,28.3-11.3c9.6-4.4,18.8-9,27.5-13.8c7.1-3.8,14-8.1,20.5-12.8
					c0.1-0.3,0.7-1.7,1.8-4.2s2.2-5,3.2-7.8s1.9-5.2,2.5-7.2 M240.7,96.5c-4.3,2.1-10,4.6-17.1,7.4c-6.9,2.8-14,5.2-21.1,7.3
					c-2.6,0.7-5.1,1.4-7.5,1.8c4.9-7.7,8.9-16,11.8-24.6c0.8-3,1.2-6,1.3-9.1c0-5.2-1.7-8.4-5.2-9.6c-1.4-0.5-2.9-0.6-4.4-0.3
					 M187,92c2,0.5,3.8,2.6,5.3,6.3 M179.2,112.1c-1.4-0.5-2.5-1.5-3.1-2.8c-0.3-0.6-0.5-1.2-0.5-1.9"/>
			</g>
		</g>
		<g>
			
				<image style="overflow:visible;" width="344" height="258" xlink:href="487DA89706931EBC.png"  transform="matrix(1 0 0 1 -23.2924 -21.8031)">
			</image>
		</g>
	</g>
</g>
<g id="Layer_1_copy_2" class="st1">
	<title>logoarbb</title>
	<g id="Layer_2_3_" class="st2">
		<g>
			<g id="Layer_2-2_1_">
				<path class="st3" d="M62.4,125.7c1.1,3.5,2.1,7.2,3,11c0.8,3.7,1.2,7.4,1.1,11.2v1.5c-5.6,6.3-12.2,11.6-19.5,15.8
					c-4.9,3-10.3,5-16,6.1c-3.3,0.6-6.7,1-10.1,1c-5.6-1.5-8.4-4.6-8.4-9.4c0-2,0.4-4,1.1-5.8c2.8-8.2,5.6-15.6,8.6-22.2l0.5-1.1
					l12,6c1.7-3.5,3.5-7,5.2-10.5c1.8-3.5,3.5-7.1,5.2-10.7l-12.7-6.4l-0.2-0.1l-2.4-0.9c-1.4,2.8-2.9,5.8-4.5,8.9s-3,6-4.2,8.7
					C11.5,148.4,6.7,163.5,6.7,174c0,0.9,0,1.7,0.1,2.6c0.9,10.5,4.6,16.8,11,18.7c3.3,1,6.8,1.1,10.2,0.4c4.6-1,9-2.7,13-5.1
					c9-5.2,16.5-12.8,22.5-22.8c6-10.2,10.1-21.4,12-33c0.6-3.2,0.9-6.5,0.9-9.8c0.1-7.6-1.7-15.1-5.1-21.9L62.4,125.7z"/>
				<polygon class="st3" points="111.3,125.4 106.7,55.1 94.8,77 99.4,147.3 				"/>
				<path class="st3" d="M199.3,41.8c2.2-3.3,4.4-6.6,6.6-10L194.6,23c-2.2,3.3-4.4,6.6-6.7,9.9c-2.2,3.3-4.4,6.5-6.6,9.9l11.4,8.9
					C194.9,48.3,197.1,45.1,199.3,41.8z"/>
				<path class="st3" d="M252.8,21.9c2.2-3.3,4.4-6.6,6.6-10L248,3.1c-2.2,3.3-4.4,6.6-6.7,9.9c-2.2,3.3-4.5,6.5-6.6,9.9l11.4,8.8
					L252.8,21.9z"/>
				<path class="st3" d="M282.5,70.1c-3.9,2.3-7.6,4.8-11.2,7.4c-3.9,2.7-8.3,4.7-12.9,5.6c-2.6-1.8-5-4.1-6.8-6.7
					c-2.1-3-3.4-6.4-3.9-10c5.7-0.5,11.4-0.5,17,0.2l6.8-23.1c-2.7-0.1-5.3-0.2-7.8-0.3c-2.7-0.1-5.3,0.1-7.9,0.5
					c-3.5,0.6-6.7,3-9.5,7.2c-3,4.4-5.3,9.2-6.8,14.3c-1.6,5.2-2.5,10.6-2.7,16c-0.1,5.3,0.8,9.4,2.9,12.3c-4.3,2.1-10,4.6-17.1,7.4
					c-6.9,2.8-14,5.2-21.1,7.3c-2.6,0.7-5.1,1.4-7.5,1.8c4.9-7.7,8.9-16,11.8-24.6c0.8-3,1.2-6,1.3-9.1c0-5.2-1.7-8.4-5.2-9.6
					c-1.4-0.5-2.9-0.6-4.4-0.3c-4,0.8-8.1,4.3-12.5,10.4c-7.9,10.9-14.8,23.8-20.7,38.8l-3.2,1.3h-0.2l-0.1,0.2
					c-0.5,0.3-1,0.5-1.6,0.7c-0.5,0.2-1,0.4-1.5,0.6h-0.2v0.2c-4.3,1.3-8.6,2.9-12.7,4.8c-4,1.8-8.1,6.7-12.4,14.9
					c-1.2,2.1-2.2,4.4-3.1,6.6v0.1c-0.4,0.6-0.8,1.2-1.1,1.8c-0.7,0.4-1.4,0.8-2.2,1.2c-7.8,3.6-15.9,7-24.3,10
					c-8.2,3-16.1,6.6-23.7,10.8c-1.5,1-1.8,1.8-0.9,2.4c1.3,0.9,5.5,1.8,12.6,2.6c7.1,0.9,11.5,1.3,13.4,1.3c5,0.2,9.9-0.6,14.5-2.5
					c4.6-2,8.3-6.2,11.2-12.5c1.1-2.4,2.3-4.8,3.5-7.1c0.8-1.5,1.8-3,2.8-4.3c2.8-2.1,5.8-3.8,9-5c5.3-2.2,10.4-4.5,15.1-6.8v-0.2
					h0.1c1.8-0.8,3.6-1.6,5.4-2.4c1.2-0.5,2.4-1,3.6-1.6c0.4,0.5,1,1,1.6,1.2c1.9,0.9,4.1,1.2,6.2,1c6.1-0.5,13.7-2.4,23-5.5
					s18.7-6.9,28.3-11.3c9.6-4.4,18.8-9,27.5-13.8c7.1-3.8,14-8.1,20.5-12.8c0.1-0.3,0.7-1.7,1.8-4.2s2.2-5,3.2-7.8s1.9-5.2,2.5-7.2
					S283.3,69.7,282.5,70.1z M175.5,101.5l4.4-6.8c1.5-2.4,3.6-4.3,6.1-5.7c2,0.5,3.8,2.6,5.3,6.3c0.5,1.1,0.7,2.4,0.8,3.6
					c0,1.8-0.9,3.6-2.4,4.6c-3.5,2.5-7.4,4.4-11.5,5.7c-1.4-0.5-2.5-1.5-3.1-2.8c-0.3-0.6-0.5-1.2-0.5-1.9
					C174.6,103.4,175,102.4,175.5,101.5L175.5,101.5z"/>
				<path class="st3" d="M62.4,125.7c1.1,3.5,2.1,7.2,3,11c0.8,3.7,1.2,7.4,1.1,11.2v1.5c-5.6,6.3-12.2,11.6-19.5,15.8
					c-4.9,3-10.3,5-16,6.1c-3.3,0.6-6.7,1-10.1,1c-5.6-1.5-8.4-4.6-8.4-9.4c0-2,0.4-4,1.1-5.8c2.8-8.2,5.6-15.6,8.6-22.2l0.5-1.1
					l12,6c1.7-3.5,3.5-7,5.2-10.5c1.8-3.5,3.5-7.1,5.2-10.7l-12.7-6.4l-0.2-0.1l-2.4-0.9c-1.4,2.8-2.9,5.8-4.5,8.9s-3,6-4.2,8.7
					C11.5,148.4,6.7,163.5,6.7,174c0,0.9,0,1.7,0.1,2.6c0.9,10.5,4.6,16.8,11,18.7c3.3,1,6.8,1.1,10.2,0.4c4.6-1,9-2.7,13-5.1
					c9-5.2,16.5-12.8,22.5-22.8c6-10.2,10.1-21.4,12-33c0.6-3.2,0.9-6.5,0.9-9.8c0.1-7.6-1.7-15.1-5.1-21.9L62.4,125.7z"/>
				<polygon class="st3" points="111.3,125.4 106.7,55.1 94.8,77 99.4,147.3 				"/>
				<path class="st3" d="M199.3,41.8c2.2-3.3,4.4-6.6,6.6-10L194.6,23c-2.2,3.3-4.4,6.6-6.7,9.9c-2.2,3.3-4.4,6.5-6.6,9.9l11.4,8.9
					C194.9,48.3,197.1,45.1,199.3,41.8z"/>
				<path class="st3" d="M252.8,21.9c2.2-3.3,4.4-6.6,6.6-10L248,3.1c-2.2,3.3-4.4,6.6-6.7,9.9c-2.2,3.3-4.5,6.5-6.6,9.9l11.4,8.8
					L252.8,21.9z"/>
				<path class="st3" d="M282.5,70.1c-3.9,2.3-7.6,4.8-11.2,7.4c-3.9,2.7-8.3,4.7-12.9,5.6c-2.6-1.8-5-4.1-6.8-6.7
					c-2.1-3-3.4-6.4-3.9-10c5.7-0.5,11.4-0.5,17,0.2l6.8-23.1c-2.7-0.1-5.3-0.2-7.8-0.3c-2.7-0.1-5.3,0.1-7.9,0.5
					c-3.5,0.6-6.7,3-9.5,7.2c-3,4.4-5.3,9.2-6.8,14.3c-1.6,5.2-2.5,10.6-2.7,16c-0.1,5.3,0.8,9.4,2.9,12.3c-4.3,2.1-10,4.6-17.1,7.4
					c-6.9,2.8-14,5.2-21.1,7.3c-2.6,0.7-5.1,1.4-7.5,1.8c4.9-7.7,8.9-16,11.8-24.6c0.8-3,1.2-6,1.3-9.1c0-5.2-1.7-8.4-5.2-9.6
					c-1.4-0.5-2.9-0.6-4.4-0.3c-4,0.8-8.1,4.3-12.5,10.4c-7.9,10.9-14.8,23.8-20.7,38.8l-3.2,1.3h-0.2l-0.1,0.2
					c-0.5,0.3-1,0.5-1.6,0.7c-0.5,0.2-1,0.4-1.5,0.6h-0.2v0.2c-4.3,1.3-8.6,2.9-12.7,4.8c-4,1.8-8.1,6.7-12.4,14.9
					c-1.2,2.1-2.2,4.4-3.1,6.6v0.1c-0.4,0.6-0.8,1.2-1.1,1.8c-0.7,0.4-1.4,0.8-2.2,1.2c-7.8,3.6-15.9,7-24.3,10
					c-8.2,3-16.1,6.6-23.7,10.8c-1.5,1-1.8,1.8-0.9,2.4c1.3,0.9,5.5,1.8,12.6,2.6c7.1,0.9,11.5,1.3,13.4,1.3c5,0.2,9.9-0.6,14.5-2.5
					c4.6-2,8.3-6.2,11.2-12.5c1.1-2.4,2.3-4.8,3.5-7.1c0.8-1.5,1.8-3,2.8-4.3c2.8-2.1,5.8-3.8,9-5c5.3-2.2,10.4-4.5,15.1-6.8v-0.2
					h0.1c1.8-0.8,3.6-1.6,5.4-2.4c1.2-0.5,2.4-1,3.6-1.6c0.4,0.5,1,1,1.6,1.2c1.9,0.9,4.1,1.2,6.2,1c6.1-0.5,13.7-2.4,23-5.5
					s18.7-6.9,28.3-11.3c9.6-4.4,18.8-9,27.5-13.8c7.1-3.8,14-8.1,20.5-12.8c0.1-0.3,0.7-1.7,1.8-4.2s2.2-5,3.2-7.8s1.9-5.2,2.5-7.2
					S283.3,69.7,282.5,70.1z M175.5,101.5l4.4-6.8c1.5-2.4,3.6-4.3,6.1-5.7c2,0.5,3.8,2.6,5.3,6.3c0.5,1.1,0.7,2.4,0.8,3.6
					c0,1.8-0.9,3.6-2.4,4.6c-3.5,2.5-7.4,4.4-11.5,5.7c-1.4-0.5-2.5-1.5-3.1-2.8c-0.3-0.6-0.5-1.2-0.5-1.9
					C174.6,103.4,175,102.4,175.5,101.5L175.5,101.5z"/>
			</g>
		</g>
		<g>
			
				<image style="overflow:visible;" width="349" height="267" xlink:href="487DA89706931EBB.png"  transform="matrix(1 0 0 1 -29.2924 -33.8031)">
			</image>
		</g>
	</g>
</g>
<g id="Layer_1_copy">
	<title>logoarbb</title>
	<g id="Layer_2_2_">
		<g>
			<g id="Layer_2-2_8_">
				<path class="st4" d="M57.4,123.7c1.1,3.5,2.1,7.2,3,11c0.8,3.7,1.2,7.4,1.1,11.2v1.5c-5.6,6.3-12.2,11.6-19.5,15.8
					c-4.9,3-10.3,5-16,6.1c-3.3,0.6-6.7,1-10.1,1c-5.6-1.5-8.4-4.6-8.4-9.4c0-2,0.4-4,1.1-5.8c2.8-8.2,5.6-15.6,8.6-22.2l0.5-1.1
					l12,6c1.7-3.5,3.5-7,5.2-10.5c1.8-3.5,3.5-7.1,5.2-10.7l-12.7-6.4l-0.2-0.1l-2.4-0.9c-1.4,2.8-2.9,5.8-4.5,8.9s-3,6-4.2,8.7
					C6.5,146.4,1.7,161.5,1.7,172c0,0.9,0,1.7,0.1,2.6c0.9,10.5,4.6,16.8,11,18.7c3.3,1,6.8,1.1,10.2,0.4c4.6-1,9-2.7,13-5.1
					c9-5.2,16.5-12.8,22.5-22.8c6-10.2,10.1-21.4,12-33c0.6-3.2,0.9-6.5,0.9-9.8c0.1-7.6-1.7-15.1-5.1-21.9L57.4,123.7z"/>
				<polygon class="st4" points="106.3,123.4 101.7,53.1 89.8,75 94.4,145.3 				"/>
				<path class="st4" d="M194.3,39.8c2.2-3.3,4.4-6.6,6.6-10L189.6,21c-2.2,3.3-4.4,6.6-6.7,9.9c-2.2,3.3-4.4,6.5-6.6,9.9l11.4,8.9
					C189.9,46.3,192.1,43.1,194.3,39.8z"/>
				<path class="st4" d="M247.8,19.9c2.2-3.3,4.4-6.6,6.6-10L243,1.1c-2.2,3.3-4.4,6.6-6.7,9.9c-2.2,3.3-4.5,6.6-6.6,9.9l11.4,8.8
					L247.8,19.9z"/>
				<path class="st4" d="M277.5,68.1c-3.9,2.3-7.6,4.8-11.2,7.4c-3.9,2.7-8.3,4.7-12.9,5.6c-2.6-1.8-5-4.1-6.8-6.7
					c-2.1-3-3.4-6.4-3.9-10c5.7-0.5,11.4-0.5,17,0.2l6.8-23.1c-2.7-0.1-5.3-0.2-7.8-0.3c-2.7-0.1-5.3,0.1-7.9,0.5
					c-3.5,0.6-6.7,3-9.5,7.2c-3,4.4-5.3,9.2-6.8,14.3c-1.6,5.2-2.5,10.6-2.7,16c-0.1,5.3,0.8,9.4,2.9,12.3c-4.3,2.1-10,4.6-17.1,7.4
					c-6.9,2.8-14,5.2-21.1,7.3c-2.6,0.7-5.1,1.4-7.5,1.8c4.9-7.7,8.9-16,11.8-24.6c0.8-3,1.2-6,1.3-9.1c0-5.2-1.7-8.4-5.2-9.6
					c-1.4-0.5-2.9-0.6-4.4-0.3c-4,0.8-8.1,4.3-12.5,10.4c-7.9,10.9-14.8,23.8-20.7,38.8l-3.2,1.3h-0.2l-0.1,0.2
					c-0.5,0.3-1,0.5-1.6,0.7c-0.5,0.2-1,0.4-1.5,0.6h-0.2v0.2c-4.3,1.3-8.6,2.9-12.7,4.8c-4,1.8-8.1,6.7-12.4,14.9
					c-1.2,2.1-2.2,4.4-3.1,6.6v0.1c-0.4,0.6-0.8,1.2-1.1,1.8c-0.7,0.4-1.4,0.8-2.2,1.2c-7.8,3.6-15.9,7-24.3,10
					c-8.2,3-16.1,6.6-23.7,10.8c-1.5,1-1.8,1.8-0.9,2.4c1.3,0.9,5.5,1.8,12.6,2.6c7.1,0.9,11.5,1.3,13.4,1.3c5,0.2,9.9-0.6,14.5-2.5
					c4.6-2,8.3-6.2,11.2-12.5c1.1-2.4,2.3-4.8,3.5-7.1c0.8-1.5,1.8-3,2.8-4.3c2.8-2.1,5.8-3.8,9-5c5.3-2.2,10.4-4.5,15.1-6.8v-0.2
					h0.1c1.8-0.8,3.6-1.6,5.4-2.4c1.2-0.5,2.4-1,3.6-1.6c0.4,0.5,1,1,1.6,1.2c1.9,0.9,4.1,1.2,6.2,1c6.1-0.5,13.7-2.4,23-5.5
					s18.7-6.9,28.3-11.3c9.6-4.4,18.8-9,27.5-13.8c7.1-3.8,14-8.1,20.5-12.8c0.1-0.3,0.7-1.7,1.8-4.2s2.2-5,3.2-7.8s1.9-5.2,2.5-7.2
					S278.3,67.7,277.5,68.1z M170.5,99.5l4.4-6.8c1.5-2.4,3.6-4.3,6.1-5.7c2,0.5,3.8,2.6,5.3,6.3c0.5,1.1,0.7,2.4,0.8,3.6
					c0,1.8-0.9,3.6-2.4,4.6c-3.5,2.5-7.4,4.4-11.5,5.7c-1.4-0.5-2.5-1.5-3.1-2.8c-0.3-0.6-0.5-1.2-0.5-1.9
					C169.6,101.4,170,100.4,170.5,99.5L170.5,99.5z"/>
				<path d="M57.4,123.7c1.1,3.5,2.1,7.2,3,11c0.8,3.7,1.2,7.4,1.1,11.2v1.5c-5.6,6.3-12.2,11.6-19.5,15.8c-4.9,3-10.3,5-16,6.1
					c-3.3,0.6-6.7,1-10.1,1c-5.6-1.5-8.4-4.6-8.4-9.4c0-2,0.4-4,1.1-5.8c2.8-8.2,5.6-15.6,8.6-22.2l0.5-1.1l12,6
					c1.7-3.5,3.5-7,5.2-10.5c1.8-3.5,3.5-7.1,5.2-10.7l-12.7-6.4l-0.2-0.1l-2.4-0.9c-1.4,2.8-2.9,5.8-4.5,8.9s-3,6-4.2,8.7
					C6.5,146.4,1.7,161.5,1.7,172c0,0.9,0,1.7,0.1,2.6c0.9,10.5,4.6,16.8,11,18.7c3.3,1,6.8,1.1,10.2,0.4c4.6-1,9-2.7,13-5.1
					c9-5.2,16.5-12.8,22.5-22.8c6-10.2,10.1-21.4,12-33c0.6-3.2,0.9-6.5,0.9-9.8c0.1-7.6-1.7-15.1-5.1-21.9L57.4,123.7z"/>
				<polygon points="106.3,123.4 101.7,53.1 89.8,75 94.4,145.3 				"/>
				<path d="M194.3,39.8c2.2-3.3,4.4-6.6,6.6-10L189.6,21c-2.2,3.3-4.4,6.6-6.7,9.9c-2.2,3.3-4.4,6.5-6.6,9.9l11.4,8.9
					C189.9,46.3,192.1,43.1,194.3,39.8z"/>
				<path d="M247.8,19.9c2.2-3.3,4.4-6.6,6.6-10L243,1.1c-2.2,3.3-4.4,6.6-6.7,9.9c-2.2,3.3-4.5,6.6-6.6,9.9l11.4,8.8L247.8,19.9z"
					/>
				<path d="M277.5,68.1c-3.9,2.3-7.6,4.8-11.2,7.4c-3.9,2.7-8.3,4.7-12.9,5.6c-2.6-1.8-5-4.1-6.8-6.7c-2.1-3-3.4-6.4-3.9-10
					c5.7-0.5,11.4-0.5,17,0.2l6.8-23.1c-2.7-0.1-5.3-0.2-7.8-0.3c-2.7-0.1-5.3,0.1-7.9,0.5c-3.5,0.6-6.7,3-9.5,7.2
					c-3,4.4-5.3,9.2-6.8,14.3c-1.6,5.2-2.5,10.6-2.7,16c-0.1,5.3,0.8,9.4,2.9,12.3c-4.3,2.1-10,4.6-17.1,7.4
					c-6.9,2.8-14,5.2-21.1,7.3c-2.6,0.7-5.1,1.4-7.5,1.8c4.9-7.7,8.9-16,11.8-24.6c0.8-3,1.2-6,1.3-9.1c0-5.2-1.7-8.4-5.2-9.6
					c-1.4-0.5-2.9-0.6-4.4-0.3c-4,0.8-8.1,4.3-12.5,10.4c-7.9,10.9-14.8,23.8-20.7,38.8l-3.2,1.3h-0.2l-0.1,0.2
					c-0.5,0.3-1,0.5-1.6,0.7c-0.5,0.2-1,0.4-1.5,0.6h-0.2v0.2c-4.3,1.3-8.6,2.9-12.7,4.8c-4,1.8-8.1,6.7-12.4,14.9
					c-1.2,2.1-2.2,4.4-3.1,6.6v0.1c-0.4,0.6-0.8,1.2-1.1,1.8c-0.7,0.4-1.4,0.8-2.2,1.2c-7.8,3.6-15.9,7-24.3,10
					c-8.2,3-16.1,6.6-23.7,10.8c-1.5,1-1.8,1.8-0.9,2.4c1.3,0.9,5.5,1.8,12.6,2.6c7.1,0.9,11.5,1.3,13.4,1.3c5,0.2,9.9-0.6,14.5-2.5
					c4.6-2,8.3-6.2,11.2-12.5c1.1-2.4,2.3-4.8,3.5-7.1c0.8-1.5,1.8-3,2.8-4.3c2.8-2.1,5.8-3.8,9-5c5.3-2.2,10.4-4.5,15.1-6.8v-0.2
					h0.1c1.8-0.8,3.6-1.6,5.4-2.4c1.2-0.5,2.4-1,3.6-1.6c0.4,0.5,1,1,1.6,1.2c1.9,0.9,4.1,1.2,6.2,1c6.1-0.5,13.7-2.4,23-5.5
					s18.7-6.9,28.3-11.3c9.6-4.4,18.8-9,27.5-13.8c7.1-3.8,14-8.1,20.5-12.8c0.1-0.3,0.7-1.7,1.8-4.2s2.2-5,3.2-7.8s1.9-5.2,2.5-7.2
					S278.3,67.7,277.5,68.1z M170.5,99.5l4.4-6.8c1.5-2.4,3.6-4.3,6.1-5.7c2,0.5,3.8,2.6,5.3,6.3c0.5,1.1,0.7,2.4,0.8,3.6
					c0,1.8-0.9,3.6-2.4,4.6c-3.5,2.5-7.4,4.4-11.5,5.7c-1.4-0.5-2.5-1.5-3.1-2.8c-0.3-0.6-0.5-1.2-0.5-1.9
					C169.6,101.4,170,100.4,170.5,99.5L170.5,99.5z"/>
			</g>
		</g>
		<g>
			<g id="Layer_2-2_7_">
				<path class="st4" d="M57.4,123.7c1.1,3.5,2.1,7.2,3,11c0.8,3.7,1.2,7.4,1.1,11.2v1.5c-5.6,6.3-12.2,11.6-19.5,15.8
					c-4.9,3-10.3,5-16,6.1c-3.3,0.6-6.7,1-10.1,1c-5.6-1.5-8.4-4.6-8.4-9.4c0-2,0.4-4,1.1-5.8c2.8-8.2,5.6-15.6,8.6-22.2l0.5-1.1
					l12,6c1.7-3.5,3.5-7,5.2-10.5c1.8-3.5,3.5-7.1,5.2-10.7l-12.7-6.4l-0.2-0.1l-2.4-0.9c-1.4,2.8-2.9,5.8-4.5,8.9s-3,6-4.2,8.7
					C6.5,146.4,1.7,161.5,1.7,172c0,0.9,0,1.7,0.1,2.6c0.9,10.5,4.6,16.8,11,18.7c3.3,1,6.8,1.1,10.2,0.4c4.6-1,9-2.7,13-5.1
					c9-5.2,16.5-12.8,22.5-22.8c6-10.2,10.1-21.4,12-33c0.6-3.2,0.9-6.5,0.9-9.8c0.1-7.6-1.7-15.1-5.1-21.9L57.4,123.7z"/>
				<polygon class="st4" points="106.3,123.4 101.7,53.1 89.8,75 94.4,145.3 				"/>
				<path class="st4" d="M194.3,39.8c2.2-3.3,4.4-6.6,6.6-10L189.6,21c-2.2,3.3-4.4,6.6-6.7,9.9c-2.2,3.3-4.4,6.5-6.6,9.9l11.4,8.9
					C189.9,46.3,192.1,43.1,194.3,39.8z"/>
				<path class="st4" d="M247.8,19.9c2.2-3.3,4.4-6.6,6.6-10L243,1.1c-2.2,3.3-4.4,6.6-6.7,9.9c-2.2,3.3-4.5,6.6-6.6,9.9l11.4,8.8
					L247.8,19.9z"/>
				<path class="st4" d="M277.5,68.1c-3.9,2.3-7.6,4.8-11.2,7.4c-3.9,2.7-8.3,4.7-12.9,5.6c-2.6-1.8-5-4.1-6.8-6.7
					c-2.1-3-3.4-6.4-3.9-10c5.7-0.5,11.4-0.5,17,0.2l6.8-23.1c-2.7-0.1-5.3-0.2-7.8-0.3c-2.7-0.1-5.3,0.1-7.9,0.5
					c-3.5,0.6-6.7,3-9.5,7.2c-3,4.4-5.3,9.2-6.8,14.3c-1.6,5.2-2.5,10.6-2.7,16c-0.1,5.3,0.8,9.4,2.9,12.3c-4.3,2.1-10,4.6-17.1,7.4
					c-6.9,2.8-14,5.2-21.1,7.3c-2.6,0.7-5.1,1.4-7.5,1.8c4.9-7.7,8.9-16,11.8-24.6c0.8-3,1.2-6,1.3-9.1c0-5.2-1.7-8.4-5.2-9.6
					c-1.4-0.5-2.9-0.6-4.4-0.3c-4,0.8-8.1,4.3-12.5,10.4c-7.9,10.9-14.8,23.8-20.7,38.8l-3.2,1.3h-0.2l-0.1,0.2
					c-0.5,0.3-1,0.5-1.6,0.7c-0.5,0.2-1,0.4-1.5,0.6h-0.2v0.2c-4.3,1.3-8.6,2.9-12.7,4.8c-4,1.8-8.1,6.7-12.4,14.9
					c-1.2,2.1-2.2,4.4-3.1,6.6v0.1c-0.4,0.6-0.8,1.2-1.1,1.8c-0.7,0.4-1.4,0.8-2.2,1.2c-7.8,3.6-15.9,7-24.3,10
					c-8.2,3-16.1,6.6-23.7,10.8c-1.5,1-1.8,1.8-0.9,2.4c1.3,0.9,5.5,1.8,12.6,2.6c7.1,0.9,11.5,1.3,13.4,1.3c5,0.2,9.9-0.6,14.5-2.5
					c4.6-2,8.3-6.2,11.2-12.5c1.1-2.4,2.3-4.8,3.5-7.1c0.8-1.5,1.8-3,2.8-4.3c2.8-2.1,5.8-3.8,9-5c5.3-2.2,10.4-4.5,15.1-6.8v-0.2
					h0.1c1.8-0.8,3.6-1.6,5.4-2.4c1.2-0.5,2.4-1,3.6-1.6c0.4,0.5,1,1,1.6,1.2c1.9,0.9,4.1,1.2,6.2,1c6.1-0.5,13.7-2.4,23-5.5
					s18.7-6.9,28.3-11.3c9.6-4.4,18.8-9,27.5-13.8c7.1-3.8,14-8.1,20.5-12.8c0.1-0.3,0.7-1.7,1.8-4.2s2.2-5,3.2-7.8s1.9-5.2,2.5-7.2
					S278.3,67.7,277.5,68.1z M170.5,99.5l4.4-6.8c1.5-2.4,3.6-4.3,6.1-5.7c2,0.5,3.8,2.6,5.3,6.3c0.5,1.1,0.7,2.4,0.8,3.6
					c0,1.8-0.9,3.6-2.4,4.6c-3.5,2.5-7.4,4.4-11.5,5.7c-1.4-0.5-2.5-1.5-3.1-2.8c-0.3-0.6-0.5-1.2-0.5-1.9
					C169.6,101.4,170,100.4,170.5,99.5L170.5,99.5z"/>
				<path class="st4" d="M57.4,123.7c1.1,3.5,2.1,7.2,3,11c0.8,3.7,1.2,7.4,1.1,11.2v1.5c-5.6,6.3-12.2,11.6-19.5,15.8
					c-4.9,3-10.3,5-16,6.1c-3.3,0.6-6.7,1-10.1,1c-5.6-1.5-8.4-4.6-8.4-9.4c0-2,0.4-4,1.1-5.8c2.8-8.2,5.6-15.6,8.6-22.2l0.5-1.1
					l12,6c1.7-3.5,3.5-7,5.2-10.5c1.8-3.5,3.5-7.1,5.2-10.7l-12.7-6.4l-0.2-0.1l-2.4-0.9c-1.4,2.8-2.9,5.8-4.5,8.9s-3,6-4.2,8.7
					C6.5,146.4,1.7,161.5,1.7,172c0,0.9,0,1.7,0.1,2.6c0.9,10.5,4.6,16.8,11,18.7c3.3,1,6.8,1.1,10.2,0.4c4.6-1,9-2.7,13-5.1
					c9-5.2,16.5-12.8,22.5-22.8c6-10.2,10.1-21.4,12-33c0.6-3.2,0.9-6.5,0.9-9.8c0.1-7.6-1.7-15.1-5.1-21.9L57.4,123.7z"/>
				<polygon class="st4" points="106.3,123.4 101.7,53.1 89.8,75 94.4,145.3 				"/>
				<path class="st4" d="M194.3,39.8c2.2-3.3,4.4-6.6,6.6-10L189.6,21c-2.2,3.3-4.4,6.6-6.7,9.9c-2.2,3.3-4.4,6.5-6.6,9.9l11.4,8.9
					C189.9,46.3,192.1,43.1,194.3,39.8z"/>
				<path class="st4" d="M247.8,19.9c2.2-3.3,4.4-6.6,6.6-10L243,1.1c-2.2,3.3-4.4,6.6-6.7,9.9c-2.2,3.3-4.5,6.6-6.6,9.9l11.4,8.8
					L247.8,19.9z"/>
				<path class="st4" d="M277.5,68.1c-3.9,2.3-7.6,4.8-11.2,7.4c-3.9,2.7-8.3,4.7-12.9,5.6c-2.6-1.8-5-4.1-6.8-6.7
					c-2.1-3-3.4-6.4-3.9-10c5.7-0.5,11.4-0.5,17,0.2l6.8-23.1c-2.7-0.1-5.3-0.2-7.8-0.3c-2.7-0.1-5.3,0.1-7.9,0.5
					c-3.5,0.6-6.7,3-9.5,7.2c-3,4.4-5.3,9.2-6.8,14.3c-1.6,5.2-2.5,10.6-2.7,16c-0.1,5.3,0.8,9.4,2.9,12.3c-4.3,2.1-10,4.6-17.1,7.4
					c-6.9,2.8-14,5.2-21.1,7.3c-2.6,0.7-5.1,1.4-7.5,1.8c4.9-7.7,8.9-16,11.8-24.6c0.8-3,1.2-6,1.3-9.1c0-5.2-1.7-8.4-5.2-9.6
					c-1.4-0.5-2.9-0.6-4.4-0.3c-4,0.8-8.1,4.3-12.5,10.4c-7.9,10.9-14.8,23.8-20.7,38.8l-3.2,1.3h-0.2l-0.1,0.2
					c-0.5,0.3-1,0.5-1.6,0.7c-0.5,0.2-1,0.4-1.5,0.6h-0.2v0.2c-4.3,1.3-8.6,2.9-12.7,4.8c-4,1.8-8.1,6.7-12.4,14.9
					c-1.2,2.1-2.2,4.4-3.1,6.6v0.1c-0.4,0.6-0.8,1.2-1.1,1.8c-0.7,0.4-1.4,0.8-2.2,1.2c-7.8,3.6-15.9,7-24.3,10
					c-8.2,3-16.1,6.6-23.7,10.8c-1.5,1-1.8,1.8-0.9,2.4c1.3,0.9,5.5,1.8,12.6,2.6c7.1,0.9,11.5,1.3,13.4,1.3c5,0.2,9.9-0.6,14.5-2.5
					c4.6-2,8.3-6.2,11.2-12.5c1.1-2.4,2.3-4.8,3.5-7.1c0.8-1.5,1.8-3,2.8-4.3c2.8-2.1,5.8-3.8,9-5c5.3-2.2,10.4-4.5,15.1-6.8v-0.2
					h0.1c1.8-0.8,3.6-1.6,5.4-2.4c1.2-0.5,2.4-1,3.6-1.6c0.4,0.5,1,1,1.6,1.2c1.9,0.9,4.1,1.2,6.2,1c6.1-0.5,13.7-2.4,23-5.5
					s18.7-6.9,28.3-11.3c9.6-4.4,18.8-9,27.5-13.8c7.1-3.8,14-8.1,20.5-12.8c0.1-0.3,0.7-1.7,1.8-4.2s2.2-5,3.2-7.8s1.9-5.2,2.5-7.2
					S278.3,67.7,277.5,68.1z M170.5,99.5l4.4-6.8c1.5-2.4,3.6-4.3,6.1-5.7c2,0.5,3.8,2.6,5.3,6.3c0.5,1.1,0.7,2.4,0.8,3.6
					c0,1.8-0.9,3.6-2.4,4.6c-3.5,2.5-7.4,4.4-11.5,5.7c-1.4-0.5-2.5-1.5-3.1-2.8c-0.3-0.6-0.5-1.2-0.5-1.9
					C169.6,101.4,170,100.4,170.5,99.5L170.5,99.5z"/>
			</g>
		</g>
	</g>
</g>
</svg>
