<?xml version="1.0" encoding="utf-8"?>
<!-- Generator: Adobe Illustrator 24.0.0, SVG Export Plug-In . SVG Version: 6.00 Build 0)  -->
<svg version="1.1" xmlns="http://www.w3.org/2000/svg" xmlns:xlink="http://www.w3.org/1999/xlink" x="0px" y="0px"
	 viewBox="0 0 256 256" style="enable-background:new 0 0 256 256;" xml:space="preserve">
<g id="Layer_1">
</g>
<g id="Layer_10">
	<g id="XMLID_172_">
		<path id="XMLID_170_" d="M148.8,202.8c0,0.7,0,1.3-0.1,2C148.8,204.3,148.8,203.6,148.8,202.8z"/>
		<path id="XMLID_183_" d="M142.5,188c0.8-8,3.8-15,9-21c5.3-6.1,10.7-12.1,16.6-17.7c16.2-15.5,27.8-33.3,30.3-56.1
			c0.5-4.7,0.5-5-4.6-6.6c-3.5,12.9-5.8,26.6-18.6,35.6c-0.8-2.3-1.4-4-2-5.7c-1.1-3.2-1.9-6.6-3.3-9.7c-2.4-5.5-6.9-7.7-12.6-5.7
			c-3.2,1.2-6.4,3.2-8.7,5.7c-6.4,6.9-9.1,15.5-8.6,24.8c0.2,3.6,1.7,7.3,3.1,10.7c1.5,3.6,4.3,5.3,8.5,4.7c3-0.4,6-0.3,9.8-0.5
			c-3.8,4.9-7.4,9-10.5,13.4c-3.6,5.2-7.2,10.5-10.1,16.1c-2.6,4.9-3.6,10.4-2.6,16.3C140.1,191.2,142.3,189.7,142.5,188z
			 M148,130.4c2-6.6,6.1-10.8,12.4-12.8c1.4-0.4,3.6-0.7,4.6,0c2.1,1.5,4,3.5,5.2,5.8c0.3,0.6-2,3.2-3.6,4.1
			C160.9,130.8,154.8,131.9,148,130.4z"/>
		<path id="XMLID_164_" d="M90.9,119.1c0.6,10.9-3.3,20.6-8.3,29.8c-5.4,9.9-11.4,19.5-16.4,29.5c-7.5,14.9-9.4,30.6-3.4,46.6
			c3.2,8.4,8.8,14.9,17.8,17.1c12,3,23.5,1.3,33-7.2c11.5-10.3,15.3-23.6,13.8-38.6c-0.7-6.9-2.9-13.4-7.7-18.6
			c-1.5-1.6-3.6-2.7-6.1-4.5c-0.6,4.8,1.3,7.6,2.9,10.3c7.7,12.7,6,24.9-2.4,36.4c-12.3,16.9-37.6,15.9-47.7-1.6
			c-5.1-8.9-4.4-18.1-0.4-26.9c3.2-7.1,7.4-13.8,11.2-20.6c5-9,11.1-17.6,15-27.1c11.4-27.5-3.2-55.5-31.7-61.9
			c-2.4-0.5-5-0.7-7.4-1c0,0.3-0.1,0.6-0.1,0.9c0.8,0.2,1.6,0.4,2.4,0.5C75.1,84.1,89.7,99.4,90.9,119.1z"/>
		<path id="XMLID_163_" d="M184.4,153.2c0.1,0.4,0.2,0.8,0.3,1.2c4.4,10.3,6.5,21.1,6.8,32.2c0.3,10.1-0.8,20.1-6.9,28.7
			c-4.9,7-12,10.1-20.4,9.2c-8.6-0.9-15-5-17.8-13.6c-0.3-1.1-0.8-2.1-1.3-3.1c-4.2,3.9-5,6.6-2.6,11.1c2,3.8,4.3,7.5,7.1,10.8
			c4.3,5,10,7.9,16.7,8.2c13,0.7,23.3-6,28.8-19.3C205.3,194.7,196.4,173.7,184.4,153.2z"/>
		<path id="XMLID_162_" d="M117.3,79.5c0.6,2.7,1.5,7.6,1.8,8.8c4.6,18.8,8,37.9,8.5,57.3c0.2,9.6-0.4,19.3-0.7,28.9
			c-0.1,2.2-0.7,4.5,2.8,5.8c6.7-32.6,3.4-68.3-3.7-101.6c0,0,0,0,0,0c-5.3-24.1-10.8-52.6-10-77.5c-0.4-0.1-0.8-0.1-1.2-0.1
			c-0.3,1-0.7,2-0.8,3.1c-0.4,2.4-0.7,4.7-1,7.1c-2.8,20.7-1.4,41.3,2.8,61.7C115.9,73.4,116.7,77.1,117.3,79.5z"/>
		<path id="XMLID_160_" d="M95.4,172.8c-2.3-2.1-4.4-1.7-5.9,1.3c-1.2,2.3-2.7,4.5-3.7,6.9c-0.4,1-0.4,3.1,0.3,3.5
			c2.4,1.8,5.2,3.1,7.9,4.6c0,0,0.2-0.1,0.3-0.2c2.1-3.1,4.1-6.2,6.6-9.9C98.7,176.5,97.2,174.4,95.4,172.8z"/>
		<path id="XMLID_157_" d="M139.6,98.5c2.2,1.6,4.7,2.8,7.2,4.2c0,0,0.2-0.1,0.2-0.2c1.9-2.8,3.8-5.7,6-9c-1.9-2.2-3.2-4.1-4.9-5.6
			c-2.1-1.9-4-1.5-5.4,1.2c-1.1,2.1-2.5,4.1-3.4,6.2C138.9,96.2,139,98,139.6,98.5z"/>
		<path id="XMLID_145_" d="M175.9,150.4c-1.8-1.4-3.4-1.1-4.5,0.8c-0.9,1.5-2.1,2.9-2.8,4.4c-0.3,0.7-0.3,2,0.2,2.3c1.9,1.1,4,2,6,3
			c0,0,0.2-0.1,0.2-0.1c1.6-2,3.2-4,5-6.4C178.4,152.8,177.3,151.5,175.9,150.4z"/>
		<path id="XMLID_158_" d="M118.8,237.8c-5,4-10.1,7.8-16.3,9.8c-1.9,0.6-3.6,1-5,1.3c-0.4,0.1-1.2,0.2-2.6,0.5
			c-2.1,0.4-4.5,0.5-7.1,0.6c-4.6,0-6.8,0.2-6.8,0.6c0.1,0.3,0.7,0.8,1.8,1.3c1.1,0.5,2.1,0.9,2.8,1.1c0.7,0.2,1.4,0.5,2,0.6
			c0.3,0.1,0.5,0.1,0.8,0.2c2.3,0.6,4.8,1.1,7.5,1.4c2.7,0.3,5.5,0.5,8.1,0.3c5.6-0.4,11-1.5,16.3-4.2c4.4-2.2,8.3-5.7,10.5-10.2
			c3-6.1,4.6-12.9,6.5-19.4c1.7-5.8,3.5-12.7,8.7-16.6c1.1-0.2,1.7-0.3,2.8-0.5c0-0.7,0-1.3,0.1-2c0,0.7,0,1.4-0.1,2
			c2.8,0,14.5-1.9,16.9-3.3c2.5-1.4,4.4-2.9,5.9-4.5c1.9-2,3.3-3.7,4-5c1-1.9,1.9-4.6,2.5-8.1c0.1-0.6,0.2-0.8,0.3-1.4
			c0.1-0.7,0.2-1,0.3-1.7c0.1-0.5,0.1-0.7,0.2-1.2c0-0.4,0-0.6,0-1c-0.3-4.1-0.4-8.1-2.2-11.6c-1.2-2.4-3.2-3.5-5.5-3.2
			c-0.4,0.1-0.5,0.1-0.9,0.2c-0.4,0.1-0.6,0.2-1,0.3c-2.9,1.1-5.1,2.8-6.4,5.3c-1,1.9-1.6,3.6-1.8,5c0,0.7-0.1,1-0.1,1.7
			c0.2,2.2,0.9,3.7,1.9,4.5c1.2,0.9,2.2,1.3,2.7,1.4c0.6,0,0.9,0,1.5,0c0.5-0.1,0.7-0.1,1.2-0.2c1.6-0.7,2.3-1.1,3.9-1.9
			c1.5-0.8,2.2-1.2,3.7-2.1c0.1,0.1,0,0.4,0,0.9c0,0.4,0,0.7-0.1,1.1c0,0.4,0,0.6,0,1c-0.1,0.3-0.1,0.5-0.1,0.8
			c-0.4,2.1-1.2,3.9-2.5,5.5c-0.9,1.1-2,2.1-3.3,2.8c-2.2,1.3-4.1,2.3-5.6,2.8c-0.5,0.2-1.1,0-1.5,0.1c-0.4,0.1-2-0.1-2.4-0.1
			c-1.5-0.3-9-3.1-11.1-2.7c-1.1,0.2-1.7,0.3-2.9,0.5c-4.5,2.4-7.7,6.6-9.4,11.4c-1.8,5.7-3.5,11.4-5.3,17.1
			C128.5,226.3,124.8,232.9,118.8,237.8z"/>
	</g>
</g>
</svg>
