<svg xmlns="http://www.w3.org/2000/svg" viewBox="0 0 276.44 193.12"><title>logoarbw</title><g id="Layer_2" data-name="Layer 2"><g id="Layer_2-2" data-name="Layer 2"><path d="M55.65,122.67c1.1,3.54,2.11,7.2,3,11a51.08,51.08,0,0,1,1.11,11.16v1.47a79.25,79.25,0,0,1-19.47,15.8,49.19,49.19,0,0,1-16,6.12,54.08,54.08,0,0,1-10.07,1Q5.78,167,5.78,159.83A18.26,18.26,0,0,1,6.89,154q4.13-12.25,8.55-22.2l.47-1.15,12,6c1.74-3.5,3.47-7,5.22-10.51s3.48-7.08,5.22-10.74L25.65,109l-.24-.12L23,108q-2.14,4.26-4.48,8.89t-4.24,8.68Q0,155.23,0,170.93c0,.88,0,1.74.08,2.6q1.35,15.78,11,18.74a20.52,20.52,0,0,0,10.21.39,43.52,43.52,0,0,0,13-5.13q13.53-7.77,22.47-22.77a95.37,95.37,0,0,0,12-33,57.13,57.13,0,0,0,.87-9.82A47.58,47.58,0,0,0,64.51,100Z" fill="#fff"/><polygon points="104.61 122.3 100.02 52 88.07 73.96 92.66 144.26 104.61 122.3" fill="#fff"/><path d="M192.64,38.73q3.33-4.9,6.65-10l-11.4-8.84q-3.31,5-6.68,9.89t-6.61,9.87L186,48.53Q189.32,43.63,192.64,38.73Z" fill="#fff"/><path d="M246.07,18.8q3.33-4.91,6.65-10L241.32,0Q238,5,234.64,9.89T228,19.76l11.4,8.84Z" fill="#fff"/><path d="M275.84,67q-5.79,3.49-11.16,7.36A35,35,0,0,1,251.77,80a28.71,28.71,0,0,1-6.84-6.73,22.67,22.67,0,0,1-3.92-10,79.94,79.94,0,0,1,17,.22l6.8-23.09c-2.69-.13-5.27-.25-7.75-.34a42.18,42.18,0,0,0-7.92.51q-5.22.93-9.54,7.21a53,53,0,0,0-6.81,14.33,59,59,0,0,0-2.69,16q-.19,8,2.89,12.29-6.4,3.12-17.06,7.44a206,206,0,0,1-21.13,7.28q-3.91,1.11-7.51,1.85a110.27,110.27,0,0,0,11.75-24.64,39.63,39.63,0,0,0,1.26-9.08q0-7.77-5.22-9.63a8.5,8.5,0,0,0-4.36-.3q-5.93,1.16-12.5,10.45-11.81,16.35-20.66,38.78l-3.25,1.28-.16,0-.08.18a12.75,12.75,0,0,1-1.58.68q-.8.27-1.5.57l-.24,0v.25A109.52,109.52,0,0,0,138,120.28q-5.94,2.63-12.43,14.93a56.39,56.39,0,0,0-3.09,6.65V142c-.44.64-.82,1.24-1.14,1.82a17.08,17.08,0,0,1-2.18,1.19q-11.72,5.47-24.26,10a160.32,160.32,0,0,0-23.71,10.81c-1.48,1-1.77,1.79-.87,2.38q2,1.34,12.58,2.63t13.38,1.34a34.41,34.41,0,0,0,14.49-2.48q6.89-3.06,11.24-12.49,1.67-3.67,3.52-7.15a31.53,31.53,0,0,1,2.8-4.33,37.5,37.5,0,0,1,9-5q8-3.3,15.08-6.81v-.17h.08q2.7-1.26,5.38-2.4,1.78-.75,3.6-1.56a4.89,4.89,0,0,0,1.63,1.25,11.41,11.41,0,0,0,6.17,1q9.1-.78,23-5.51t28.3-11.3q14.44-6.56,27.46-13.75a182,182,0,0,0,20.54-12.82c.11-.35.7-1.74,1.79-4.19s2.16-5,3.24-7.79,1.93-5.15,2.53-7.2S276.57,66.63,275.84,67Zm-107,31.46,4.35-6.85a16.47,16.47,0,0,1,6.1-5.65c2,.48,3.82,2.56,5.3,6.26a10.18,10.18,0,0,1,.79,3.61,5.31,5.31,0,0,1-2.45,4.57,38.28,38.28,0,0,1-11.48,5.66,5.46,5.46,0,0,1-3.09-2.84,4,4,0,0,1-.47-1.87A5.35,5.35,0,0,1,168.82,98.5Z" fill="#fff"/><path d="M55.65,122.67c1.1,3.54,2.11,7.2,3,11a51.08,51.08,0,0,1,1.11,11.16v1.47a79.25,79.25,0,0,1-19.47,15.8,49.19,49.19,0,0,1-16,6.12,54.08,54.08,0,0,1-10.07,1Q5.78,167,5.78,159.83A18.26,18.26,0,0,1,6.89,154q4.13-12.25,8.55-22.2l.47-1.15,12,6c1.74-3.5,3.47-7,5.22-10.51s3.48-7.08,5.22-10.74L25.65,109l-.24-.12L23,108q-2.14,4.26-4.48,8.89t-4.24,8.68Q0,155.23,0,170.93c0,.88,0,1.74.08,2.6q1.35,15.78,11,18.74a20.52,20.52,0,0,0,10.21.39,43.52,43.52,0,0,0,13-5.13q13.53-7.77,22.47-22.77a95.37,95.37,0,0,0,12-33,57.13,57.13,0,0,0,.87-9.82A47.58,47.58,0,0,0,64.51,100Z" fill="#fff"/><polygon points="104.61 122.3 100.02 52 88.07 73.96 92.66 144.26 104.61 122.3" fill="#fff"/><path d="M192.64,38.73q3.33-4.9,6.65-10l-11.4-8.84q-3.31,5-6.68,9.89t-6.61,9.87L186,48.53Q189.32,43.63,192.64,38.73Z" fill="#fff"/><path d="M246.07,18.8q3.33-4.91,6.65-10L241.32,0Q238,5,234.64,9.89T228,19.76l11.4,8.84Z" fill="#fff"/><path d="M275.84,67q-5.79,3.49-11.16,7.36A35,35,0,0,1,251.77,80a28.71,28.71,0,0,1-6.84-6.73,22.67,22.67,0,0,1-3.92-10,79.94,79.94,0,0,1,17,.22l6.8-23.09c-2.69-.13-5.27-.25-7.75-.34a42.18,42.18,0,0,0-7.92.51q-5.22.93-9.54,7.21a53,53,0,0,0-6.81,14.33,59,59,0,0,0-2.69,16q-.19,8,2.89,12.29-6.4,3.12-17.06,7.44a206,206,0,0,1-21.13,7.28q-3.91,1.11-7.51,1.85a110.27,110.27,0,0,0,11.75-24.64,39.63,39.63,0,0,0,1.26-9.08q0-7.77-5.22-9.63a8.5,8.5,0,0,0-4.36-.3q-5.93,1.16-12.5,10.45-11.81,16.35-20.66,38.78l-3.25,1.28-.16,0-.08.18a12.75,12.75,0,0,1-1.58.68q-.8.27-1.5.57l-.24,0v.25A109.52,109.52,0,0,0,138,120.28q-5.94,2.63-12.43,14.93a56.39,56.39,0,0,0-3.09,6.65V142c-.44.64-.82,1.24-1.14,1.82a17.08,17.08,0,0,1-2.18,1.19q-11.72,5.47-24.26,10a160.32,160.32,0,0,0-23.71,10.81c-1.48,1-1.77,1.79-.87,2.38q2,1.34,12.58,2.63t13.38,1.34a34.41,34.41,0,0,0,14.49-2.48q6.89-3.06,11.24-12.49,1.67-3.67,3.52-7.15a31.53,31.53,0,0,1,2.8-4.33,37.5,37.5,0,0,1,9-5q8-3.3,15.08-6.81v-.17h.08q2.7-1.26,5.38-2.4,1.78-.75,3.6-1.56a4.89,4.89,0,0,0,1.63,1.25,11.41,11.41,0,0,0,6.17,1q9.1-.78,23-5.51t28.3-11.3q14.44-6.56,27.46-13.75a182,182,0,0,0,20.54-12.82c.11-.35.7-1.74,1.79-4.19s2.16-5,3.24-7.79,1.93-5.15,2.53-7.2S276.57,66.63,275.84,67Zm-107,31.46,4.35-6.85a16.47,16.47,0,0,1,6.1-5.65c2,.48,3.82,2.56,5.3,6.26a10.18,10.18,0,0,1,.79,3.61,5.31,5.31,0,0,1-2.45,4.57,38.28,38.28,0,0,1-11.48,5.66,5.46,5.46,0,0,1-3.09-2.84,4,4,0,0,1-.47-1.87A5.35,5.35,0,0,1,168.82,98.5Z" fill="#fff"/></g></g></svg>