<?xml version="1.0" encoding="utf-8"?>
<!-- Generator: Adobe Illustrator 24.0.0, SVG Export Plug-In . SVG Version: 6.00 Build 0)  -->
<svg version="1.1" id="Capa_1" xmlns="http://www.w3.org/2000/svg" xmlns:xlink="http://www.w3.org/1999/xlink" x="0px" y="0px"
	 viewBox="0 0 512 512" style="enable-background:new 0 0 512 512;" xml:space="preserve">
<g>
	<g>
		<path d="M256,106c-82.7,0-150,67.3-150,150s67.3,150,150,150s150-67.3,150-150S338.7,106,256,106z"/>
	</g>
</g>
<g>
	<g>
		<path d="M411.7,346c-15.6,27.3-38.7,50.1-66,66l90.3,24.3L411.7,346z"/>
	</g>
</g>
<g>
	<g>
		<path d="M256,0l-46.2,82.3c14.7-4.2,30.3-6.3,46.2-6.3s31.5,2.1,46.2,6.3L256,0z"/>
	</g>
</g>
<g>
	<g>
		<path d="M76,76l24.3,90c15.6-27.3,38.1-49.8,65.4-65.7L76,76z"/>
	</g>
</g>
<g>
	<g>
		<path d="M82.3,209.5L0.3,256l82,46.5C78.1,287.8,76,272.2,76,256C76,239.8,78.1,224.2,82.3,209.5z"/>
	</g>
</g>
<g>
	<g>
		<path d="M100.3,346L76,436.3l90.3-24.3C139,396.1,115.9,373.3,100.3,346z"/>
	</g>
</g>
<g>
	<g>
		<path d="M256,436c-16.2,0-31.8-2.1-46.8-6.3L256,512l46.8-82.3C287.8,433.9,272.2,436,256,436z"/>
	</g>
</g>
<g>
	<g>
		<path d="M346.2,100.5c27.1,15.8,49.8,38.4,65.5,65.6l24.4-90L346.2,100.5z"/>
	</g>
</g>
<g>
	<g>
		<path d="M511.7,256.1l-82-46.4c3.9,14.8,6.2,30.2,6.2,46.2c0,16.1-2.3,31.7-6.3,46.6L511.7,256.1z"/>
	</g>
</g>
</svg>
